<?xml version="1.0" encoding="utf-8"?>
<!-- Generator: Adobe Illustrator 25.4.1, SVG Export Plug-In . SVG Version: 6.00 Build 0)  -->
<svg version="1.1" id="Layer_1" xmlns="http://www.w3.org/2000/svg" xmlns:xlink="http://www.w3.org/1999/xlink" x="0px" y="0px"
	 viewBox="0 0 100 100" style="enable-background:new 0 0 100 100;" xml:space="preserve">
<style type="text/css">
	.st0{fill:#0066C8;}
	.st1{fill:#FFFFFF;}
</style>
<circle class="st0" cx="50" cy="50" r="48.6"/>
<g>
	<path class="st1" d="M53.8,42.4c0.1-0.1,0.2-0.2,0.2-0.2c2.2-2.8,5.1-4.5,8.5-5.3c2.7-0.6,5.4-0.5,8,0.5c2.2,0.8,4.1,2.1,5.6,3.9
		c0.9,1.1,1.5,2.5,2.1,3.8c0.7,1.7,1,3.4,1,5.2c0,7.3,0,14.6,0,21.9c0,0.1,0,0.2,0,0.3c0,0.2-0.1,0.3-0.3,0.3c-0.7,0-1.4,0-2.1,0
		c-2.6,0-5.3,0-7.9,0c-0.3,0-0.3-0.1-0.3-0.3c0-5.5,0-10.9,0-16.4c0-1.2,0-2.5-0.1-3.7c-0.1-1.8-0.9-3.4-2.4-4.6
		c-0.9-0.7-2-1.1-3.2-1.2c-1.6-0.2-3.1,0-4.6,0.7c-1.5,0.7-2.5,1.9-3.1,3.4c-0.5,1.1-0.7,2.3-0.7,3.5c0,6.1,0,12.1,0,18.2
		c0,0.1,0,0.2,0,0.3c0,0.1-0.1,0.2-0.2,0.2c-0.1,0-0.2,0-0.2,0c-3.3,0-6.6,0-9.9,0c-0.3,0-0.3-0.1-0.3-0.3c0-11.6,0-23.3,0-34.9
		c0-0.3,0.1-0.4,0.4-0.4c3.1,0,6.2,0,9.3,0c0.4,0,0.4,0,0.4,0.4c0,1.5,0,2.9,0,4.4C53.7,42.1,53.8,42.2,53.8,42.4z"/>
	<path class="st1" d="M26.5,55.1c0-5.8,0-11.6,0-17.4c0-0.4,0-0.4,0.4-0.4c3.4,0,6.8,0,10.1,0c0.4,0,0.4,0,0.4,0.4
		c0,11.6,0,23.2,0,34.8c0,0.4,0,0.4-0.4,0.4c-3.4,0-6.8,0-10.2,0c-0.4,0-0.4,0-0.4-0.4C26.5,66.7,26.5,60.9,26.5,55.1z"/>
	<path class="st1" d="M38.3,25.6c0,3.5-2.9,6.3-6.4,6.3c-3.1,0-6.2-2.5-6.2-6.3c0-3.7,2.9-6.4,6.4-6.3
		C35.6,19.4,38.3,22.2,38.3,25.6z"/>
</g>
</svg>
