<?xml version="1.0" encoding="utf-8"?>
<!-- Generator: Adobe Illustrator 25.4.1, SVG Export Plug-In . SVG Version: 6.00 Build 0)  -->
<svg version="1.1" id="Layer_1" xmlns="http://www.w3.org/2000/svg" xmlns:xlink="http://www.w3.org/1999/xlink" x="0px" y="0px"
	 viewBox="0 0 100 100" style="enable-background:new 0 0 100 100;" xml:space="preserve">
<style type="text/css">
	.st0{fill:#FFFFFF;}
</style>
<circle cx="50" cy="50" r="48.6"/>
<g>
	<path class="st0" d="M84,78.4c-6.4,0-12.8,0-19.1,0c-5-6.6-10-13.2-15.1-19.8c-5.9,6.7-11.6,13.3-17.3,19.8c-3.2,0-6.4,0-9.6,0
		c7.5-8.5,14.9-17.1,22.4-25.6c-6.2-8.2-12.4-16.2-18.5-24.3c-1.7-2.2-3.3-4.5-4.9-6.7c6.6,0,13.1,0,19.7,0
		c4.1,5.4,8.2,10.9,12.3,16.3c0.4,0.6,0.9,1.1,1.4,1.7c4.7-5.4,9.4-10.7,14-16c0.6-0.7,1.1-1.4,1.6-2.1c3.2,0,6.4,0,9.6,0
		c-0.2,0.4-0.4,0.7-0.7,1.1C74.4,28.8,69.2,34.8,64,40.7c-1.5,1.7-3,3.4-4.5,5.1c6.6,8.8,13.2,17.4,19.7,26.1
		C80.9,74.1,82.4,76.3,84,78.4z M72.7,72.7c-0.1-0.3-0.1-0.4-0.2-0.5C61.4,57.4,50.2,42.7,39,27.9c-0.2-0.3-0.5-0.6-0.8-0.6
		c-1.7-0.1-3.4,0-5.3,0c0.4,0.6,0.6,0.9,0.9,1.3c2.2,2.8,4.4,5.7,6.5,8.5C49.2,48.7,58,60.3,66.9,71.8c0.3,0.4,0.8,0.8,1.2,0.9
		C69.6,72.8,71.1,72.7,72.7,72.7z"/>
</g>
</svg>
