<?xml version="1.0" encoding="utf-8"?>
<svg width="100px" height="100px" viewBox="0 0 100 100" version="1.1" xmlns:xlink="http://www.w3.org/1999/xlink" xmlns="http://www.w3.org/2000/svg">
  <defs>
    <path d="M100 0L100 0L100 100L0 100L0 0L100 0Z" id="path_1" />
    <clipPath id="clip_1">
      <use xlink:href="#path_1" clip-rule="evenodd" fill-rule="evenodd" />
    </clipPath>
  </defs>
  <g id="approve-invoice-svgrepo-com" clip-path="url(#clip_1)" transform="scale(0.99999994 0.99999994)">
    <path d="M100 0L100 0L100 100L0 100L0 0L100 0Z" id="approve-invoice-svgrepo-com" fill="none" stroke="none" />
    <path d="M88.8167 -1.52588e-05L30.3987 -1.52588e-05C27.0556 -1.52588e-05 24.3357 2.71992 24.3357 6.063L24.3357 19.631C13.2538 22.8024 5.11896 33.0246 5.11896 45.1114C5.11896 57.1982 13.2536 67.4204 24.3357 70.5918L24.3357 93.9358C24.3357 97.2789 27.0556 99.9988 30.3987 99.9988L78.1375 99.9988C78.7039 99.9988 79.2469 99.7739 79.6475 99.3735L94.2541 84.7667C94.6546 84.3662 94.8795 83.823 94.8795 83.2566L94.8795 6.063C94.8795 2.71992 92.1598 -1.52588e-05 88.8167 -1.52588e-05L88.8167 -1.52588e-05ZM30.3987 4.27086L88.8167 4.27086C89.8047 4.27086 90.6086 5.0748 90.6086 6.063L90.6086 12.5077L28.6065 12.5077L28.6065 6.063C28.6065 5.0748 29.4105 4.27086 30.3987 4.27086L30.3987 4.27086ZM9.38984 45.1112C9.38984 32.8552 19.3607 22.8843 31.6167 22.8843C43.8727 22.8843 53.8435 32.8552 53.8435 45.1112C53.8435 57.3672 43.8727 67.3382 31.6167 67.3382C19.3607 67.3382 9.38984 57.3672 9.38984 45.1112L9.38984 45.1112ZM28.6065 93.9356L28.6065 71.4371C29.5949 71.5493 30.599 71.6091 31.6169 71.6091C39.576 71.6091 46.726 68.0812 51.5873 62.5077L64.6716 62.5077C65.851 62.5077 66.8071 61.5516 66.8071 60.3722C66.8071 59.1929 65.851 58.2368 64.6716 58.2368L54.6288 58.2368C56.4862 54.993 57.6761 51.321 58.0137 47.4087L64.6714 47.4087C65.8508 47.4087 66.8069 46.4526 66.8069 45.2733C66.8069 44.0939 65.8508 43.1378 64.6714 43.1378L58.0408 43.1378C57.752 39.2343 56.6131 35.5637 54.81 32.31L64.6712 32.31C65.8506 32.31 66.8066 31.3539 66.8066 30.1745C66.8066 28.9951 65.8506 28.0391 64.6712 28.0391L51.8639 28.0391C46.9996 22.2789 39.7285 18.6133 31.6163 18.6133C30.5984 18.6133 29.5943 18.6731 28.6059 18.7853L28.6059 16.7786L90.608 16.7786L90.608 81.1208L82.0644 81.1208C78.7212 81.1208 76.0016 83.8407 76.0016 87.1836L76.0016 95.7276L30.3987 95.7276C29.4105 95.7276 28.6065 94.9238 28.6065 93.9356L28.6065 93.9356ZM80.2731 92.7074L80.2731 87.1838C80.2731 86.1956 81.077 85.3918 82.065 85.3918L87.5887 85.3918L80.2731 92.7074L80.2731 92.7074ZM73.0627 32.3104L80.1544 32.3104C81.3337 32.3104 82.2898 31.3543 82.2898 30.175C82.2898 28.9956 81.3337 28.0395 80.1544 28.0395L73.0627 28.0395C71.8833 28.0395 70.9272 28.9956 70.9272 30.175C70.9272 31.3543 71.8833 32.3104 73.0627 32.3104L73.0627 32.3104ZM73.0627 47.4094L80.1544 47.4094C81.3337 47.4094 82.2898 46.4533 82.2898 45.2739C82.2898 44.0946 81.3337 43.1385 80.1544 43.1385L73.0627 43.1385C71.8833 43.1385 70.9272 44.0946 70.9272 45.2739C70.9272 46.4533 71.8833 47.4094 73.0627 47.4094L73.0627 47.4094ZM73.0627 62.5086L80.1544 62.5086C81.3337 62.5086 82.2898 61.5525 82.2898 60.3731C82.2898 59.1938 81.3337 58.2377 80.1544 58.2377L73.0627 58.2377C71.8833 58.2377 70.9272 59.1938 70.9272 60.3731C70.9272 61.5525 71.8833 62.5086 73.0627 62.5086L73.0627 62.5086ZM80.1541 77.6076C81.3335 77.6076 82.2896 76.6515 82.2896 75.4721C82.2896 74.2928 81.3335 73.3367 80.1541 73.3367L60.1776 73.3367C58.9983 73.3367 58.0422 74.2928 58.0422 75.4721C58.0422 76.6515 58.9983 77.6076 60.1776 77.6076L80.1541 77.6076L80.1541 77.6076ZM48.1964 34.3393L45.5911 31.7341C44.8895 31.0326 43.9568 30.6462 42.9645 30.6462C41.9723 30.6462 41.0396 31.0326 40.3379 31.7341L26.6732 45.3988L22.8959 41.6215C22.1945 40.9203 21.2616 40.5339 20.2695 40.5339C19.2775 40.5339 18.3446 40.9203 17.6431 41.6217L15.0373 44.2274C13.5893 45.6756 13.5893 48.0321 15.0375 49.4803L24.0464 58.489C24.748 59.1909 25.6809 59.5773 26.6732 59.5773C26.6732 59.5773 26.6734 59.5773 26.6734 59.5773C27.6655 59.5773 28.5983 59.1909 29.2996 58.4894L48.1966 39.5925C49.6446 38.1442 49.6446 35.7875 48.1964 34.3393L48.1964 34.3393ZM26.673 55.0758L18.4507 46.8538L20.2693 45.0352L25.1629 49.9288C25.997 50.7628 27.349 50.7628 28.183 49.9288L42.9645 35.1473L44.7831 36.9659L26.673 55.0758L26.673 55.0758Z" id="Group" fill="#FEB680" fill-rule="evenodd" stroke="none" />
  </g>
</svg>