<?xml version="1.0" encoding="utf-8"?>
<svg width="100px" height="100px" viewBox="0 0 100 100" version="1.1" xmlns:xlink="http://www.w3.org/1999/xlink" xmlns="http://www.w3.org/2000/svg">
  <defs>
    <path d="M100 0L100 0L100 100L0 100L0 0L100 0Z" id="path_1" />
    <clipPath id="clip_1">
      <use xlink:href="#path_1" clip-rule="evenodd" fill-rule="evenodd" />
    </clipPath>
  </defs>
  <g id="svgviewer-output" clip-path="url(#clip_1)">
    <path d="M100 0L100 0L100 100L0 100L0 0L100 0Z" id="svgviewer-output" fill="none" stroke="none" />
    <path d="M91.6667 16.6667L91.6667 29.1667C91.6667 33.769 87.9357 37.5 83.3333 37.5L62.5 37.5C57.8976 37.5 54.1667 33.769 54.1667 29.1667L54.1667 16.6667C54.1667 12.0643 57.8976 8.33333 62.5 8.33333L83.3333 8.33333C87.9357 8.33333 91.6667 12.0643 91.6667 16.6667L91.6667 16.6667ZM37.5 62.5L16.6667 62.5C12.0643 62.5 8.33333 66.231 8.33333 70.8333L8.33333 83.3333C8.33333 87.9357 12.0643 91.6667 16.6667 91.6667L37.5 91.6667C42.1024 91.6667 45.8333 87.9357 45.8333 83.3333L45.8333 70.8333C45.8333 66.231 42.1024 62.5 37.5 62.5L37.5 62.5Z" id="secondary" fill="#FFFFFF" fill-rule="evenodd" stroke="none" />
    <path d="M45.8333 16.6667L45.8333 45.8333C45.8333 50.4357 42.1024 54.1667 37.5 54.1667L16.6667 54.1667C12.0643 54.1667 8.33333 50.4357 8.33333 45.8333L8.33333 16.6667C8.33333 12.0643 12.0643 8.33333 16.6667 8.33333L37.5 8.33333C42.1024 8.33333 45.8333 12.0643 45.8333 16.6667L45.8333 16.6667ZM83.3333 45.8333L62.5 45.8333C57.8976 45.8333 54.1667 49.5643 54.1667 54.1667L54.1667 83.3333C54.1667 87.9357 57.8976 91.6667 62.5 91.6667L83.3333 91.6667C87.9357 91.6667 91.6667 87.9357 91.6667 83.3333L91.6667 54.1667C91.6667 49.5643 87.9357 45.8333 83.3333 45.8333L83.3333 45.8333Z" id="primary" fill="#0E0268" fill-rule="evenodd" stroke="none" />
  </g>
</svg>