<?xml version="1.0" encoding="utf-8"?>
<svg width="271px" height="168px" viewBox="0 0 271 168" version="1.1" xmlns:xlink="http://www.w3.org/1999/xlink" xmlns="http://www.w3.org/2000/svg">
  <defs>
    <path d="M271 0L271 0L271 168L0 168L0 0L271 0Z" id="path_1" />
    <clipPath id="clip_1">
      <use xlink:href="#path_1" clip-rule="evenodd" fill-rule="evenodd" />
    </clipPath>
  </defs>
  <g id="header-final">
    <path d="M271 0L271 0L271 168L0 168L0 0L271 0Z" id="header-final" fill="none" stroke="none" />
    <path d="M131.4 7.39999C131 7.8 130.7 8.19999 130.3 8.69999C130.3 8.79999 130.4 8.79999 130.4 8.89999C130.8 8.69999 131.3 8.59999 131.6 8.3C133 7.09999 134.4 5.89999 135.6 4.5C136.2 3.8 136.4 2.7 136.7 1.8C136.8 1.59999 136.3 1.2 136.1 0.899994C136 0.999992 135.8 1.09999 135.7 1.09999C135.8 1.5 136 2 136.2 2.89999C135.4 2.39999 135 1.99999 134.6 1.8C134.9 0.299995 135.7 -3.8147e-06 136.8 0.299995C137.9 1.09999 137.8 2 137.5 3C136.9 4.8 135.6 6 134.3 7.2C133.6 7.8 132.9 8.4 132.1 9.1C132.5 9.3 132.7 9.4 133 9.6C134.6 8.2 136.1 6.8 137.6 5.4C137.7 5.5 137.9 5.6 138 5.7C136.7 7.1 135.4 8.4 134 9.8C134.3 9.99999 134.5 10.2 134.7 10.4C135.2 9.89999 135.8 9.3 136.3 8.8C136.4 8.89999 136.5 9 136.6 9.2C136.3 9.7 136 10.3 135.6 11C136.3 11.7 136.9 12.5 137.6 13.2C139.5 12.8 140.8 11.4 142.1 10.3C143.3 9.3 144.3 8.09999 145.5 7C146.1 6.4 146.8 5.8 147.6 5.59999C148.2 5.39999 149.2 5.69999 149.7 6.09999C150.4 6.59999 150.3 7.59999 149.6 8.19999C149.2 8.49999 148.3 8.59999 147.9 8.39999C147 7.89999 147.1 7.19999 147.8 6.49999C148 6.99999 148.2 7.49999 148.4 7.99999C148.5 7.99999 148.7 8.09999 148.8 8.09999C149 7.69999 149.4 7.19999 149.3 6.89999C149.1 6.19999 148.5 5.99999 147.8 6.49999C146.7 7.39999 145.6 8.19999 144.5 9.19999C142.5 10.9 140.4 12.7 138.3 14.7C138.4 15 138.7 15.2 139.3 14.8C140.4 14 141.5 13.2 142.6 12.4C143.6 11.7 144.7 11.1 145.8 10.6C146.8 10.2 147.8 10.1 148.9 11C144.4 10.7 142.1 14.2 139 15.9C138.8 16 138.9 16.5 138.8 17.1C141.7 15.2 143.9 12.3 147.6 12.9C148.7 13.5 148.9 14.4 148.2 15.4C146.4 15.8 146.4 15.8 146.3 14C146.7 14.4 147 14.7 147.2 15C147.3 15 147.5 14.9 147.6 14.9C147.5 14.5 147.6 14 147.4 13.8C147 13.6 146.4 13.4 146 13.6C143 14.6 140.5 16.2 138.9 19C139.9 18.4 140.8 17.8 141.8 17.2C143.4 16.3 145 15.9 146.9 16.5C147.6 16.7 148.5 16.5 149.7 16.5C150 17.1 150.4 17.9 150.9 18.8C152.8 19.4 154.5 20.3 154.2 22.7C157.1 22.2 157.9 22.5 159.3 24.8C160.2 24.8 161 24.9 162.1 24.9C162.1 26 162.1 26.9 162.1 27.9C163.9 29 164.7 30.6 163.8 32.8C166.1 33.3 167.5 34.5 167.4 36.8C168.3 37.3 169.1 37.7 170.1 38.2C169.6 39.2 169.2 40 168.8 40.8C169.9 42.6 170 44.3 168.2 46C170.5 47.1 170.8 49 170 51.1C170.6 51.8 171.1 52.5 171.8 53.3C171 54 170.3 54.7 169.5 55.4C169.6 57.3 169.4 59.1 167 59.8C168.2 61.8 168.2 63.7 166.5 65.2C166.7 66.1 167 66.9 167.2 68C166.3 68.3 165.5 68.6 164.4 69C163.8 70.8 162.6 72.1 160.3 72.1C160.7 74.4 159.6 75.8 157.6 76.7C157.4 77.6 157.2 78.5 157 79.6C155.9 79.4 155 79.3 154.1 79.1C152.8 80.8 151.1 81.3 149 80.3C148.4 82.7 146.9 83.7 144.7 83.6C144.1 84.4 143.6 85.1 143 85.9C142.1 85.3 141.4 84.9 140.8 84.5C139.5 84.7 138.3 84.8 137.3 84.9C136.6 84.4 136 84 135.4 83.5C133.9 84.9 132.2 85.9 130.2 84.4C129.3 85 128.6 85.4 127.7 86C127.1 85.1 126.5 84.4 125.8 83.5C123.7 83.6 122.1 82.9 121.8 80.6C120.8 80.8 119.7 81.2 118.8 81.1C117.9 80.9 117.1 80.1 116.1 79.5C115.5 79.6 114.6 79.8 113.6 80C113.3 78.9 113.1 78.1 112.9 77.1C110.5 75.6 110.5 75.5 110.2 72.5C107.9 72.7 106.4 71.7 105.9 69.5C104.9 69.2 104 68.9 103 68.6C103.3 67.6 103.5 66.7 103.7 66C103.1 64.9 102.6 63.9 102.1 62.9C102.5 62 102.8 61.3 103.1 60.5C100.8 59.8 99.9 58.2 100.4 56C99.6 55.3 98.9 54.7 98 54C98.7 53.2 99.2 52.5 99.8 51.7C99.2 49.8 99.2 47.9 101.4 46.6C99.5 44.9 99.5 43.1 100.7 41.2C100.3 40.4 99.9 39.6 99.4 38.7C100.3 38.2 101.1 37.8 101.9 37.3C102.5 34.6 102.8 34.3 105.4 33.1C104.8 31 105.1 29.2 107.2 28.1C107.1 27.2 107 26.3 106.9 25.3C108 25.2 108.8 25.1 109.9 25C110.1 24.7 110.4 24.2 110.8 23.8C111.6 22.8 112.7 22.5 113.9 22.7C115.1 22.9 115.4 23.7 115.6 24.8C115.8 25.7 116.3 26.6 116.6 27.6C117.5 26.3 117.9 24.8 118 23.2C118.1 21.8 118.1 20.3 118 18.9C117.8 15.2 118.5 11.7 120.1 8.3C120.6 7.2 121.5 6 120.5 4.5C120.1 4.59999 119.6 4.7 119.1 4.8C119 5 118.9 5.2 118.8 5.3C119.3 5.5 119.8 5.7 120.3 5.89999C119.9 6.3 119.7 6.39999 119.7 6.39999C119.3 5.99999 118.6 5.69999 118.5 5.19999C118.3 4.29999 119 3.79999 119.8 3.59999C121.5 4.19999 121.9 4.8 121.5 6.39999C121.2 7.49999 120.8 8.59999 120.3 9.59999C118.6 13.8 118.3 16.1 118.8 21.1C119.3 18.1 119.5 15.2 120.3 12.5C121.1 9.8 122.5 7.29999 123.6 4.79999C123.3 3.89999 123.1 3.19999 122.9 2.39999C124.2 3.29999 124.6 3.99999 124.1 5.39999C123.8 6.59999 123.3 7.69999 122.7 8.79999C120.7 12.4 119.8 16.2 120 20.3C120.3 18.4 120.5 16.4 121.1 14.5C121.8 12.5 122.8 10.6 123.8 8.69999C124.8 6.89999 126 5.19999 127.3 3.39999C126.7 2.89999 126.4 2.59999 126 2.39999C125.9 2.49999 125.8 2.59999 125.7 2.69999C125.8 3.19999 126 3.59999 126.2 4.39999C125.6 4.09999 125.2 3.99999 125 3.69999C124.5 2.69999 124.8 2.29999 126.3 1.69999C127.9 2.79999 128 3.09999 127.3 4.59999C126.7 5.8 125.9 6.89999 125.2 8.09999C124.6 9.09999 124 10.2 123.3 11.2C123.2 11.5 123 11.8 122.9 12.1C122.8 12.3 122.8 12.2 122.9 12.1C122.8 12.3 122.9 12.2 122.9 12C123 11.7 123.2 11.4 123.3 11.1C124.7 9.3 126.2 7.6 127.5 5.8C128.8 4 128.5 2.1 127.3 0C129.1 1.2 129.6 3.1 128.6 5.1C127.8 6.8 126.5 8.3 125.4 9.9C126.4 9 127.5 8.2 128.4 7.3C129.3 6.5 130 5.5 130.8 4.6C130.9 4.7 131.1 4.8 131.2 4.9C130.3 6.1 129.4 7.4 128.5 8.6L128.4 8.7C128.4 8.7 128.4 8.6 128.5 8.6C129.4 8 130.4 7.3 131.3 6.7C131.1 7.09999 131.2 7.3 131.4 7.39999L131.4 7.39999ZM135.9 81.6C135.8 81.5 135.6 81.3 135.5 81.2C135.7 80.4 136 79.6 136.3 78.8C135.4 78.8 134.5 78.8 133.8 78.8C134 79.8 134.1 80.7 134.2 81.6C134.6 81.5 135.1 81.3 135.5 81.2C135.6 81.3 135.8 81.4 135.9 81.6L135.9 81.6ZM102.8 48.5C102.9 48.3 103.1 48.2 103.2 48C104 48.1 104.8 48.2 105.6 48.3C105.7 47.6 105.7 46.9 105.8 46.3C104.9 46.3 104 46.3 103.2 46.3L103.1 46.2L103.2 46.2C103.2 46.8 103.2 47.4 103.2 47.9C103.1 48.2 102.9 48.3 102.8 48.5L102.8 48.5ZM166.4 47.6C166.3 47.5 166.1 47.3 166 47.2C165.9 46.6 165.7 46 165.6 45.5C164.9 46 164.3 45.9 163.6 45.5C163.1 45.2 162.6 44.9 162.1 44.7L162 44.6C162 44.6 162.1 44.6 162.1 44.7C162.2 46.1 162.4 47.5 162.6 49.2C164.4 47.3 164.4 47.3 166 47.3C166.1 47.3 166.3 47.5 166.4 47.6L166.4 47.6ZM133.8 24.4C133.9 24.2 134.1 24.1 134.2 23.9C134.8 23.5 135.4 23.2 135.9 22.7C138.6 19.4 138.2 14.5 135.1 11.7C132.2 9.1 126.4 9.2 124.2 12.2C125.7 11.9 127.4 11.1 129 11.2C135.2 11.8 137.9 18.9 134.7 23C134.5 23.3 134.4 23.6 134.2 23.9C134.1 24.1 133.9 24.3 133.8 24.4L133.8 24.4ZM104.1 59.2C104.5 59.7 104.9 60.1 105.2 60.6C105.9 60.5 106.6 60.4 107.4 60.3C107.2 59.7 107 59.1 106.9 58.8C105.8 58.9 104.9 59.1 104.1 59.2L104.1 59.2ZM123 79.4C123.3 78.6 123.7 77.7 124 76.9C123.4 76.7 122.7 76.4 122 76.2C121.8 77.2 121.7 78 121.5 78.8C122 78.9 122.5 79.2 123 79.4L123 79.4ZM106.2 35.6C107.6 35.2 108.1 36.2 108.7 37.5C109.2 36.4 109.7 35.6 110.1 34.8C109 34.9 107.8 35 107.4 34C107.1 34.4 106.7 35 106.2 35.6L106.2 35.6ZM148.4 78.1C148.6 78.3 148.5 78.2 148.4 78.1C148.6 78.2 148.5 78.2 148.4 78.1C148.2 77.1 148 76.2 147.8 75.2C147 75.6 146 76.1 145.3 76.5C145.9 77.4 146.5 78.2 147.1 79C147.5 78.7 147.9 78.4 148.4 78.1L148.4 78.1ZM165.1 58.3C163.2 58.9 162.7 57.3 161.9 55.9C161.5 57.5 161.2 58.8 160.9 60C162.2 59.9 163.3 59.8 164.4 59.7C164.6 59.4 164.9 58.9 165.1 58.3L165.1 58.3ZM162.6 34.7C162.1 34.3 161.5 33.9 161.3 33.7C159.8 33.7 158.6 33.7 157.4 33.7C158.2 35 159 36.3 159.8 37.7C160.6 36.4 160.2 34.3 162.6 34.7L162.6 34.7ZM158.7 30.8C158.5 31.5 157.9 32.3 159.2 32.8C159.4 32.5 159.7 32.1 160 31.6C159.5 31.4 159.1 31.1 158.7 30.8C159.7 29.5 160.9 30.8 162.3 30.8C161.7 29.9 161.4 29.3 161 28.7C159.9 29 159.1 29.2 158 29.4C158.5 28 160.9 28.1 160 26.3C158.3 25.5 158.2 27.7 156.8 27.9C157.7 24.6 157.7 24.6 156.1 24.2C155.8 26.2 155.5 28.1 155.2 29.7C156.4 31.6 157.7 30.6 158.7 30.8L158.7 30.8ZM109.2 67.8C109.5 68.4 109.7 68.9 110 69.5C110.2 69.5 110.3 69.5 110.5 69.5C110.7 69.1 110.9 68.7 111.1 68.1C110.3 67.9 109.8 67.9 109.2 67.8C110.2 65.4 110.2 65.4 108.9 64.2C107.1 64 105.5 63.8 103.6 63.6C103.8 64.2 104 64.8 104.3 65.4C105.4 65.3 106.1 65.2 106.9 65.2C104.8 66.9 104.8 66.9 104.4 67.8C105.8 69 106.6 66.7 108 67C106.3 69.9 106.4 70.2 108.3 70.5C108.4 69.6 107.8 68.4 109.2 67.8L109.2 67.8ZM148.8 22.7C148.9 23.2 149 23.7 149.3 24.8C149.9 24.1 150.2 23.7 150.7 23.1C149.8 22.9 149.3 22.8 148.8 22.7C149.2 21.1 150.5 21.5 152.1 21.5C151.4 20.7 150.9 20.2 150.3 19.7C149.4 20.4 148.7 21 147.9 21.5C147.8 20.1 149.5 19.2 148.3 17.7C147.7 18.1 147.2 18.5 146.7 18.8C146.6 18.2 146.5 17.6 146.4 17.1C143.3 16.4 140 18 138.2 20.9C139.7 20.1 141.2 19.2 142.8 18.4C144.2 17.7 145.5 17.8 146.7 18.9C146.7 20 146.4 20.9 144.9 21.1C144.6 20.7 144.3 20.2 144 19.7C144.1 19.6 144.2 19.6 144.3 19.5C144.6 19.8 145 20 145.4 20.4C145.6 20 145.7 19.8 146 19.2C145.2 19.1 144.6 18.7 144 18.9C141.3 19.8 138.8 21.2 136.8 23.3C138.4 22.6 140 21.8 141.7 21.3C143.7 20.7 145.4 21.5 146.4 23.5C143.5 21.2 140.9 22 138.3 23.5C136.8 24.3 135.3 25.1 133.8 25.9C133.6 26 133.3 26 133.1 26.1C133.1 26.1 133.1 26.2 133.2 26.2C133.4 26.1 133.6 26 133.9 25.9C134.8 25.6 135.7 25.4 136.5 25C138 24.4 139.3 23.6 140.8 23.1C141.7 22.8 142.8 22.7 143.7 22.8C144.5 22.9 144.9 23.7 144.6 24.5C144.4 24.9 143.8 25.4 143.4 25.5C142.5 25.6 142 25 142.2 23.7C142.8 24.2 143.1 24.5 143.6 24.9C143.8 24.5 143.9 24.2 144.1 23.9C143.1 23.1 142.1 23.3 141.2 23.7C140.4 24 139.6 24.4 138.9 24.8C135.4 26.6 131.7 27.5 127.7 27.3C126.7 27.2 125.7 27.3 124.7 27.3C125.8 27.5 126.9 27.6 128 27.6C129.6 27.6 131.1 27.8 132.7 27.5C134.6 27.2 136.4 26.6 138.3 26.2C139.3 26 140.3 25.8 141.2 25.8C142.2 25.8 143.1 26.2 143.4 27.4C141.4 25.8 139.4 26.5 137.3 27.2C137 27.3 136.8 27.4 136.5 27.4C133.3 28.4 130.1 28.8 126.8 28.2C126.5 28.1 126.1 28.1 125.7 28.1C125.4 28.1 125 28.1 124.5 28.1C127.4 29.1 130.2 29.4 133 29.1C134.8 28.9 136.6 28.4 138.5 28.1C139.7 27.9 140.8 28 141.6 29C141.7 30.6 141.7 30.6 139.9 31.5C139.6 30.9 139.3 30.4 139.1 29.8C139.1 29.8 139.3 29.6 139.3 29.5C139.6 29.8 139.8 30.1 140.2 30.5C140.5 30.2 140.8 30 141.3 29.5C140.7 29.2 140.3 28.8 139.9 28.8C139 28.8 138 28.9 137.1 29.1C134.2 29.7 131.2 30.4 128.2 29.7C126.4 29.3 124.6 28.9 122.7 28.6C119.9 28.2 117.2 28.6 115.1 30.6C108.4 37.1 105.8 45.2 107 54.2C109 68.4 121.6 78.2 134.9 77.7C142.1 77.4 148.3 74.9 153.4 69.9C159.8 63.6 162.5 55.9 161.5 47.1C160.4 37.7 155.4 30.6 147.1 26C146.6 25.7 146.2 25.4 145.7 25C146.1 23.2 147.8 23.5 148.8 22.7L148.8 22.7ZM118.1 27.4C121.3 26.3 124.6 26 127.9 25.9C131 25.9 133.3 24.3 134.7 21.5C135.9 19 135.3 16 133.1 13.8C131.1 11.8 127.9 11.3 125.4 12.6C122.7 13.9 121.5 16.3 121 19.1C120.5 22 119.7 24.8 118.1 27.4L118.1 27.4ZM165.6 62C164.7 63.4 163.7 63.5 162.4 63.2C161.4 63 160.4 63.1 159.6 64.5C159.7 64.9 159.8 65.7 160.2 66.3C160.9 67.4 161.7 68.4 161.2 69.8C162.6 69.8 163 69.2 162.8 68.1C162.7 67.3 161.4 67.1 162 65.8C163 66.6 163.8 67.7 165.2 66.9C165.3 65.2 163.5 65.4 162.7 64.2C163.5 64.2 164.2 64.3 165 64.3C166 64.1 166 63.3 165.6 62L165.6 62ZM132.5 83.6C131.3 82.7 130.7 81.9 130.6 80.5C130.5 79.3 129.9 78.3 128.4 78.3C126.6 78.9 126.4 81.8 123.8 81.4C124.3 82.7 125 83 126 82.6C126.5 82 126.9 81.4 127.7 80.4C128 82.1 126.1 83.4 127.9 84.4C129.6 83.9 128.7 82.2 129.6 80.9C129.9 82 130.1 82.8 130.4 84C131 83.8 131.8 83.7 132.5 83.6L132.5 83.6ZM108.6 30.8C112.3 32 112.6 31.9 113.3 29.6C113 28.9 112.5 28.1 112.4 27.3C112.3 26.6 112.5 25.7 112.6 24.5C111.7 25.1 111.1 25.6 110.6 26C111 27 111.3 27.8 111.7 28.9C110.2 28.1 110 26.2 108 26.9C108.3 27.5 108.4 28.1 108.8 28.5C109.2 28.9 109.8 29.2 110.3 29.5C110.2 29.7 110.1 29.8 110.1 30C109.3 29.8 108.6 29.5 107.8 29.3C106.7 30.2 106.4 30.7 107 31.3C107.5 31.2 108 31 108.6 30.8L108.6 30.8ZM150.7 73.9C150.9 74.1 151.2 74.3 151.4 74.6C151.3 76.1 151.3 77.7 151.2 79.5C151.8 79.2 152.5 78.8 153.1 78.5C153.2 77.5 152.1 76.7 153 75.8C153.9 76.6 153.8 78.5 155.5 78.2C156.3 76.6 154.4 76.1 153.9 74.5C155.1 75.1 155.8 75.5 156.5 75.9C157.5 75.6 157.9 75.1 157.9 73.9C155.6 75.3 154.4 72.9 151.9 72.8C151.8 72.9 151.2 73.4 150.7 73.9L150.7 73.9ZM168.3 49C167.1 49.7 166.1 50.3 165.1 50.8C164.2 51.3 163.3 51.7 163.1 53.3C163.7 53.7 164.5 54.3 165.1 54.9C165.8 55.6 166.5 56.4 167.3 57.2C168.2 56.6 168.1 55.9 167.6 55.1C166.9 54.7 166.3 54.3 165.4 53.7C167 53.2 168.4 54.7 169.4 53.2C168.8 51.4 167.1 52.6 165.8 51.9C166.7 51 168.6 51.6 168.7 49.7C168.6 49.6 168.5 49.2 168.3 49L168.3 49ZM105.7 52.7C104.2 51.3 101.9 51.8 101.3 49.3C100.8 50.1 100.6 50.6 100.2 51.2C100.8 51.6 101.2 52 101.6 52.2C102.1 52.4 102.9 52.1 103.1 53.2C101.9 53.5 100.3 52.6 99.6 54.7C100.9 54.7 102.1 54.7 103.2 54.7C103.2 54.8 103.2 55 103.2 55.1C102.6 55.5 101.9 55.9 101.1 56.4C101.3 57 101.5 57.7 101.6 58.1C103 56.8 104.3 55.8 105.6 54.6C105.7 54 105.7 53.3 105.7 52.7L105.7 52.7ZM167.5 41.5C166.3 41.2 165.5 41.1 164.7 40.9C167 39.9 167 39.9 167.7 38.7C166.4 37.4 165.3 39.2 164.1 39.1C164 39 163.9 38.8 163.8 38.7C164.6 38.3 165.3 37.8 166.3 37.2C165.6 36.2 165.2 35.7 164.9 35.4C164 36.5 163.4 37.5 162.7 38.4C162 39.2 161.5 40 161.9 40.9C162.6 42.1 163.7 41.7 164.6 42C165.5 42.3 166.4 42.8 167.5 43.4C167.6 42.7 167.5 42.1 167.5 41.5L167.5 41.5ZM113.1 76.4C114.3 76.1 114.6 74.9 115.8 75.4C115.4 76.6 113.4 77.1 114.4 78.7C116.1 78.9 115.9 76.8 117.4 76.3C117.2 77.3 117 78 116.8 78.6C117.2 79.7 118 79.9 119.4 79.5C118 78.5 118.1 77.4 118.5 76C118.8 75.2 118.8 74.3 117.9 73.7C117.1 73.1 116.2 73.2 115.5 73.8C114.4 74.6 113.3 75 111.9 74.4C111.8 74.6 111.8 74.7 111.7 74.9C112.2 75.4 112.7 75.9 113.1 76.4L113.1 76.4ZM102.8 37.5C103.4 38.2 104.3 39.8 104.3 40.1C103.2 39.5 102.2 38.4 101 39.5C101.4 41.2 103.1 40.7 104.5 41.5C103.1 41.8 102.2 42 101.1 42.3C101.2 43.1 101.3 43.6 101.4 44.2C102.7 41.9 105.6 43.5 106.8 41.8C107.2 40.8 107 40 106.2 39.4C105.1 38.6 104.2 37.6 104.3 36C104.1 36 104 36 103.8 36C103.5 36.6 103.1 37.1 102.8 37.5L102.8 37.5ZM145.9 81.9C144.5 80.7 143.3 79.6 142 78.4C141.6 78.4 140.9 78.4 140 78.4C139.8 79.4 139.7 80.3 139.3 81.1C138.9 81.9 138.2 82.6 137.6 83.4C138.5 84.2 139.2 84.1 139.7 83.4C140.3 82.5 139.7 81.5 140.7 81C141.5 82 140.3 83.9 142.5 84.3C142.5 83.6 142.6 83 142.6 82.4C142.5 81.9 142.3 81.4 142.2 80.8C142.3 80.7 142.5 80.7 142.6 80.6C143.2 81.3 143.8 82 144.5 82.8C145.2 82.4 145.6 82.1 145.9 81.9L145.9 81.9ZM149.1 26C150.2 26.8 151.3 27.5 152.4 28.4C152.8 27 152 25.5 153.4 24.6C152.8 24.4 152.4 24.2 152.3 24.2C151.2 24.9 150.2 25.4 149.1 26L149.1 26ZM154.6 70.1C155.9 70.4 157.6 69.9 157.6 71.8C157.9 71.3 158.2 70.7 158.4 70.4C157.9 69.3 157.5 68.4 157 67.3C156.2 68.2 155.4 69.1 154.6 70.1L154.6 70.1ZM112.6 68.8C112 69.7 111.5 70.4 111.2 70.9C111.5 71.4 111.8 71.8 111.9 72C112.5 71.5 113.2 70.9 113.9 70.3C113.6 69.9 113.1 69.4 112.6 68.8L112.6 68.8ZM156.6 72.5C156.2 72.1 155.9 71.7 155.5 71.2C155.1 71.7 154.8 72 154.4 72.4C154.7 72.8 154.9 73.1 155.2 73.4C155.8 73 156.1 72.8 156.6 72.5L156.6 72.5ZM143.4 78.4C144.8 79.9 144.8 79.9 145.7 78.4C144.9 78.4 144.4 78.4 143.4 78.4L143.4 78.4ZM158.3 67.8C159.1 68.8 159.6 68.7 160.2 67.9C159.4 67.1 159.4 67.1 158.3 67.8L158.3 67.8ZM161.8 61.8C162.6 62.8 163.2 62.8 163.7 61.8C163.1 60.8 162.5 60.9 161.8 61.8L161.8 61.8ZM132 81.5C133 80.8 132.9 80.2 132 79.5C131.2 80.1 131 80.7 132 81.5L132 81.5ZM103.9 45.1C104.1 45.1 104.2 45.2 104.4 45.2C105.5 44.3 105.5 44.3 104.1 43.3C104 44 103.9 44.5 103.9 45.1L103.9 45.1ZM103.8 57.2C104.7 58 105.3 58 105.7 57C105 56.1 104.5 56.1 103.8 57.2L103.8 57.2ZM164.2 42.4C163.5 43.3 163.2 43.9 164.4 44.4C165.2 43.8 165.2 43.2 164.2 42.4L164.2 42.4ZM150.9 76.4C150.3 75.5 149.7 75.4 149.1 76.2C149.5 77.3 150 77.5 150.9 76.4L150.9 76.4ZM113.8 73.9C115 73.4 115.5 73 114.7 72.2C114.5 72 114.2 72.1 113.7 72C113.8 72.6 113.8 73.1 113.8 73.9L113.8 73.9ZM106.1 62.1C106 62.3 106 62.5 105.9 62.7C106.3 62.9 106.6 63.3 107 63.3C107.3 63.3 107.5 62.7 108.1 62C107 62 106.6 62.1 106.1 62.1L106.1 62.1ZM164.5 50.2C165.2 49.9 165.6 49.7 165.9 49.6C165.9 49.4 165.9 49.3 166 49.1C165.6 48.9 165.1 48.7 164.5 48.4C164.5 49.2 164.5 49.5 164.5 50.2L164.5 50.2ZM108.6 32.9C109.2 33.5 109.7 33.6 110.3 32.8C109.4 31.6 109.4 31.6 108.6 32.9L108.6 32.9ZM104.8 50.8C104.8 49.5 104.3 49.3 103.4 49.8C103.3 50.8 103.7 51.1 104.8 50.8L104.8 50.8ZM154.5 27.8C154.7 27.7 154.9 27.6 155 27.5C155 27.1 155 26.7 154.9 26.1C154.3 26.3 154 26.4 153.3 26.6C153.9 27.1 154.2 27.5 154.5 27.8L154.5 27.8ZM124.4 79C125 79.9 125.6 80 126.2 79.2C125.8 78 125.2 77.9 124.4 79L124.4 79ZM162.6 37.6C162.7 37.5 162.8 37.3 162.9 37.2C162.7 36.8 162.4 36.4 162 35.8C161.7 36.6 161.5 36.9 161.3 37.5C161.9 37.5 162.3 37.6 162.6 37.6L162.6 37.6ZM137.3 79.3C137.4 80.1 137.4 80.5 137.5 81.2C138.1 80.9 138.4 80.7 139.1 80.2C138.4 79.9 138 79.7 137.3 79.3L137.3 79.3ZM113 28C113.8 28 114.3 28 115 28C114.6 27.3 114.3 27 114 26.3C113.6 27 113.4 27.3 113 28L113 28ZM163.6 55.5C163.6 56.6 163.9 57 164.9 56.7C164.9 56.3 164.9 55.9 164.9 55.5C164.5 55.5 164.2 55.5 163.6 55.5L163.6 55.5ZM107.6 38.4C107.3 37.8 107.1 37.4 106.6 36.5C106.2 37.4 106.1 37.8 105.9 38.4C106.5 38.4 106.9 38.4 107.6 38.4L107.6 38.4ZM119.3 77.8C119.9 77.5 120.3 77.3 121.2 76.8C120.3 76.5 119.9 76.3 119.3 76.1C119.3 76.7 119.3 77 119.3 77.8L119.3 77.8Z" id="Shape" fill="#FEB680" fill-rule="evenodd" stroke="none" clip-path="url(#clip_1)" />
    <path d="M101.4 113.3C98.4 111.4 97.5 109.3 98.4 106.8C99.3 104.2 101.4 103 104 102.7C106.8 102.3 109.6 102.3 112.2 103.7C115.6 102.2 119.3 103.5 122.4 102.8C123.6 100.9 124.6 99.2997 125.7 97.6997C126.7 96.2997 128.3 95.9997 129.9 95.8997C132.2 95.7997 133.6 96.9997 134.4 99.8997C134.1 100.4 133.8 101.1 133.5 101.7C131.1 102.4 130.8 102.3 129.6 100.8C129.8 100.6 129.9 100.4 130.1 100.2C130.3 99.9997 130.5 99.7997 130.9 99.4997C130.5 98.8997 130.2 98.3997 129.9 97.8997C127.8 98.9997 127.4 99.9997 127.8 103.1C128.5 103.1 129.3 103.1 130 103.1C133.4 103.2 134.7 104.7 134.9 108C135.1 111.2 132.6 114.5 128.6 114.2C126.6 114.1 125 113.3 124.2 111.6C123.3 109.7 122.8 107.6 122.1 105.6C122.2 105.5 122.3 105.4 122.5 105.3C122.2 105.2 121.9 105.1 121.5 105C121.6 106.6 122.1 108.2 121.7 109.6C121.4 111 120.3 112.3 119.3 113.9C119.2 113.6 119.2 113.8 119.3 113.8C121.4 114.7 122.4 116.3 122.2 118.6C122 121 120.4 122.4 118.3 123.3C115.5 124.4 112.5 123.6 110.7 121.5C111 121.2 111.3 120.8 111.6 120.4C113.5 121.3 115.4 122.3 116.9 119.8C116.9 119 116.9 118.1 116.9 117.1C116.2 116.7 115.6 116.3 115.2 116.1C113.7 116.2 112.8 117 112.1 118.1C111.4 119.2 110.6 120.2 109.9 121.3C107.8 124.6 101.8 124.5 99.4 122.1C97.5 120.2 97.5 116.8 99.6 115C100.1 114.1 100.7 113.8 101.4 113.3L101.4 113.3ZM102.5 107.3C102.6 107.3 102.6 107.2 102.7 107.2C104.1 105.7 105.9 105.4 107.7 106.2C109.4 107 109.6 108.7 109.4 110.4C108.9 111.1 108.3 111.8 107.6 112.8C109.7 112.8 111.4 112.9 113.1 112.8C115.6 112.6 116.5 111.8 116.7 109.2C116.8 108.5 116.7 107.8 116.6 107.1C116.3 105.4 115.8 105.2 113.6 105.7C113.6 107.2 113.6 108.8 113.6 110.5C112.1 111.1 110.9 111.7 109.4 112.3C109.3 111.4 109.3 110.9 109.2 110.5C109.3 109.5 109.5 108.5 109.4 107.6C109.1 105.1 107.5 104 105 104.6C103.8 104.8 102.8 105.7 102.5 107.3C102.4 107.5 102.3 107.7 102.2 107.9C102.3 107.9 102.3 107.9 102.4 108C102.5 107.8 102.5 107.5 102.5 107.3L102.5 107.3ZM111.2 114.9C109 114.7 106.9 114.8 105 115.6C103.4 116.3 102.7 117.7 103.2 119C103.8 120.3 105.5 121 107 120.4C107.7 120.1 108.4 119.4 108.8 118.8C109.7 117.6 110.3 116.3 111.2 114.9L111.2 114.9ZM127.3 105.1C127 106.8 126.9 108.6 127.6 110.3C128.1 111.5 128.8 112 130.5 111.2C130.6 110.2 130.9 109 130.9 107.9C130.9 105.3 130 104.7 127.3 105.1L127.3 105.1ZM105.2 108.5C104 108.9 103.3 109.1 102.4 109.4C102.7 110.3 102.9 110.9 103.2 111.7C104 111.6 104.6 111.5 105.4 111.4C105.4 110.4 105.3 109.7 105.2 108.5L105.2 108.5Z" id="Shape" fill="#FEB680" fill-rule="evenodd" stroke="none" clip-path="url(#clip_1)" />
    <path d="M80.1002 106.7C80.5002 106.8 80.8002 106.9 81.0002 107C86.0002 108.5 86.8002 112.9 83.9001 116.4C79.8001 121.3 74.4001 124.4 67.7001 124.3C66.0001 124.3 64.3001 123.9 62.9001 122.4C63.1001 121.7 63.2001 121 63.4001 120.3C62.7001 119.7 61.7001 119.2 61.4001 118.4C61.1001 117.6 61.2001 116.4 61.5001 115.5C63.0001 110.5 64.5001 105.6 66.1001 100.6C65.5001 100.6 64.7002 100.6 63.5001 100.6C64.0001 98.0003 65.2001 96.3003 67.4001 95.4003C70.7001 94.0003 74.1001 93.5003 77.7001 93.9003C79.2001 94.1003 80.8002 94.3003 82.3002 94.9003C86.1002 96.4003 87.0002 100.4 84.3002 103.4C83.0002 104.5 81.5002 105.5 80.1002 106.7L80.1002 106.7ZM67.2001 118.7C67.9001 118.9 68.7001 119.1 69.5001 119.3C73.8002 120.3 77.3002 117.5 77.5002 113.1C77.6002 110.9 76.8002 109.8 74.7001 109.2C73.6001 108.9 72.5002 108.7 71.5002 108.4C70.1001 111.8 68.7001 115.1 67.2001 118.7L67.2001 118.7ZM74.3002 98.3003C73.6002 100.8 72.8002 103.4 72.0002 106.3C74.8002 105.7 76.3002 104.1 77.5002 102.1C78.1002 101.1 78.2001 100 77.5002 99.1003C76.8002 98.0003 75.8002 97.8003 74.3002 98.3003L74.3002 98.3003Z" id="Shape" fill="#FEB680" fill-rule="evenodd" stroke="none" clip-path="url(#clip_1)" />
    <path d="M41.2 103.5C40 106.9 39 109.8 38.1 112.7C37.4001 114.8 36.6 116.9 34.7 118.3C33.3 119.3 31.8 120 29.8 119.3C30.1001 116.5 32.1 114.5 32.9 112C33.8 109.5 34.8 107.1 35.8 104.6C36.8 102.2 37.8 99.7 38.8 97.3C38.3 96.6 37.9 96.1 37.3 95.4C39.3 94.1 41.3 93.6 43.5 93.6C44.8 93.6 45.8 94.4 46.3 95.6C46.9 97.2 47.5 98.8 48 100.4C48.8 102.8 49.3 105.2 50.9 107.8C51.3 106.4 51.5 105.5 51.8 104.5C52.5 102 53.2 99.5 54.1 97.1C55.1 94.6 56.9 93.6 59.5 93.9C60.2 94.7 60.1 95.6 59.8 96.5C57.3 103.3 54.9 110.1 52.3 116.8C51.6 118.5 51.2 118.7 49.6 119.3C48.2 118.8 47.3 117.7 46.7 116.4C45 112.6 43.4 108.8 41.8 105C41.6 104.8 41.5 104.4 41.2 103.5L41.2 103.5Z" id="Shape" fill="#FEB680" stroke="none" clip-path="url(#clip_1)" />
    <path d="M7.50005 108.5C9.70005 104.6 11.9001 100.7 14.2001 96.8C13.9001 96.2 13.6001 95.6 13.3001 95C14.1001 93.7 15.4001 93.9 16.5001 93.8C19.6001 93.5 21.3001 94.5 22.3001 97.4C22.9001 99.1 23.3001 101 23.6001 102.8C24.3001 107.4 26.0001 111.7 28.0001 116C28.2001 116.5 28.5001 117 28.8001 117.8C27.7001 118.4 26.7001 119.1 25.7001 119.6C23.4001 120.5 21.6001 119.8 20.5001 117.6C19.9001 116.3 19.4001 115 18.9001 114C15.9001 114.2 13.1001 114.4 10.2001 114.5C6.70006 119.8 4.40006 121 1.00007 119.2C0.800071 117.1 2.80007 116.1 3.50006 114.3C3.10006 113.9 2.70006 113.5 2.20006 112.9C2.60005 109.9 4.80005 109 7.50005 108.5L7.50005 108.5ZM16.2001 102.8C16.0001 102.7 15.9001 102.7 15.7001 102.6C14.8001 104.6 13.8001 106.6 12.8001 108.8C14.4001 108.8 15.8001 108.8 17.3001 108.8C17.0001 106.6 16.6001 104.7 16.2001 102.8L16.2001 102.8Z" id="Shape" fill="#FEB680" fill-rule="evenodd" stroke="none" clip-path="url(#clip_1)" />
    <path d="M256.8 105C255.9 104.9 255.2 104.8 254.2 104.7C253.7 109 254.1 113.1 253.9 117.4C252.6 118.2 251.2 119 249.5 120.1C249.4 118.9 249.4 118.2 249.4 117.4C249.4 114.4 249.4 111.4 249.4 108.4C249.4 106.2 248.7 105 247.3 104.5C245.3 103.9 243.1 104.4 242.1 106C241.3 107.4 240.8 109 240.6 110.6C240.4 112 240.7 113.4 240.9 114.9C241 116.3 241.8 117.1 243.1 117.4C245.3 115.8 245.2 113.4 242.8 111C242.3 111 241.7 111 241 111C241.8 108.2 244.8 107.4 246.8 109.3C248.5 110.9 248.9 114.1 247.7 116.3C246.4 118.6 243.8 119.8 241.3 119.2C238.2 118.5 236.1 115.7 236 112C236 110.6 236.2 109.1 236.7 107.8C238.2 103.7 240.7 102.3 245.6 102.2C247.6 102.2 249.6 102.5 251.4 103.8C253.3 102.4 255.5 101.9 257.8 102.6C259.3 103 260.4 103.9 260.5 105.5C260.7 106.8 260.6 108.2 260.7 109.5C260.8 111.8 260.9 114.2 260.9 116.4C262.5 117.7 263.8 117.6 264.4 116C265.6 112.7 265.7 109.4 264.2 106.2C263.9 105.5 262.9 104.9 262.1 104.6C261.2 104.3 260.4 103.9 260.3 102.8C262.9 101.5 266.4 102.4 267.8 104.9C269.8 108.6 269.9 112.5 268.1 116.2C266.8 119 263.4 120.3 260.4 119.5C258.1 118.8 256.6 117.1 256.6 114.7C256.8 111.6 256.8 108.5 256.8 105L256.8 105Z" id="Shape" fill="#FEB680" stroke="none" clip-path="url(#clip_1)" />
    <path d="M141.2 110.8C141.6 110.4 142 110 142.5 109.6C145.1 107.3 148.4 109.5 149 111.7C149.8 114.7 148.1 118 145.3 119.1C142.4 120.1 139 118.7 137.9 115.7C135.6 109.8 138.1 103.2 145.6 102.5C147.1 102.4 148.6 102.3 150.1 102.5C155.1 103.1 157.5 106.8 157.1 111.6C157 113.2 156.2 114.8 155.7 116.6C156.5 116.6 157.5 116.6 158.6 116.6C158.6 114.6 158.6 112.6 158.6 110.6C158.6 108.6 158.6 106.6 158.6 104.5C160.1 103.5 161.4 102.6 162.8 101.7C163.4 103.4 163.5 116.2 163 118.9C158.1 118.9 153.1 118.9 148 118.9C148.1 117.9 148.7 117.2 149.6 116.9C150.9 116.5 151.6 115.5 151.8 114.2C152.1 112.4 152.5 110.5 152.2 108.7C151.4 104.2 148 102.6 143.9 105.1C141.9 106.5 141.2 108.5 141.2 110.8C140.6 114.1 141.3 116.3 143.5 117.4C144.7 117.2 145.3 116.5 145.5 115.2C145.7 113.4 145.1 112.1 143.4 111.3C143.1 111.3 142.7 111.3 142.4 111.4C142.1 111.4 141.7 111.5 141.4 111.5C141.3 111.2 141.3 111 141.2 110.8L141.2 110.8Z" id="Shape" fill="#FEB680" stroke="none" clip-path="url(#clip_1)" />
    <path d="M211.3 116.9C212.8 117.4 213.6 117 214.3 116.1C215.4 114.4 215.8 107 213.7 105.4C213.6 105.3 213.5 105.2 213.3 105C212.8 104.9 212.2 104.7 211.4 104.6C211.2 104.1 210.9 103.6 210.6 103C214.2 101.9 217.4 103.4 218.6 106.5C219.6 109.1 219.8 111.8 219 114.5C217.9 118.4 214.1 120.4 210.2 119.2C207.9 118.5 206.7 117.1 206.6 114.4C206.5 112.3 206.6 110.1 206.5 108C206.5 107.1 206.4 106.3 206.4 105.6C205.1 103.7 203.2 103.6 201.5 104.2C198.8 105.1 198.3 107.6 197.8 110.5C198.3 110 198.6 109.8 198.9 109.6C201.4 107.7 204.5 108.7 205.4 111.6C205.9 113.4 206 115.3 205 117C203.5 119.6 199.2 120.3 196.6 118.2C195.5 117.4 194.5 116.1 194.1 114.9C192.4 110.3 194.2 102.7 202.2 102.2C203.8 102.1 205.5 102.3 207.1 102.6C209.6 103.1 210.8 104.7 210.9 107.4C211 109.8 210.9 112.1 210.9 114.5C211 115.3 211.2 116.1 211.3 116.9L211.3 116.9ZM201.3 117C202.9 114.1 202.4 112.4 199.7 111.4C199.2 111.7 198.6 112.1 198.1 112.4C197.9 114.2 198.1 115.8 199.4 117.1C199.7 117.2 199.9 117.3 200.2 117.2C200.6 117.1 200.9 117 201.3 117L201.3 117Z" id="Shape" fill="#FEB680" fill-rule="evenodd" stroke="none" clip-path="url(#clip_1)" />
    <path d="M185.6 105C184.5 104.7 183.1 104.7 183 103C185.6 101.9 188.7 102.8 190.1 105.1C192 108.3 192.3 111.8 190.9 115.2C189.5 118.7 186.1 120.3 182.4 119.2C180.2 118.5 178.9 116.9 178.9 114.6C178.8 111.7 178.9 108.7 178.9 106C177 103.3 173.8 103.1 171.9 105.4C170 107.7 169.4 113.2 170.8 115.8C171.4 116.8 171.6 117 173.3 116.8C175.2 114.4 174.9 112.6 172.3 111.2C171.8 111.3 171.2 111.5 170.5 111.7C170.4 111.4 170.3 111.2 170.3 111C170.8 109.2 172.4 108.2 174.2 108.5C176.5 108.9 177.9 110.5 178.2 112.9C178.5 115.6 177.2 118 174.9 118.8C170.9 120.2 166.6 117.6 166.1 113.2C166 111.9 166 110.6 166.2 109.3C166.7 105.5 169.2 102.8 173.2 102.2C175.1 101.9 177.2 102 179.1 102.3C181.9 102.7 183.1 104.3 183.3 107.2C183.4 109.4 183.3 111.6 183.3 113.9C183.3 114.8 183.4 115.7 183.5 116.5C185.3 117.1 185.9 116.9 186.6 115.8C188.2 113.3 187.7 107.7 185.6 105L185.6 105Z" id="Shape" fill="#FEB680" stroke="none" clip-path="url(#clip_1)" />
    <path d="M4.5 81.5C5.2 81.5 5.9 81.4 6.6 81.4C22.4 81.2 38.1 81.1 53.9 80.9C62.7 80.8 71.5 80.6 80.3 80.5C88.4 80.4 96.5 80.2 104.6 80.1C105.4 80.1 106.1 80.1 107.2 80.1C107.1 81.4 107.1 82.4 107 83.4C104.6 84 6.5 82.3 4.5 81.5L4.5 81.5Z" id="Shape" fill="#FEB680" stroke="none" clip-path="url(#clip_1)" />
    <path d="M265.8 81.9999C263.2 82.0999 260.6 82.2999 257.9 82.3999C250.3 82.4999 242.7 82.4999 235.1 82.5999C225.5 82.6999 215.9 82.8999 206.3 82.9999C198.1 83.0999 189.8 83.2999 181.6 83.3999C176.4 83.4999 171.3 83.5999 166.1 83.7999C165.3 83.7999 164.4 83.7999 163.4 83.7999C163.3 82.4999 163.3 81.5999 163.2 80.6999C165.1 79.9999 262.4 81.0999 265.8 81.9999L265.8 81.9999Z" id="Shape" fill="#FEB680" stroke="none" clip-path="url(#clip_1)" />
    <path d="M239.101 140.1C239.301 140 239.701 139.8 240.101 139.6C240.401 139.9 240.601 140.2 241.001 140.6C241.501 138.2 241.401 136.1 240.701 133.8C243.101 133.8 245.301 133.8 247.501 133.8C247.601 134.2 247.701 134.4 247.801 134.6C247.801 134.7 247.701 134.9 247.601 135.1C247.201 135.1 246.701 135.1 246.301 135.2C245.701 137.2 245.801 139.2 246.501 141.4C243.401 141.4 240.401 141.4 237.301 141.4C237.501 142.3 237.601 142.9 237.801 143.7C237.001 143.7 236.301 143.7 235.501 143.7C235.501 142.9 235.501 142.3 235.501 141.5C234.101 141.5 232.701 141.5 231.001 141.5C231.601 139.5 233.001 137.9 231.901 135.9C231.401 135.1 230.601 134.6 229.301 134.6C228.901 135 228.501 135.6 227.901 136.2C230.301 136.7 231.101 137.3 231.201 138.6C231.301 139.7 230.401 141 229.401 141.3C228.001 141.8 227.001 141.2 225.601 139.1C224.801 141.4 223.001 141.6 221.101 141.4C220.701 141.4 220.201 141.2 219.901 141C217.901 139.7 217.701 137.8 217.801 135.7C217.901 133.9 218.601 132.4 220.501 131.7C222.201 131.1 224.001 131.4 224.801 132.6C225.501 133.6 225.301 134.6 224.101 136.3C224.501 136.7 224.901 137.1 225.401 137.6C225.501 137.3 225.701 137.1 225.801 136.9C226.301 134.8 227.601 133.8 229.701 133.6C232.801 133.4 234.801 135.9 233.901 138.9C233.801 139.3 233.601 139.7 233.401 140.2C233.801 140.3 234.201 140.4 234.501 140.4C234.801 140.4 235.201 140.3 235.401 140.3C235.101 139.1 234.601 137.9 234.501 136.8C234.401 134.9 235.501 133.9 237.101 133.9C238.701 133.9 239.701 134.8 239.701 136.7C239.701 137.7 239.301 138.9 239.101 140.1L239.101 140.1ZM220.301 139.6C220.001 138.1 220.701 137 221.701 136.4C221.201 135.4 220.701 134.6 220.301 133.7C219.301 135.6 219.601 137.6 220.301 139.6L220.301 139.6ZM243.901 135C242.501 136.9 242.601 139.4 243.901 140.7C244.501 138.8 244.301 136.9 243.901 135L243.901 135ZM237.301 139.1C237.801 137.7 238.401 136.3 237.101 134.9C236.001 136.3 236.001 137 237.301 139.1L237.301 139.1ZM222.601 140.3C223.901 138.9 223.901 138.7 222.501 137.4C221.901 138.5 221.801 139.4 222.601 140.3L222.601 140.3ZM228.601 140.2C229.501 138.7 229.401 138.6 228.101 137.8C227.501 139.4 227.501 139.4 228.601 140.2L228.601 140.2ZM222.901 134.8C223.501 133.9 223.501 133.4 222.701 132.8C222.001 133.6 222.101 134.1 222.901 134.8L222.901 134.8Z" id="Shape" fill="#FEB680" fill-rule="evenodd" stroke="none" clip-path="url(#clip_1)" />
    <path d="M225.2 118.8C224.2 119.4 223.4 119.9 222.3 120.6C222.2 119.4 222 118.5 222 117.6C222 114.2 222 110.9 222 107.5C222 104.9 222 104.9 224.1 103.1C227.7 103.1 231.3 103.1 234.9 103.1C234.7 104.7 233.7 105.2 232.4 105.6C232.4 109.6 232.4 113.4 232.4 117.4C231.1 118.4 229.8 119.3 228.2 120.5C227.7 118.6 228 117 227.9 115.4C227.9 113.8 227.9 112.3 227.9 110.7C227.9 109.1 227.9 107.4 227.9 105.5C227 105.5 226.2 105.4 225.2 105.4C225.2 109.9 225.2 114.3 225.2 118.8L225.2 118.8Z" id="Shape" fill="#FEB680" stroke="none" clip-path="url(#clip_1)" />
    <path d="M138.3 165.3C138.2 162.3 139.6 160.4 141.9 159.4C143.9 158.5 146.1 157.9 148.3 157.6C153 157.1 157.7 157.5 162.3 158.9C165.7 159.9 169 160.9 172.5 161.6C176.2 162.4 180 162.5 183.8 161.4C186.3 160.7 188.5 159.3 190.5 157.3C189.8 159.2 187.8 161.2 185.6 162.3C182.6 163.7 179.3 164.4 176 163.9C170.2 163 164.5 161.9 158.7 161C153.9 160.3 149.1 160.2 144.5 162C143 162.6 141.6 163.5 140.1 164.2C139.4 164.6 138.8 165 138.3 165.3L138.3 165.3Z" id="Shape" fill="#FEB680" stroke="none" clip-path="url(#clip_1)" />
    <path d="M82.5003 158.3C83.0003 158.6 83.5003 158.8 84.0003 159.2C87.8003 161.9 92.0003 162.4 96.5003 162.1C102.1 161.7 107.3 159.5 112.8 158.3C118 157.2 123.2 157 128.3 158.5C131.1 159.3 133.4 160.9 134.1 164C134.2 164.4 134.2 164.8 134.2 165.5C133.6 165.2 133.3 165 133 164.8C129.2 162 125 160.8 120.4 160.6C115.8 160.5 111.3 161.4 106.8 162.2C103.3 162.9 99.8003 163.6 96.2003 163.9C90.8003 164.4 86.0003 163.1 82.4003 158.6C82.3003 158.5 82.4003 158.4 82.5003 158.3L82.5003 158.3Z" id="Shape" fill="#FEB680" stroke="none" clip-path="url(#clip_1)" />
    <path d="M92.7001 139.101C92.5001 139.801 92.4001 140.401 92.2001 141.201C91.0001 141.301 90.0001 141.401 88.8001 141.501C88.0001 143.501 86.4001 144.1 84.4001 144C81.4001 143.9 79.6001 141.701 80.1001 138.701C80.4001 136.901 81.3001 136.101 83.3001 136.101C82.8001 137.201 82.1001 138.201 81.8001 139.401C81.5001 140.801 82.4001 142.301 83.5001 142.801C84.7001 143.301 85.8001 142.901 86.9001 141.601C85.6001 141.5 84.3001 141.401 83.3001 141.301C83.3001 139.5 83.3001 137.801 83.3001 136.101C83.2001 135.401 83.1001 134.701 83.0001 133.8C83.9001 133.8 84.7001 133.8 85.4001 133.8C85.3 135.901 85.2001 137.801 85.1 140C85.8 140.101 86.3 140.2 86.8 140.301C86.9001 140 87.1 139.801 87.1 139.601C87.1 138.401 87.1 137.201 87.2001 136C87.3001 134.601 88.0001 134 89.6 133.8C91.2001 133.601 92.3001 134.2 92.6001 135.601C92.8001 136.301 92.8001 137.101 92.9001 138C93.5001 137.4 93.9001 136.9 94.5001 136.301C94.3001 135.601 94.2001 135 93.9001 134.101C96.2001 133.601 98.5001 133.901 100.9 133.901C100.9 134.601 101 135.001 101 135.601C100.3 135.5 99.7001 135.301 99.1001 135.201C99.0001 135.301 98.9001 135.401 98.8001 135.501C99.0001 135.801 99.2001 136.301 99.5001 136.401C101.8 137.501 102.2 138.001 101.9 140.401C101.7 142.001 100.4 143.201 98.6001 143.501C97.6001 143.701 96.5001 143.701 95.3001 143.701C95.0001 144.2 94.7001 144.7 94.4001 145.2C93.9001 145.2 93.5001 145.1 93.0001 145.1C92.9001 144.8 92.7001 144.6 92.7001 144.4C92.9001 142.901 93.4001 142.301 95.0001 142.201C96.2001 142.101 97.4001 142.201 98.4001 142.201C100.3 140.301 100.5 139.301 98.9001 137.501C98.6001 138.601 98.4001 139.501 98.2001 140.501C96.0001 142.4 93.9001 141.9 92.7001 139.101L92.7001 139.101ZM88.9001 135.101C88.9001 136.901 88.9001 138.5 88.9001 140.301C89.6001 140.2 90.1001 140.2 90.6001 140.101C90.6001 138.301 90.6001 136.701 90.6001 135.101C90.0001 135.101 89.6001 135.101 88.9001 135.101L88.9001 135.101ZM97.1001 137.601C96.2001 137.601 95.6001 137.701 95.1001 137.701C94.7001 138.901 94.6001 139.901 96.2001 140.401C96.5001 139.601 96.7001 138.801 97.1001 137.601L97.1001 137.601ZM96.6001 135.101C96.5001 135.101 96.3001 135.101 96.2001 135.201C96.2001 135.401 96.3001 135.701 96.4001 136.101C96.6001 135.801 96.8001 135.701 96.8001 135.701C96.7001 135.5 96.6001 135.301 96.6001 135.101L96.6001 135.101Z" id="Shape" fill="#FEB680" fill-rule="evenodd" stroke="none" clip-path="url(#clip_1)" />
    <path d="M156.5 135.1C156 137.1 156.2 139.2 156.6 141.3C153.6 141.3 150.7 141.3 147.8 141.3C149.3 137 149.3 136.5 147.6 134.7C145.6 134.5 145.6 134.5 144.8 136.2C145.3 136.4 145.9 136.5 146.4 136.7C147.4 137.2 147.9 138.3 147.7 139.4C147.5 140.4 147 141.1 145.9 141.3C144.8 141.5 143.8 141.2 143.1 140.2C142.1 138.6 142.4 136 143.7 134.6C145 133.3 147.7 133 149.3 134.1C150.5 134.9 151.1 136.7 150.7 138.5C150.6 139 150.3 139.5 150.1 140.2C150.6 140.1 150.9 140.1 151.4 140C151.4 138.1 151.4 136.4 151.4 134.5C152.1 134.1 152.8 133.7 153.4 133.3C154.1 133.5 154.7 133.7 155.3 133.9C155.9 133.7 156.5 133.5 157.1 133.3C159.1 133.5 160.1 134.7 160.4 136.5C160.6 137.5 160.6 138.5 160.5 139.5C160.2 141.9 158.7 143.2 156.3 143.2C153 143.2 149.7 143.2 146.4 143.2C145.8 143.2 145.1 143.2 144.4 143.2C143.9 143.6 143.4 143.9 142.7 144.5C142.6 143.6 142.5 142.9 142.5 142C143.3 141.9 143.9 141.8 144.5 141.8C148.1 141.8 151.7 141.8 155.2 141.8C157.8 141.8 158.3 141.4 158.6 138.7C158.7 137.7 158.5 136.7 158.3 135.8C158.1 135.5 157.7 134.9 156.5 135.1L156.5 135.1ZM153.4 140.5C154.8 138.8 154.7 136 153.4 135C153.4 136.9 153.4 138.7 153.4 140.5L153.4 140.5ZM144.9 137.7C144 139.1 144 139.3 145.3 140.2C146.2 138.8 146.2 138.7 144.9 137.7L144.9 137.7Z" id="Shape" fill="#FEB680" fill-rule="evenodd" stroke="none" clip-path="url(#clip_1)" />
    <path d="M45.3999 140C45.2999 140.4 45.2999 140.8 45.1999 141.3C37.4999 141.3 29.9999 141.3 22.3999 141.3C22.2999 141 22.2999 140.7 22.1999 140.4C24.3999 138.5 23.9999 135.8 21.0999 134.5C20.5999 134.9 19.9999 135.4 19.1999 136C21.6999 136.7 21.6999 136.7 22.5999 138.4C22.4999 139 22.3999 139.7 22.2999 140.4C21.2999 141.2 20.1999 141.8 18.9999 141.1C17.6999 140.4 17.3999 139.2 17.3999 137.8C17.3999 136 18.1999 134.6 19.7999 133.9C21.3999 133.2 22.8999 133.3 24.1999 134.5C25.4999 135.7 25.7999 137.3 25.2999 139C25.1999 139.4 24.9999 139.8 24.7999 140.3C25.5999 140.2 26.2999 140.2 27.0999 140.2C27.0999 138.1 27.0999 136.1 27.0999 134.1C28.1999 133.6 30.0999 133.5 31.9999 133.9C31.9999 135.9 31.9999 138 31.9999 140.1C33.9999 140.8 35.8999 140 37.8999 139.9C37.8999 138 37.8999 136 37.8999 133.8C38.5999 133.8 39.2999 133.8 39.8999 133.8C39.8999 136 39.8999 138 39.8999 140.2C41.4999 140.2 43.0999 140.7 44.6999 139.9C44.7999 139.8 45.0999 140 45.3999 140L45.3999 140ZM29.4999 140.4C29.9999 138.5 30.0999 136.6 29.5999 134.4C28.4999 136.2 28.4999 138.9 29.4999 140.4L29.4999 140.4ZM19.9999 140.2C20.9999 139 20.9999 138.8 19.7999 137.6C18.9999 139.1 18.9999 139.1 19.9999 140.2L19.9999 140.2Z" id="Shape" fill="#FEB680" fill-rule="evenodd" stroke="none" clip-path="url(#clip_1)" />
    <path d="M259.7 133.8C259.8 134.4 259.8 134.8 259.9 135.3C259 135.1 258.2 135 257.301 134.8C257.2 135.3 257.2 135.6 257.2 135.9C257.401 136.1 257.5 136.2 257.6 136.2C258.8 136.3 260.2 136.3 260.6 137.8C261.1 139.4 261 141 259.9 142.5C258.1 144.9 250.6 145.5 248.5 141.7C247.4 139.7 247.6 137.4 249.5 135.5C250.2 135.6 251.1 135.7 252.1 135.9C252 135.3 251.9 134.7 251.801 133.8C254.4 133.8 256.9 133.8 259.7 133.8L259.7 133.8ZM252.2 138.6C251.2 139 250.5 139.2 249.7 139.5C249.901 141.4 250.901 142.6 252.6 143.1C254.5 143.6 256.5 143.6 258 142.1C259 141.2 259.2 140 258.8 138.7C258.7 138.3 258.1 138.1 257.4 137.5C257.4 139.1 257.4 140.2 257.4 141.2C256.5 141.2 255.8 141.2 255 141.2C255.4 139 255.7 136.9 254.5 135C253.6 137 254.1 139.1 254 141.3C253.3 141.3 252.6 141.3 251.9 141.3C252 140.4 252.1 139.7 252.2 138.6L252.2 138.6ZM249.7 137.9C249.901 137.9 250 137.9 250.2 137.9C250.2 137.5 250.2 137.2 250.1 136.8C250 136.8 249.9 136.8 249.7 136.8C249.8 137.2 249.7 137.6 249.7 137.9L249.7 137.9Z" id="Shape" fill="#FEB680" fill-rule="evenodd" stroke="none" clip-path="url(#clip_1)" />
    <path d="M63.0001 136.6C64.0001 138 64.7001 139.4 63.8001 141.1C62.8001 142.9 61.3001 143.6 59.4001 143.5C58.5001 143.5 57.7001 143.5 56.8001 143.5C56.3001 143.9 55.8001 144.2 55.1001 144.8C55.1001 143.9 55.1001 143.2 55.1001 142.2C57.1001 142.2 59.1001 142.2 60.8001 142.2C62.7001 140 62.7001 138.6 60.9001 137.6C60.8001 138.5 60.7001 139.3 60.6001 140.1C59.3001 141.6 57.3001 142 56.1001 141C54.8001 139.9 54.9001 138.4 56.6001 135.8C56.4001 135.3 56.2001 134.7 56.0001 133.8C56.9001 133.7 57.8001 133.6 58.7001 133.5C58.8001 132.9 58.9001 132.3 59.0001 131.7C59.8001 130.7 60.8001 130.4 61.9001 130.5C63.5001 130.5 64.4001 131.3 64.7001 132.8C64.8001 133.3 64.9001 133.8 64.9001 134.3C64.9001 134.9 64.9001 135.6 64.9001 136.3C64.1001 136.4 63.5001 136.5 63.0001 136.6C62.4001 135.8 61.9001 135 60.6001 135.1C60.8001 136.7 62.2001 136.2 63.0001 136.6L63.0001 136.6ZM57.3001 140.5C59.2001 139.8 59.1001 138.8 58.7001 137.2C58.0001 137.6 57.2001 137.9 57.0001 138.3C56.8001 138.9 57.2001 139.6 57.3001 140.5L57.3001 140.5ZM62.3001 132C61.1001 131.7 60.3001 131.8 60.3001 133.3C61.1001 133.4 61.7001 133.5 62.6001 133.6C62.5001 132.9 62.4001 132.5 62.3001 132L62.3001 132ZM58.4001 135.9C58.6001 135.9 58.7001 135.9 58.9001 135.9C58.9001 135.6 58.8001 135.4 58.8001 135.1C58.7001 135.1 58.6001 135.1 58.5001 135.1C58.4001 135.4 58.4001 135.6 58.4001 135.9L58.4001 135.9Z" id="Shape" fill="#FEB680" fill-rule="evenodd" stroke="none" clip-path="url(#clip_1)" />
    <path d="M5.6 153.3C29.7 153.2 53.8 153 77.9 152.9C78 153.3 78.1 153.7 78.2 154C77.9 154.1 77.8 154.3 77.6 154.3C76.8 154.3 76 154.4 75.2 154.4C57 154.3 38.8 154.3 20.7 154.2C16.2 154.2 11.7 154 7.2 153.9C6.6 153.9 6.1 153.8 5.5 153.8C5.5 153.6 5.6 153.4 5.6 153.3L5.6 153.3Z" id="Shape" fill="#FEB680" stroke="none" clip-path="url(#clip_1)" />
    <path d="M264.9 153.8C240.8 154.3 216.6 154.3 192.5 154.4C192.4 154.2 192.3 154.1 192.3 153.9C192.6 153.6 192.8 153.1 193.1 153C193.7 152.8 194.4 152.9 195 152.9C202 152.9 209 153 216.1 153C231.6 153.1 247.2 153.2 262.7 153.3C263.5 153.3 264.2 153.4 265 153.4C265 153.5 265 153.6 264.9 153.8L264.9 153.8Z" id="Shape" fill="#FEB680" stroke="none" clip-path="url(#clip_1)" />
    <path d="M190.3 141.3C190.3 138.8 190.3 136.5 190.3 134C191.7 133.5 202 133.4 204.2 134C204.3 134.3 204.3 134.6 204.4 135.1C203.8 135.1 203.4 135.2 202.8 135.2C202.8 137.2 202.8 139.1 202.8 141.3C201.1 141.3 199.3 141.3 197.6 141.3C197.6 139.2 197.6 137.2 197.6 135.1C197 135.1 196.3 135.2 195.5 135.3C195.5 137.2 195.5 139.2 195.5 141.4C193.9 141.3 192.1 141.3 190.3 141.3L190.3 141.3ZM193 140.6C193.9 138.2 193.7 136 192.6 134.8C192.4 136.9 192.2 138.8 193 140.6L193 140.6ZM200.4 135C199.5 136.3 199.5 139.2 200.4 140.5C201.1 139 201.1 136.5 200.4 135L200.4 135Z" id="Shape" fill="#FEB680" fill-rule="evenodd" stroke="none" clip-path="url(#clip_1)" />
    <path d="M45.3997 140C45.1997 138.5 45.4997 137.1 47.0997 136.3C46.8997 135.4 46.7997 134.7 46.5997 133.7C48.8997 133.5 51.0997 133.4 53.3997 133.8C53.4998 134.3 53.4998 134.7 53.5997 135.3C52.8997 135.1 52.2997 135 51.7997 134.9C51.6997 135 51.5997 135.1 51.4997 135.2C51.6997 135.5 51.8997 136 52.1997 136.1C54.5997 137.2 54.9997 137.9 54.5997 140.2C54.2997 141.8 52.8997 143.2 50.9997 143.4C49.9997 143.5 48.9997 143.4 47.9997 143.4C47.5997 144 47.2997 144.5 46.8997 145C46.4997 145 45.9997 145 45.6997 145C45.0997 144.3 45.2997 143.1 46.0997 142.6C46.6997 142.3 47.3997 142.1 48.0997 142.1C49.1997 142 50.1997 142.1 51.0997 142.1C52.9997 140.2 53.0997 139.1 51.5997 137.6C51.4997 138.1 51.3997 138.5 51.2997 138.9C50.6997 141.6 48.2997 142.4 46.0997 140.7C45.8997 140.5 45.5997 140.2 45.3997 140L45.3997 140ZM49.3997 137.8C48.3997 137.4 47.7997 137.6 47.4997 138.5C47.1997 139.4 47.5997 140.1 48.5997 140.3C49.5997 139.6 49.5997 138.7 49.3997 137.8L49.3997 137.8ZM49.3997 135.1C49.1997 135.1 49.0997 135.1 48.8997 135.1C48.8997 135.4 48.9997 135.6 48.9997 135.9C49.0997 135.9 49.1997 135.9 49.2997 135.9C49.3997 135.7 49.3997 135.4 49.3997 135.1L49.3997 135.1Z" id="Shape" fill="#FEB680" fill-rule="evenodd" stroke="none" clip-path="url(#clip_1)" />
    <path d="M72.4002 135.7C72.4002 135.1 72.4002 134.4 72.4002 133.9C74.3002 133.4 75.7002 133.9 76.0002 135.5C76.3002 136.8 76.2002 138.3 75.9002 139.7C75.5002 141.1 74.1002 141.8 72.7002 141.5C71.4002 141.3 70.8002 140.5 70.7002 138.9C70.6002 138.3 70.7002 137.8 70.7002 137.2C70.7002 136 70.2002 135.1 68.8002 134.7C68.3002 135.1 67.8002 135.5 67.0002 136.2C67.8002 136.4 68.1002 136.5 68.4002 136.6C69.9002 137 70.5002 137.7 70.5002 139.1C70.5002 140.4 69.9002 141.2 68.8002 141.5C67.5002 141.8 66.4002 141.4 65.7002 140.2C64.6002 138.4 65.2002 135.4 66.8002 134.4C68.6002 133.1 70.9002 133.6 72.4002 135.7C72.8002 137.1 71.9002 138.9 73.3002 140.3C74.8002 138.8 75.0002 136.9 73.7002 135C73.3002 135.3 72.9002 135.5 72.4002 135.7L72.4002 135.7ZM67.5002 137.5C67.5002 138.7 67.5002 139.5 67.5002 140.5C69.3002 139.2 69.3002 138.9 67.5002 137.5L67.5002 137.5Z" id="Shape" fill="#FEB680" fill-rule="evenodd" stroke="none" clip-path="url(#clip_1)" />
    <path d="M175.6 135.7C175.6 135.1 175.5 134.5 175.5 133.9C177.2 133.4 178 133.7 178.8 134.7C180 136.4 179.8 139.1 178.4 140.6C177.6 141.4 176.7 141.6 175.7 141.4C174.6 141.2 174.2 140.4 174 139.4C173.9 138.6 173.9 137.8 173.9 137.1C173.9 135.8 173.3 134.9 171.7 134.6C171.2 135.1 170.7 135.7 169.9 136.5C170.6 136.5 170.8 136.5 171.1 136.5C172.6 136.6 173.4 137.3 173.6 138.6C173.8 139.7 173.2 140.8 172.2 141.2C171 141.7 169.5 141.3 168.8 140.1C167.7 138.3 168.1 135.5 169.7 134.3C171.5 133 173.8 133.4 175.3 135.3C175.4 135.5 175.5 135.6 175.6 135.7C175.9 137.2 175.1 138.9 176.3 140.3C178 138.8 178.2 137.1 176.8 135C176.5 135.2 176 135.5 175.6 135.7L175.6 135.7ZM171.3 140.3C172 139.3 172.1 138.5 171.1 137.7C169.8 139.1 169.8 139.5 171.3 140.3L171.3 140.3Z" id="Shape" fill="#FEB680" fill-rule="evenodd" stroke="none" clip-path="url(#clip_1)" />
    <path d="M105.701 134.5C105.201 135.1 104.801 135.6 104.201 136.3C105.001 136.4 105.401 136.4 105.801 136.5C107.001 136.8 107.701 137.6 107.801 138.8C107.901 139.9 107.401 140.8 106.401 141.3C105.401 141.8 104.101 141.6 103.301 140.7C102.201 139.5 101.901 137.6 102.601 136.1C103.301 134.5 104.801 133.5 106.601 133.8C107.601 133.9 108.501 134.4 109.401 134.7C109.501 134.5 109.701 134.1 109.801 133.7C112.001 133.5 112.901 134.1 113.501 136.1C113.901 137.5 113.701 138.8 113.101 140C112.401 141.3 111.301 141.8 109.801 141.4C108.501 141.1 108.201 140.1 108.101 139C108.101 138.4 108.101 137.9 108.101 137.3C108.001 135.9 107.501 135 105.701 134.5L105.701 134.5ZM111.001 135C110.501 135.4 110.001 135.7 109.601 136C109.501 139.3 109.501 139.3 110.801 140.2C112.201 138.5 112.301 136.9 111.001 135L111.001 135ZM104.801 137.5C104.301 138.7 103.901 139.7 105.301 140.3C106.001 139.3 106.301 138.4 104.801 137.5L104.801 137.5Z" id="Shape" fill="#FEB680" fill-rule="evenodd" stroke="none" clip-path="url(#clip_1)" />
    <path d="M212.8 133.8C212.8 134.4 212.8 134.8 212.8 135.4C212.3 135.3 212 135.2 211.7 135.1C211.4 135.1 211 135.1 210.6 135C210.5 136.4 211.6 136.1 212.2 136.3C213.8 136.8 214.5 138 214 139.6C213.5 141.3 212 141.8 209.8 140.9C207.6 141.7 205.9 141.5 205.1 140.3C204.2 139.1 204.5 137.6 206.1 135.9C206 135.3 205.9 134.6 205.8 133.7C208.1 133.8 210.3 133.8 212.8 133.8L212.8 133.8ZM208.5 137.7C207.5 137.4 206.9 137.5 206.7 138.4C206.5 139.3 206.8 139.9 207.8 140.1C208.9 139.7 208.6 138.7 208.5 137.7L208.5 137.7ZM210.7 137.4C210.5 138.7 210.3 139.7 211.8 140.3C212.1 139.1 212.5 138.1 210.7 137.4L210.7 137.4ZM208.1 135.9C208.3 135.9 208.4 135.9 208.6 135.8C208.5 135.5 208.5 135.3 208.4 135C208.3 135 208.2 135 208.1 135C208.1 135.4 208.1 135.6 208.1 135.9L208.1 135.9Z" id="Shape" fill="#FEB680" fill-rule="evenodd" stroke="none" clip-path="url(#clip_1)" />
    <path d="M184.1 134.4C185.1 134.1 185.8 133.8 186.4 133.7C187.7 133.5 189.1 134.2 189.3 135.3C189.6 137.3 189.6 139.2 189.2 141.3C186 141.3 183 141.3 180.1 141.3C180.1 138.9 180.1 136.5 180.1 133.9C180.7 133.9 181.5 133.9 182.3 133.9C182.3 136.1 182.3 138.1 182.3 140.2C182.8 140.2 183.2 140.3 183.9 140.3C183.9 139.2 183.9 138.2 183.9 137.3C183.8 136.3 184 135.4 184.1 134.4L184.1 134.4ZM186.6 134.7C185.3 136.4 185.7 138.2 185.8 140.1C186.4 140.1 186.9 140.1 187.7 140.1C187.3 138.2 188.2 136.3 186.6 134.7L186.6 134.7Z" id="Shape" fill="#FEB680" fill-rule="evenodd" stroke="none" clip-path="url(#clip_1)" />
    <path d="M3.9 134.5C4.9 134.1 5.70001 133.7 6.5 133.6C7.7 133.4 9 134.1 9.2 135.2C9.5 137.1 9.6 139.1 9.1 141.2C6 141.2 3 141.2 0 141.2C0 138.8 0 136.4 0 133.8C0.599999 133.8 1.4 133.7 2.2 133.6C2.2 135.9 2.2 137.9 2.2 140C2.8 140 3.3 140 4 140C3.9 138.3 3.9 136.6 3.9 134.5L3.9 134.5ZM6.8 134.7C6.5 134.7 6.3 134.8 6 134.8C6 136.6 6 138.4 6 140.3C6.5 140.2 6.9 140.1 7.6 140C7.3 138.2 8.3 136.2 6.8 134.7L6.8 134.7Z" id="Shape" fill="#FEB680" fill-rule="evenodd" stroke="none" clip-path="url(#clip_1)" />
    <path d="M261.4 133.8C262.1 133.8 262.8 133.8 263.5 133.8C263.5 135.9 263.5 137.9 263.5 140C264 140.1 264.5 140.1 265.3 140.2C265.3 139.1 265.3 138.2 265.3 137.3C265.3 136.4 265.4 135.5 265.4 134.5C266.2 134.2 266.9 133.8 267.6 133.6C269.2 133.3 270.5 134.1 270.7 135.7C270.9 137.4 270.7 139.2 270.7 141.3C267.5 141.4 264.5 141.4 261.4 141.4C261.4 138.9 261.4 136.5 261.4 133.8L261.4 133.8ZM269.2 140C269.2 138.7 269.2 137.4 269.2 136C269.2 135.1 268.7 134.6 267.5 134.7C267.1 136.5 267.2 138.3 267.5 140.1C267.9 140.1 268.2 140.2 268.5 140.2C268.6 140.3 268.8 140.1 269.2 140L269.2 140Z" id="Shape" fill="#FEB680" fill-rule="evenodd" stroke="none" clip-path="url(#clip_1)" />
    <path d="M137 135.7C137.6 136.5 138.2 137.4 138.7 138C138.1 140.8 137 141.8 135 141.6C133.1 141.5 131.8 140 131.8 137.8C131.8 136.8 131.7 135.8 131.9 134.8C132.3 132.4 134.9 131 136.9 132.1C138.4 133 138.5 134.5 137 135.7C136.5 135.4 136.1 135 135.7 134.8C135.7 134.2 135.8 133.7 135.8 133.3C133.8 133.6 133.5 134.1 134 135.8C135 135.7 136 135.7 137 135.7L137 135.7ZM134.4 137.1C133.3 139.1 133.5 139.6 135.5 140.3C135.8 139.8 136.1 139.3 136.4 138.9C136 137.7 135.8 136.8 134.4 137.1L134.4 137.1Z" id="Shape" fill="#FEB680" fill-rule="evenodd" stroke="none" clip-path="url(#clip_1)" />
    <path d="M118.3 138.2C118.9 138.3 119.5 138.4 120.1 138.5C120.1 139.2 120 139.7 120 140.2C120.3 140.2 120.6 140.4 120.8 140.3C122 139.9 122 139.8 122.2 137.5C121.9 137.6 121.6 137.6 121.4 137.7C119.9 138 118.5 137.5 117.9 136.4C117.3 135.3 117.4 134 118.3 133C119.2 131.9 120.9 131.3 122.2 131.9C122.9 132.2 123.6 132.7 124 133.3C125.3 135.3 124.9 138.8 123.3 140.5C122.3 141.5 120.4 141.9 119.2 141.2C118 140.7 117.6 139.8 118.3 138.2L118.3 138.2ZM120 133.3C120 134.4 120 135.3 120 136.3C120.8 136.3 121.3 136.3 122.1 136.3C122.1 135.3 122.1 134.4 122.1 133.3C121.3 133.3 120.8 133.3 120 133.3L120 133.3Z" id="Shape" fill="#FEB680" fill-rule="evenodd" stroke="none" clip-path="url(#clip_1)" />
    <path d="M247 97.5004C248.3 94.3004 252.9 93.5004 255 96.1004C255.8 97.1004 255.8 98.1004 255 99.0004C252.9 101.6 248.2 100.7 247 97.5004L247 97.5004Z" id="Shape" fill="#FEB680" stroke="none" clip-path="url(#clip_1)" />
    <path d="M184.6 97.4999C183.2 100.6 178.9 101.4 176.7 98.9999C175.8 98.0999 175.8 96.8999 176.6 95.8999C178.8 93.3999 183.4 94.2999 184.6 97.4999L184.6 97.4999Z" id="Shape" fill="#FEB680" stroke="none" clip-path="url(#clip_1)" />
    <path d="M228.301 101.2C227.401 100.7 226.201 100.4 225.401 99.7997C224.001 98.6997 224.201 96.9997 225.701 95.9997C227.201 94.8997 230.301 94.9997 231.801 96.0997C233.401 97.2997 233.401 99.0997 231.601 100.1C230.601 100.6 229.601 100.8 228.301 101.2L228.301 101.2Z" id="Shape" fill="#FEB680" stroke="none" clip-path="url(#clip_1)" />
    <path d="M17 133.7C17 134.4 17 134.8 17 135.3C16.5 135.2 16 135.2 15.5 135.1C15.5 137.2 15.5 139.2 15.5 141.3C13.8 141.3 11.9 141.3 10.3 141.3C10.3 138.8 10.3 136.5 10.3 133.8C12.3 133.4 14.5 133.6 17 133.7L17 133.7ZM12.9 140.9C14.1 138.7 13.9 135.8 12.5 134.9C12.4 136.9 12 138.8 12.9 140.9L12.9 140.9Z" id="Shape" fill="#FEB680" fill-rule="evenodd" stroke="none" clip-path="url(#clip_1)" />
    <path d="M168.1 133.8C168 134.5 167.9 134.8 167.9 135.2C167.4 135.2 166.9 135.1 166.4 135.1C166.4 137.2 166.4 139.2 166.4 141.3C164.7 141.3 162.9 141.3 161.2 141.3C161.2 138.8 161.2 136.4 161.2 133.8C163.3 133.5 165.6 133.5 168.1 133.8L168.1 133.8ZM164 134.7C162.9 136.6 163 139.7 164.3 140.7C164.5 138.7 164.7 136.8 164 134.7L164 134.7Z" id="Shape" fill="#FEB680" fill-rule="evenodd" stroke="none" clip-path="url(#clip_1)" />
    <path d="M132.7 167.7C131.9 167.4 131 167.1 130.2 166.7C125.8 164.9 121.4 164.3 116.9 165.9C116.2 166.2 115.4 166.3 114.6 166.3C114.1 166.3 113.6 166 113.1 165.8C113.7 164.2 114.9 163.8 116 163.6C121.2 162.5 126.1 163.4 130.7 165.9C131.5 166.3 132.2 166.8 132.9 167.3C132.9 167.4 132.8 167.5 132.7 167.7L132.7 167.7Z" id="Shape" fill="#FEB680" stroke="none" clip-path="url(#clip_1)" />
    <path d="M139.5 167.5C139.9 167.1 140.3 166.5 140.8 166.2C145.6 163.5 150.6 162.5 156 163.6C157.7 164 157.9 164.2 158.9 165.7C158.5 165.9 158.1 166.3 157.7 166.3C156.9 166.3 156 166.2 155.2 166C150.6 164.3 146.2 164.9 141.9 166.7C141.1 167 140.3 167.3 139.5 167.5L139.5 167.5Z" id="Shape" fill="#FEB680" stroke="none" clip-path="url(#clip_1)" />
    <path d="M126.1 163.1C124.6 162.9 123.5 162.7 122.4 162.6C118.5 162.1 114.7 162.3 111.4 164.9C110.5 165.6 109.4 166.4 108.1 165.4C107.7 163.9 108.8 163.2 109.8 162.8C111.2 162.2 112.6 161.8 114.1 161.5C117.9 160.9 121.6 161.1 125.3 162.3C125.5 162.5 125.7 162.7 126.1 163.1L126.1 163.1Z" id="Shape" fill="#FEB680" stroke="none" clip-path="url(#clip_1)" />
    <path d="M146 162.7C147.4 162.4 148.7 161.9 150.1 161.7C153.7 161.1 157.4 161.1 160.9 162.3C162.3 162.8 163.9 163.2 164.2 165.5C163.5 165.6 162.9 165.8 162.2 165.8C161.7 165.8 161.3 165.4 160.9 165.1C157.3 162.2 153.2 162 148.9 162.8C148 163 147.1 163.1 146.2 163.2C146.1 163 146 162.9 146 162.7L146 162.7Z" id="Shape" fill="#FEB680" stroke="none" clip-path="url(#clip_1)" />
    <path d="M125.4 141.2C126.1 140.5 126.5 140.2 126.9 139.9C126.9 138.4 126.9 136.8 126.9 135.1C126.6 134.8 126.2 134.4 125.6 133.9C127.1 133.6 127.2 131.6 129.2 131.9C129.2 134.6 129.2 137.2 129.2 139.7C129.9 140.2 130.3 140.5 130.9 141C129 141.7 127.5 141.4 125.4 141.2L125.4 141.2Z" id="Shape" fill="#FEB680" stroke="none" clip-path="url(#clip_1)" />
    <path d="M144.2 4.19999C143.2 4.29999 142.5 3.89999 142.4 2.89999C142.4 1.79999 143.1 1.49998 144 1.29999C145.8 2.39999 146 3.29999 144.9 4.69999C144.5 5.19999 143.9 5.69999 143.4 6.19999C141.3 7.79999 139.2 9.39999 137.1 10.9C137 10.8 136.9 10.7 136.8 10.5C138.1 9.39999 139.4 8.29999 140.7 7.19999C141.9 6.19999 143 5.19999 144.2 4.19999L144.2 4.19999ZM143.2 2.39999C143.2 2.59999 143.2 2.79999 143.3 2.99999C143.9 3.39999 144.4 3.39999 145.2 2.39999C144.3 2.39999 143.7 2.39999 143.2 2.39999L143.2 2.39999Z" id="Shape" fill="#FEB680" fill-rule="evenodd" stroke="none" clip-path="url(#clip_1)" />
    <path d="M70.7002 132.3C69.7002 131.8 69.3002 131.1 69.8002 130.2C70.0002 129.8 70.7002 129.5 71.2002 129.6C71.6002 129.6 72.1002 130.1 72.2002 130.5C72.4002 131.5 71.8002 132.1 70.7002 132.3L70.7002 132.3Z" id="Shape" fill="#FEB680" stroke="none" clip-path="url(#clip_1)" />
    <path d="M34.5005 134.6C33.9005 133.6 33.3005 133.1 33.3005 132.5C33.2005 131.6 33.9005 131.1 34.9005 131.1C35.2005 131.4 35.5005 131.8 36.0005 132.4C35.6005 133 35.3005 133.5 34.5005 134.6L34.5005 134.6Z" id="Shape" fill="#FEB680" stroke="none" clip-path="url(#clip_1)" />
    <path d="M200.8 132.3C199.8 132.3 199.1 131.9 199.1 131C199.1 130.5 199.7 129.9 200.1 129.7C200.4 129.6 201.2 130 201.4 130.3C202 131.1 201.6 131.8 200.8 132.3L200.8 132.3Z" id="Shape" fill="#FEB680" stroke="none" clip-path="url(#clip_1)" />
    <path d="M50.3005 129.5C50.7005 129.9 51.2005 130.3 51.5005 130.6C51.4005 131.7 51.0005 132.4 50.1005 132.3C49.7005 132.3 49.0005 131.8 48.9005 131.4C48.5005 130.5 49.1005 129.9 50.3005 129.5L50.3005 129.5Z" id="Shape" fill="#FEB680" stroke="none" clip-path="url(#clip_1)" />
    <path d="M175.8 131C174.9 131.6 174.4 132.1 173.8 132.2C173 132.3 172.5 131.6 172.6 130.8C172.7 130 173.2 129.4 174 129.6C174.6 129.8 175 130.4 175.8 131L175.8 131Z" id="Shape" fill="#FEB680" stroke="none" clip-path="url(#clip_1)" />
    <path d="M210 132.2C208.9 132.5 208.3 132 207.9 130.7C208.3 130.3 208.8 129.8 209.2 129.4C211.1 130.5 211.1 130.6 210 132.2L210 132.2Z" id="Shape" fill="#FEB680" stroke="none" clip-path="url(#clip_1)" />
    <path d="M266.5 132.9C265.8 132.1 265.2 131.6 265.1 131.1C264.9 130.3 265.5 129.7 266.3 129.7C267.2 129.6 267.7 130.2 267.7 131C267.6 131.4 267.1 132 266.5 132.9L266.5 132.9Z" id="Shape" fill="#FEB680" stroke="none" clip-path="url(#clip_1)" />
    <path d="M108.4 132.5C106.6 131.4 106.6 131.4 107.4 129.8C108.5 129.3 109.1 129.8 109.6 131C109.2 131.4 108.8 131.9 108.4 132.5L108.4 132.5Z" id="Shape" fill="#FEB680" stroke="none" clip-path="url(#clip_1)" />
    <path d="M131.1 6.59999C131.4 5.79999 131.7 4.99999 132.1 4.09999C131.7 3.79999 131.3 3.59999 130.6 2.99999C130.9 3.89999 131 4.39999 131.1 4.99999C130.1 5.09999 129.9 4.49999 129.6 3.59999C130 3.19999 130.5 2.69999 131 2.29999C132.8 3.39999 133.1 3.89999 132.4 5.49999C132.2 5.99999 131.8 6.49999 131.5 6.89999C131.4 6.79999 131.3 6.69999 131.1 6.59999L131.1 6.59999Z" id="Shape" fill="#FEB680" stroke="none" clip-path="url(#clip_1)" />
    <path d="M132 8.29999C132.3 7.79999 132.6 7.39999 133 6.89999C134.2 5.29999 134 3.59999 133.3 1.79999C134.5 2.49999 134.9 3.29999 134.7 4.69999C134.5 6.29999 133.7 7.59999 132.4 8.69999C132.3 8.49999 132.1 8.39999 132 8.29999L132 8.29999Z" id="Shape" fill="#FEB680" stroke="none" clip-path="url(#clip_1)" />
    <path d="M138 7.00001C139.8 4.50001 139.8 4.50001 140.1 2.20001C141.1 2.80001 141.1 3.60001 140.7 4.30001C140.1 5.40001 139.2 6.30001 138.5 7.30001C138.3 7.20001 138.2 7.10001 138 7.00001L138 7.00001Z" id="Shape" fill="#FEB680" stroke="none" clip-path="url(#clip_1)" />
    <path d="M131.6 8.69999C131.7 8.59999 131.9 8.39999 132 8.29999C132.1 8.39999 132.2 8.49999 132.4 8.69999C132.3 8.79999 132.1 8.99999 132 9.09999C131.8 8.99999 131.7 8.79999 131.6 8.69999L131.6 8.69999Z" id="Shape" fill="#FEB680" stroke="none" clip-path="url(#clip_1)" />
    <path d="M81.9001 158.1L81.8 158C81.8 158 81.9001 158 81.9001 158.1L81.9001 158.1Z" id="Shape" fill="#FEB680" stroke="none" clip-path="url(#clip_1)" />
    <path d="M81.8999 158C82.0999 158.1 82.1999 158.2 82.3999 158.3C82.2999 158.4 82.1999 158.5 82.1999 158.5C82.0999 158.4 81.9999 158.3 81.8999 158L81.8999 158Z" id="Shape" fill="#FEB680" stroke="none" clip-path="url(#clip_1)" />
    <path d="M144.7 59.7C145.2 59.3 145.7 59 146.3 58.5C146.3 54.7 146.3 50.8 146.3 46.9C145.8 46.5 145.4 46.1 144.9 45.6C145 45.5 145.1 45.4 145.2 45.3C147.2 45.1 149.2 45 151.2 44.8C151.6 44.8 152.1 44.8 152.5 44.8C154.7 44.9 156.3 45.9 156.7 47.5C157.1 49 156.3 50.3 154.3 51.5C154.1 51.6 154 51.8 153.7 51.9C154.3 52.2 154.9 52.5 155.4 52.8C156.7 53.5 157.4 54.6 157.4 56.1C157.4 57.7 156.4 58.8 155.1 59.5C154.6 59.8 154 60 153.5 60C150.6 60 147.7 60 144.7 60C144.7 60 144.7 59.9 144.7 59.7L144.7 59.7ZM150 58.9C151.5 59.3 152.6 59.2 153.4 58C154.2 56.8 154.1 55.5 153.4 54.3C152.7 53.1 151.5 52.6 150 53C150 55 150 56.9 150 58.9L150 58.9ZM150 51.6C152.4 51.6 152.9 51.1 153.5 48.4C152.7 45.9 152.3 45.6 150 46.4C150 48.1 150 49.9 150 51.6L150 51.6Z" id="Shape" fill="#FEB680" fill-rule="evenodd" stroke="none" clip-path="url(#clip_1)" />
    <path d="M140.7 60.1C137.2 57.3 134.7 53.5 131.1 50.1C131.2 53.2 130.7 55.9 131.6 58.5C132.2 58.9 132.9 59.3 134 60C131.6 60 129.7 60 127.8 60C127.8 59.9 127.7 59.8 127.7 59.7C128.3 59.4 128.9 59.1 129.6 58.7C129.7 58 129.9 57.4 129.9 56.7C129.9 55.1 129.8 53.5 129.9 52C130 49.5 129.9 47.1 127.2 45.6C128.6 45.6 129.9 45.6 131.5 45.6C134.2 48.5 137 51.6 139.8 54.6C140 54.6 140.1 54.5 140.3 54.5C140.2 52 140.1 49.5 140 47.2C139.1 46.7 138.5 46.3 137.8 46C139.2 45.4 140.4 45.3 143.6 45.7C142.8 46.3 142.2 46.8 141.3 47.4C141.3 51.5 141.3 55.8 141.3 60C141.1 60 140.9 60.1 140.7 60.1L140.7 60.1Z" id="Shape" fill="#FEB680" stroke="none" clip-path="url(#clip_1)" />
    <path d="M126.2 60C124.2 60 121.9 60 119.3 60C120 59.4 120.4 59.1 121.1 58.6C120.7 57.5 120.4 56.3 120 55C118.5 55 117.1 55 115.4 55C115.1 56.1 114.8 57.2 114.5 58.3C115.1 58.8 115.6 59.2 116.1 59.6C116 59.7 116 59.9 115.9 59.9C114.4 59.9 112.9 59.9 111.3 59.9C114.9 56.1 115.3 50.9 117.5 46.6C117.8 46 118.2 45.3 118.8 44.2C119.4 45.3 119.7 45.9 120 46.5C121.3 49.7 122.6 53 124 56.2C124.4 57.6 125.3 58.7 126.2 60L126.2 60ZM117.5 49.2C116.9 50.9 116.4 52.1 115.9 53.4C117.1 53.4 118.1 53.4 119.2 53.4C118.6 52 118.2 50.9 117.5 49.2L117.5 49.2Z" id="Shape" fill="#FEB680" fill-rule="evenodd" stroke="none" clip-path="url(#clip_1)" />
    <path d="M127.3 22.1003C126.6 21.9004 126.1 21.7003 125.6 21.5004C124 20.8004 123.6 19.6003 124.3 18.0004C125.3 16.0003 127.9 14.8003 130.1 15.3003C132.4 15.8003 134.1 17.8004 134.2 20.1004C134.3 22.4004 132.5 25.0004 130.5 25.5003C129 25.9003 127.6 25.0004 127.4 23.5004C127.3 23.2003 127.3 22.8004 127.3 22.1003L127.3 22.1003ZM131.3 24.3004C130.9 23.3004 130.6 22.4004 130.3 21.5004C130 20.5004 129.7 19.7003 128.6 19.2003C127.6 18.8003 126.7 18.1003 125.6 17.5004C125.3 18.1003 125 18.7003 124.8 19.2003C125 21.3003 127.2 20.5004 127.9 21.7003C128.4 25.2003 128.8 25.5003 131.3 24.3004L131.3 24.3004Z" id="Shape" fill="#FEB680" fill-rule="evenodd" stroke="none" clip-path="url(#clip_1)" />
  </g>
</svg>