<?xml version="1.0" encoding="utf-8"?>
<svg width="95.501526px" height="100px" viewBox="0 0 95.501526 100" version="1.1" xmlns:xlink="http://www.w3.org/1999/xlink" xmlns="http://www.w3.org/2000/svg">
  <path d="M63.4886 43.9758C76.7242 43.9758 87.4969 54.7484 87.4969 67.9871C87.4969 81.2258 76.7242 91.9984 63.4886 91.9984C50.2502 91.9984 39.4774 81.2258 39.4774 67.9871C39.4774 54.7484 50.2502 43.9758 63.4886 43.9758M63.4886 35.9742C45.8068 35.9742 31.4758 50.3053 31.4758 67.9871C31.4758 85.6689 45.8068 100 63.4886 100C81.1676 100 95.5015 85.6689 95.5015 67.9871C95.5015 50.3053 81.1676 35.9742 63.4886 35.9742L63.4886 35.9742ZM25.9521 0C11.618 0 0 5.65802 0 12.6404L0 19.391C0 26.3733 11.618 32.0313 25.9521 32.0313C40.2801 32.0313 51.9012 26.3733 51.9012 19.3908L51.9012 12.6404C51.9012 5.65802 40.2801 0 25.9521 0L25.9521 0ZM25.9521 5.24902C38.5865 5.24902 46.6492 10.1014 46.6492 12.6404C46.6492 15.1795 38.5865 20.0318 25.9521 20.0318C13.3117 20.0318 5.25214 15.1795 5.25214 12.6404C5.25214 10.1014 13.3117 5.24902 25.9521 5.24902L25.9521 5.24902ZM25.949 42.1875C30.7494 42.1875 35.2448 41.5467 39.1022 40.4418C35.3881 43.7072 32.3486 47.7416 30.2062 52.2705C28.8268 52.3805 27.4047 52.4474 25.949 52.4474C11.6211 52.4474 0 46.7803 0 39.801L0 31.8664C0 31.7383 0.0976563 31.6223 0.225769 31.61C0.289856 31.5916 0.353943 31.6223 0.399841 31.6893C0.369324 31.6893 0.399841 31.7809 0.576782 32.2143C3.08832 37.915 13.4918 42.1875 25.949 42.1875L25.949 42.1875ZM26.6662 67.9871C26.6662 69.5435 26.7639 71.0633 26.9684 72.5648C26.6357 72.5832 26.2969 72.5832 25.949 72.5832C11.6211 72.5832 0 66.9312 0 59.9551L0 51.9961C0 51.8861 0.0976563 51.7764 0.225769 51.758C0.329529 51.7457 0.396667 51.8068 0.445496 51.8801C0.384399 51.8008 0.320313 51.758 0.576782 52.3683C3.08832 58.0629 13.4918 62.3416 25.949 62.3416C26.3336 62.3416 26.7334 62.3416 27.1149 62.3049C26.8096 64.1633 26.6662 66.0523 26.6662 67.9871L26.6662 67.9871ZM35.4857 91.8517C32.5408 92.4316 29.3242 92.7338 25.949 92.7338C11.6211 92.7338 0 87.085 0 80.0904L0 72.1498C0 72.0217 0.0976563 71.924 0.225769 71.9117C0.323425 71.8934 0.417969 71.9422 0.448669 72.0399C0.384583 71.9605 0.305298 71.881 0.576782 72.5037C3.08832 78.2166 13.4918 82.4891 25.949 82.4891C27.1789 82.4891 28.4117 82.4402 29.5959 82.3609C31.0668 85.8338 33.0687 89.0381 35.4857 91.8517L35.4857 91.8517ZM69.5342 68.5791C70.3246 68.3074 70.2758 67.978 70.8465 67.5903C71.4172 67.1996 71.8871 66.7662 72.2625 66.284C72.6319 65.8079 72.9065 65.2952 73.0834 64.7459C73.2604 64.1967 73.3489 63.6229 73.3489 63.0247C73.3489 61.9749 73.1719 61.0287 72.8178 60.1895C72.4637 59.3533 71.9084 58.6422 71.1454 58.0502C70.3854 57.4582 69.412 57.0065 68.2278 56.6891C67.294 56.4389 66.2106 56.2861 64.9776 56.2344L64.9776 53.4481L60.937 53.4481L60.937 56.2068L55.8436 56.2068L54.1711 56.2068L54.1711 58.2913C54.1711 58.8984 54.1284 59.2709 54.7205 59.399C54.7725 59.4051 54.8457 59.4174 54.9402 59.4358C55.0379 59.4541 55.2119 59.4846 55.4682 59.5334C55.7246 59.5762 55.3981 59.6371 55.8436 59.7195L55.8436 78.2895C55.3981 78.3658 55.7246 78.4299 55.4682 78.4727C55.2117 78.5184 55.0379 78.552 54.9402 78.5673C54.8457 78.5825 54.7725 78.5977 54.7205 78.6069C54.1285 78.735 54.1711 79.1012 54.1711 79.7147L54.1711 81.793L55.8436 81.793L60.937 81.793L60.937 84.3809L64.9776 84.3809L64.9776 81.793L65.5026 81.793C66.9887 81.793 68.3071 81.6038 69.4637 81.2255C70.6204 80.8531 71.5909 80.3282 72.3813 79.663C73.1749 78.9977 73.7729 78.2012 74.191 77.2825C74.603 76.3608 74.8075 75.3598 74.8075 74.2735C74.8077 71.2646 73.0499 69.3727 69.5342 68.5791L69.5342 68.5791ZM60.6018 59.8908L63.9373 59.8908C65.5426 59.8908 66.7205 60.1746 67.4742 60.7422C68.2311 61.3068 68.6096 62.2559 68.6096 63.5865C68.6096 64.8745 68.1885 65.8143 67.3522 66.4002C66.5129 66.9922 65.2861 67.2852 63.6717 67.2852L60.6016 67.2852L60.6016 59.8908L60.6018 59.8908ZM69.2688 75.6715C69.1071 76.1477 68.8477 76.5565 68.4907 76.9106C68.1276 77.2647 67.6514 77.5485 67.0533 77.759C66.4583 77.9727 65.7197 78.0795 64.8348 78.0795L60.602 78.0795L60.602 70.5784L64.8196 70.5784C65.6557 70.5784 66.3699 70.6608 66.9588 70.8256C67.5477 70.9905 68.033 71.2285 68.4084 71.5428C68.7869 71.8571 69.0645 72.2324 69.2385 72.675C69.4186 73.1176 69.5071 73.6151 69.5071 74.1703C69.5068 74.701 69.4244 75.2014 69.2688 75.6715L69.2688 75.6715Z" id="Group" fill="#FEB680" fill-rule="evenodd" stroke="none" />
</svg>