<?xml version="1.0" encoding="utf-8"?>
<svg width="100px" height="100px" viewBox="0 0 100 100" version="1.1" xmlns:xlink="http://www.w3.org/1999/xlink" xmlns="http://www.w3.org/2000/svg">
  <path d="M93.2941 42.3489L93.2941 98.3218C93.2941 99.2392 92.7599 100 92.1156 100L81.9537 100C81.3094 100 80.7752 99.2451 80.7752 98.3218L80.7752 56.6873C82.8494 53.7979 85.399 50.3027 88.0004 46.737L92.1053 41.1043C92.4792 41.5609 92.8766 41.9769 93.2941 42.3489L93.2941 42.3489ZM38.4791 26.0107L46.3031 16.2619C52.2484 24.557 58.0127 34.584 63.898 42.8652L85.3533 12.1639L78.4434 2.32217L100 0L98.7879 31.2857L92.1594 21.8429C87.4008 28.709 76.1471 43.8402 71.3824 50.627C65.3639 59.2003 62.4894 59.3549 56.4685 50.7794L46.3031 34.6661L44.3293 37.159C44.0242 36.2186 43.6894 35.2983 43.326 34.401C42.5701 32.5361 41.7025 30.8051 40.741 29.2348L40.7541 29.2187C40.0715 28.1021 39.3103 27.0286 38.4791 26.0108L38.4791 26.0107ZM24.6675 26.3415C22.4287 26.122 20.1815 26.5345 18.0548 27.5551L18.0097 27.5791C15.897 28.6026 13.9452 30.2044 12.264 32.2944C10.5701 34.4007 9.18417 36.9616 8.1853 39.8309C7.18866 42.693 6.59842 45.8071 6.44836 48.9947C6.33578 51.346 6.46301 53.7081 6.82611 56.0074C7.14227 58.0061 7.63522 59.9395 8.29312 61.7614L0.255005 72.7214C-0.0727234 73.1651 -0.0863647 73.903 0.224548 74.3707L4.77515 81.1494C5.08646 81.6135 5.60275 81.631 5.92923 81.1887L13.6644 70.5541C14.8393 71.7378 16.115 72.7041 17.4609 73.4299C19.0305 74.2734 20.6788 74.7835 22.3527 74.9437C24.5904 75.1627 26.8365 74.7507 28.9623 73.7314C31.0935 72.7088 33.0624 71.0981 34.7564 68.9913C36.4497 66.8854 37.8354 64.3253 38.8344 61.4571C39.8066 58.672 40.4162 55.5762 40.5728 52.2899C40.7292 49.0036 40.4185 45.8188 39.7209 42.8719L39.7041 42.8076C38.9843 39.7998 37.8589 37.0212 36.391 34.628C34.9147 32.2144 33.1182 30.2399 31.1047 28.8178C29.1494 27.4331 26.975 26.5643 24.6675 26.3415L24.6675 26.3415ZM21.8728 60.1371C20.9718 60.0476 19.8244 59.7313 18.941 59.3941L18.941 55.4477C20.1136 55.5829 23.0013 55.9337 24.066 55.5907C24.8648 55.3323 24.7763 53.5358 24.2502 53.3108C23.6168 53.0301 22.291 53.367 21.2248 52.9272C20.6806 52.7024 20.2214 52.3636 19.8472 51.911C19.465 51.4465 19.1789 50.8312 18.991 50.0668C18.8076 49.3229 18.7152 48.437 18.7152 47.4097L18.7152 46.0572C18.7152 43.1656 19.8347 41.4431 21.8728 40.958L21.8728 38.8851L24.7763 38.8851L24.7763 40.8773C25.6769 40.9797 26.7976 41.3074 27.6913 41.6159L27.6913 45.5687C26.4728 45.416 24.1617 45.1056 23.0058 45.4046C22.9112 45.4278 22.819 45.4682 22.7316 45.5248C22.257 45.8452 22.2759 47.694 22.8574 47.9129C23.2376 48.055 24.0175 47.9799 24.4333 47.9799C24.8541 47.9799 25.2443 48.0386 25.6025 48.1541C25.9638 48.2712 26.291 48.4484 26.5808 48.6843C27.7968 49.6712 28.3332 51.412 28.3332 53.3345L28.3332 54.6883C28.3332 55.4917 28.2826 56.2088 28.183 56.8358C27.7859 59.3229 26.4314 59.8595 24.7763 60.1174L24.7763 62.3531L21.8728 62.3531L21.8728 60.1371L21.8728 60.1371ZM14.5355 36.0007C15.8791 34.332 17.4478 33.034 19.1535 32.2165C20.799 31.4265 22.5839 31.0754 24.4333 31.2537C26.2826 31.4323 28.0187 32.1241 29.5726 33.2221C31.1867 34.3617 32.6169 35.9487 33.7894 37.8614L33.831 37.924C34.9916 39.8354 35.8806 42.0497 36.4484 44.4438L36.4633 44.5019C37.0064 46.8261 37.2478 49.3477 37.1236 51.9581C36.9984 54.5893 36.5132 57.0611 35.7433 59.2729C34.9434 61.5605 33.8359 63.6022 32.4836 65.2819C31.1406 66.9518 29.5718 68.25 27.8662 69.0681C26.2224 69.8568 24.4365 70.2083 22.5869 70.0298C20.74 69.8514 19.0058 69.1605 17.4515 68.0623L17.4109 68.0358C14.1925 65.7465 11.7218 61.6943 10.5726 56.8416L10.5578 56.7838C10.0146 54.4591 9.77319 51.9377 9.8974 49.3266C10.0228 46.6934 10.5083 44.2215 11.2794 42.0078C12.0772 39.7203 13.1836 37.679 14.5355 36.0007L14.5355 36.0007ZM31.9664 80.9082L31.9664 98.3218C31.9664 99.2417 31.4339 100 30.7878 100L20.6259 100C19.9798 100 19.4474 99.2451 19.4474 98.3218L19.4474 82.7175C20.2597 82.9233 21.1009 83.071 21.9685 83.155C23.4408 83.2963 24.9345 83.2209 26.4263 82.9472C27.9114 82.6781 29.3742 82.2011 30.7935 81.523C31.188 81.3338 31.5789 81.1294 31.9664 80.9082L31.9664 80.9082ZM52.4088 63.9987L52.4088 98.3218C52.4088 99.2409 51.8752 100 51.2299 100L41.0683 100C40.423 100 39.8894 99.2451 39.8894 98.3218L39.8894 73.3751C41.5578 70.938 42.9486 68.1445 44.0115 65.0958C44.6792 63.1862 45.2128 61.1874 45.6046 59.1285C45.8575 57.7926 46.0496 56.4348 46.1794 55.0636L48.8923 59.3616C49.0051 59.5402 49.1212 59.7144 49.2406 59.884C50.3232 61.4259 51.3726 62.797 52.4087 63.9987L52.4088 63.9987ZM72.851 66.5546L72.851 98.3218C72.851 99.2409 72.318 100 71.6726 100L61.5105 100C60.8654 100 60.3322 99.2451 60.3322 98.3218L60.3322 69.8709C61.5186 70.2462 62.7474 70.4225 64.043 70.4C67.2818 70.3441 70.0811 69.0592 72.851 66.5546L72.851 66.5546Z" id="Shape" fill="#14096D" fill-rule="evenodd" stroke="none" />
</svg>