<?xml version="1.0" encoding="utf-8"?>
<svg width="100px" height="100px" viewBox="0 0 100 100" version="1.1" xmlns:xlink="http://www.w3.org/1999/xlink" xmlns="http://www.w3.org/2000/svg">
  <defs>
    <path d="M100 0L100 0L100 100L0 100L0 0L100 0Z" id="path_1" />
    <clipPath id="clip_1">
      <use xlink:href="#path_1" clip-rule="evenodd" fill-rule="evenodd" />
    </clipPath>
  </defs>
  <g id="chart-icon" clip-path="url(#clip_1)">
    <path d="M100 0L100 0L100 100L0 100L0 0L100 0Z" id="chart-icon" fill="none" stroke="none" />
    <path d="M15.7796 60.8826L15.7796 98.2911C15.7707 99.2343 15.1079 99.9949 14.2904 100L1.48926 100C0.669931 100 0.00447743 99.2364 9.70128e-08 98.2911L9.70128e-08 60.8826L15.7796 60.8826ZM0 48.6667L33.846 14.4977C41.3411 22.9484 48.6084 33.2113 56.0221 41.662L83.0648 10.3286L74.3571 0.262911L100 0L100 29.8404L91.6423 20.1972C85.6445 27.2113 71.46 42.6573 65.4622 49.5869C57.8695 58.338 54.2481 58.4977 46.6634 49.7465L33.846 33.2958L18.8232 48.6667L0 48.6667ZM93.0746 36.3286L93.0746 98.3005C93.0657 99.2401 92.4078 99.9992 91.5934 100.009L78.7842 100.009C77.9699 99.9941 77.3155 99.2307 77.3112 98.2911L77.3112 53.7934C79.7526 51.061 82.6009 47.8873 85.5062 44.6573L91.569 37.9249C92.0518 37.3625 92.5598 36.8297 93.0909 36.3286L93.0746 36.3286ZM67.3096 64.169L67.3096 98.2911C67.3007 99.2343 66.6378 99.9949 65.8203 100L53.0192 100C52.2017 99.9949 51.5388 99.2343 51.5299 98.2911L51.5299 67.8122C53.0559 68.2395 54.6231 68.4383 56.193 68.4038C60.1866 68.3368 64.0665 66.8588 67.3096 64.169L67.3096 64.169ZM41.5446 61.3521L41.5446 98.2441C41.5357 99.1873 40.8728 99.948 40.0553 99.953L27.2461 99.953C26.4299 99.9479 25.7694 99.1858 25.765 98.2441L25.765 58.216C26.0254 57.9906 26.2777 57.7559 26.5218 57.5117L32.9183 50.939L38.0778 57.5117L38.4766 57.9906C39.5182 59.1987 40.5409 60.3005 41.5446 61.2958L41.5446 61.3521Z" id="Shape" fill="#0E0268" fill-rule="evenodd" stroke="none" />
  </g>
</svg>