<?xml version="1.0" encoding="utf-8"?>
<!-- Generator: Adobe Illustrator 25.4.1, SVG Export Plug-In . SVG Version: 6.00 Build 0)  -->
<svg version="1.1" id="instagram" xmlns="http://www.w3.org/2000/svg" xmlns:xlink="http://www.w3.org/1999/xlink" x="0px" y="0px"
	 viewBox="0 0 102 102" style="enable-background:new 0 0 102 102;" xml:space="preserve">
<style type="text/css">
	.st0{fill:#0E9938;}
	.st1{fill:#FFFFFF;}
</style>
<path class="st0" d="M25.9,101.6c-3.9,0-7.9-0.8-11.6-2.1c-2.7-1-5.1-2.6-7.2-4.7c-2.1-2-3.7-4.4-4.7-7.2c-1.3-3.6-2-7.5-2-11.5
	C0.1,69.6,0,67.6,0,51s0.1-18.6,0.4-25.1c0-3.9,0.8-7.8,2.1-11.5c1-2.7,2.6-5.1,4.7-7.2c2-2.1,4.5-3.7,7.2-4.7
	C18.1,1.1,22,0.4,26,0.4C32.4,0.1,34.4,0,51,0s18.6,0.1,25.1,0.4c3.9,0,7.9,0.8,11.6,2.1c2.7,1,5.1,2.6,7.2,4.7
	c2.1,2,3.7,4.5,4.7,7.2c1.4,3.7,2.1,7.6,2.1,11.6c0.3,6.6,0.4,8.5,0.4,25.1s-0.1,18.6-0.4,25.1c0,3.9-0.8,7.9-2.1,11.6
	c-2.1,5.4-6.4,9.7-11.8,11.8c-3.7,1.4-7.6,2.1-11.6,2.1c-6.6,0.3-8.5,0.4-25.1,0.4S32.4,101.9,25.9,101.6"/>
<g>
	<path class="st1" d="M65.5,88.8c-1.5,0-3.1-0.3-4.7-0.6c-4.2-0.9-8.1-2.5-11.8-4.8c-3.3-2.1-6.6-4.2-9.7-6.7
		c-5.8-4.8-11.1-10.1-15.4-16.3c-3.1-4.5-5.8-9.3-7.4-14.5c-0.9-2.8-1.5-5.5-1.4-8.4c0.3-5,1.9-9.5,5.7-12.9c1.2-1,2.6-1.9,4.2-2.5
		c0.6-0.2,1.2-0.3,1.9-0.3c1,0,2.1,0.2,3.1,0.3c1.3,0.2,2.4,0.9,2.9,2.1c0.5,1,0.9,1.9,1.1,2.9c1.2,3.5,2.5,6.9,3.6,10.5
		c0.4,1,0.6,2.2,0.3,3.3c-0.2,0.7-0.5,1.2-1,1.7c-1.4,1.3-2.8,2.8-4.2,4.1c-0.5,0.5-0.9,1.1-1,1.9c0,0.4,0,0.8,0.2,1.1
		c1,2,2,4,3.3,5.8c3,4.5,6.8,8.3,11.1,11.5c2.1,1.6,4.4,3,6.7,4.3c1.2,0.8,2.5,0.6,3.5-0.3c0.7-0.5,1.2-1.1,1.8-1.7
		c0.7-0.7,1.3-1.3,2-2.1c1.3-1.5,2.9-2,4.9-1.4c2.3,0.8,4.5,1.5,6.7,2.3c2.1,0.7,4.2,1.4,6.3,2.1c1.8,0.6,2.9,1.8,3.1,3.8
		c0.1,0.9,0.2,1.6,0.3,2.5c0.1,1.6-0.4,3-1.1,4.4c-2.1,3.4-5.2,5.7-9,6.9C69.7,88.4,68.1,88.7,65.5,88.8z"/>
	<path class="st1" d="M41.2,20.1c-0.3,0-1,0-1.5,0c-1,0-1.8-0.7-1.8-1.6c-0.1-1,0.7-1.7,1.6-1.7c1.2,0,2.5,0,3.8,0.1
		c3.4,0.3,6.8,0.9,10.3,1.8C61.5,21,68.3,25,74.2,30.7c5.8,5.8,9.9,12.6,12,20.6c1,3.6,1.4,7.2,1.4,11c0,1-0.8,1.8-1.8,1.8
		S84,63.4,84,62.4c-0.3-11-4.2-20.5-11.7-28.4C65.5,26.8,57,22.4,47.2,20.8c-1-0.2-1.9-0.3-2.9-0.4C43.4,20.3,42.5,20.2,41.2,20.1z"
		/>
	<path class="st1" d="M46,27.7c5.8,0.3,11.2,1.8,16.2,5c5.8,3.7,9.9,8.7,12.3,15.3c1,3,1.6,6.1,1.6,9.3c0,1-0.8,1.8-1.8,1.8
		c-1,0-1.8-0.8-1.8-1.8c-0.1-7-2.7-13-7.5-18c-4.8-4.8-10.6-7.4-17.3-8.2c-1-0.1-1.8-0.1-2.7-0.1c-0.8,0-1.4-0.3-1.8-1
		c-0.6-1.1,0.3-2.4,1.6-2.5C45.2,27.6,45.6,27.7,46,27.7z"/>
	<path class="st1" d="M48.2,38.1c4.5,0.2,8.4,1.7,11.6,4.8c2.9,2.8,4.7,6.2,5.1,10.2c0.1,0.6,0.1,1.1,0.1,1.6c0,1-0.8,1.8-1.8,1.8
		c-1,0-1.8-0.8-1.8-1.7c0-6.6-5-12-11.4-13c-0.9-0.1-1.6-0.1-2.5-0.1c-1,0-1.8-0.8-1.8-1.7s0.8-1.7,1.7-1.7
		C47.7,38.1,48,38.1,48.2,38.1z"/>
</g>
</svg>
