<?xml version="1.0" encoding="utf-8"?>
<!-- Generator: Adobe Illustrator 25.4.1, SVG Export Plug-In . SVG Version: 6.00 Build 0)  -->
<svg version="1.1" id="Layer_1" xmlns="http://www.w3.org/2000/svg" xmlns:xlink="http://www.w3.org/1999/xlink" x="0px" y="0px"
	 viewBox="0 0 100 100" style="enable-background:new 0 0 100 100;" xml:space="preserve">
<style type="text/css">
	.st0{fill-rule:evenodd;clip-rule:evenodd;fill:url(#SVGID_1_);}
	.st1{fill-rule:evenodd;clip-rule:evenodd;fill:#803429;}
	.st2{fill:url(#SVGID_00000026159145964000943540000002093780728688336828_);}
	.st3{fill:#FFFFFF;}
	.st4{fill:#005CA9;}
	.st5{fill:#FF0000;}
	.st6{fill-rule:evenodd;clip-rule:evenodd;fill:#762D0B;}
	.st7{fill-rule:evenodd;clip-rule:evenodd;fill:url(#SVGID_00000116950277075486201960000015448718323453304985_);}
	.st8{fill:#164194;}
</style>
<g>
	<g>
		<path class="st4" d="M99.5,50C99.5,22.6,77.4,0.5,50,0.5S0.5,22.6,0.5,50c0,24.7,18.1,45.2,41.8,48.9V64.3H29.7V50h12.6V39.1
			c0-12.4,7.4-19.3,18.7-19.3c5.4,0,11.1,1,11.1,1V33h-6.2c-6.2,0-8.1,3.8-8.1,7.7V50h13.7l-2.2,14.3H57.7v34.6
			C81.4,95.2,99.5,74.7,99.5,50z"/>
		<path class="st3" d="M69.3,64.3L71.5,50H57.7v-9.3c0-3.9,1.9-7.7,8.1-7.7h6.2V20.8c0,0-5.7-1-11.1-1c-11.3,0-18.7,6.9-18.7,19.3
			V50H29.7v14.3h12.6v34.6c2.5,0.4,5.1,0.6,7.7,0.6c2.6,0,5.2-0.2,7.7-0.6V64.3H69.3z"/>
	</g>
</g>
</svg>
