<?xml version="1.0" encoding="utf-8"?>
<!-- Generator: Adobe Illustrator 25.4.1, SVG Export Plug-In . SVG Version: 6.00 Build 0)  -->
<svg version="1.1" id="Layer_1" xmlns="http://www.w3.org/2000/svg" xmlns:xlink="http://www.w3.org/1999/xlink" x="0px" y="0px"
	 viewBox="0 0 100 100" style="enable-background:new 0 0 100 100;" xml:space="preserve">
<style type="text/css">
	.st0{fill:#D50012;}
	.st1{fill:#FFFFFF;}
</style>
<circle class="st0" cx="50" cy="50" r="48.6"/>
<g>
	<path class="st1" d="M47.3,62.4c-0.8,3.2-1.7,6.4-2.5,9.6c-1.3,5.5-4.2,10.1-7.6,14.5c-0.2,0.2-0.5,0.3-0.8,0.5
		c-0.2-0.3-0.5-0.7-0.5-1c-1-6.3-0.7-12.4,0.9-18.6c1.6-6,2.9-12,4.3-18c0.1-0.6,0.1-1.4-0.1-2c-1.2-3.8-1.4-7.6,0.4-11.3
		c0.7-1.4,1.8-2.8,3.1-3.8c1.9-1.5,4.1-1.7,6.3-0.6c2.2,1.1,3,3.1,2.9,5.3c-0.1,2-0.5,3.9-1,5.8c-0.7,2.8-1.6,5.5-2.4,8.3
		c-0.8,2.6-0.5,5,1.5,6.9c2.2,2,4.8,2.2,7.5,1.4c2.3-0.7,4-2.2,5.5-4.1c2.6-3.5,3.8-7.4,4.4-11.6c0.5-3,0.7-6.1,0.1-9.2
		c-1.2-6.1-4.9-10-10.8-11.5c-6.5-1.7-12.8-1-18.4,3c-6.1,4.3-9.3,12.6-7.5,19.4c0.4,1.6,1.5,3.1,2.3,4.7c0.2,0.5,0.7,1,0.6,1.5
		c-0.2,1.5-0.6,3-1.1,4.5c-0.3,0.9-1.2,1-2.1,0.6c-3.1-1.3-5.3-3.6-6.5-6.7c-3.1-7.5-2.3-14.8,1.9-21.6C32.2,21,39.1,17,47.5,15.6
		c6.8-1.1,13.4-0.5,19.6,2.7c8.8,4.7,13.5,13.5,12.6,23.5c-0.5,5.4-1.7,10.5-4.6,15.1c-3.4,5.5-8.2,9.2-14.8,10.1
		c-5,0.7-9.4-0.3-12.7-4.5C47.6,62.4,47.5,62.4,47.3,62.4z"/>
</g>
</svg>
