<?xml version="1.0" encoding="utf-8"?>
<!-- Generator: Adobe Illustrator 25.4.1, SVG Export Plug-In . SVG Version: 6.00 Build 0)  -->
<svg version="1.1" id="Layer_1" xmlns="http://www.w3.org/2000/svg" xmlns:xlink="http://www.w3.org/1999/xlink" x="0px" y="0px"
	 viewBox="0 0 100 100" style="enable-background:new 0 0 100 100;" xml:space="preserve">
<style type="text/css">
	.st0{fill-rule:evenodd;clip-rule:evenodd;fill:url(#SVGID_1_);}
	.st1{fill-rule:evenodd;clip-rule:evenodd;fill:#803429;}
	.st2{fill:url(#SVGID_00000098902868660157352910000001566384626824468901_);}
	.st3{fill:#FFFFFF;}
	.st4{fill:#005CA9;}
	.st5{fill:#FF0000;}
	.st6{fill-rule:evenodd;clip-rule:evenodd;fill:#762D0B;}
	.st7{fill-rule:evenodd;clip-rule:evenodd;fill:url(#SVGID_00000179606162924477292720000002651155716182080399_);}
	.st8{fill:#164194;}
</style>
<g>
	<circle class="st8" cx="50" cy="50" r="49.1"/>
	<g>
		<path class="st3" d="M37.8,52.4c0.6,16.6,6.7,28,12.2,28c5.5,0,11.6-11.4,12.2-28H37.8z"/>
		<path class="st3" d="M50,19.6c-5.5,0-11.6,11.4-12.2,28h24.3C61.6,30.9,55.5,19.6,50,19.6z"/>
		<path class="st3" d="M67,47.6h15.7C81.7,33.1,71.2,21.2,57.5,18C62.9,23.2,66.6,34.1,67,47.6z"/>
		<path class="st3" d="M67,52.4c-0.4,13.4-4.1,24.4-9.6,29.6c13.8-3.2,24.2-15.1,25.3-29.6H67z"/>
		<path class="st3" d="M33,52.4H17.2C18.3,66.9,28.8,78.8,42.5,82C37.1,76.8,33.4,65.9,33,52.4z"/>
		<path class="st3" d="M33,47.6c0.4-13.4,4.1-24.4,9.6-29.6c-13.8,3.2-24.2,15.1-25.3,29.6H33z"/>
	</g>
</g>
</svg>
