<?xml version="1.0" encoding="utf-8"?>
<!-- Generator: Adobe Illustrator 25.4.1, SVG Export Plug-In . SVG Version: 6.00 Build 0)  -->
<svg version="1.1" id="Layer_1" xmlns="http://www.w3.org/2000/svg" xmlns:xlink="http://www.w3.org/1999/xlink" x="0px" y="0px"
	 viewBox="0 0 100 100" style="enable-background:new 0 0 100 100;" xml:space="preserve">
<style type="text/css">
	.st0{fill-rule:evenodd;clip-rule:evenodd;fill:url(#SVGID_1_);}
	.st1{fill-rule:evenodd;clip-rule:evenodd;fill:#803429;}
	.st2{fill:url(#SVGID_00000154401415345125932370000004184789094782774689_);}
	.st3{fill:#FFFFFF;}
	.st4{fill:#005CA9;}
	.st5{fill:#FF0000;}
	.st6{fill-rule:evenodd;clip-rule:evenodd;fill:#762D0B;}
	.st7{fill-rule:evenodd;clip-rule:evenodd;fill:url(#SVGID_00000168091566388716049380000001420825850171678606_);}
	.st8{fill:#164194;}
</style>
<g>
	<circle class="st5" cx="50" cy="50" r="49.1"/>
	<path class="st3" d="M76.3,43c0-6.5-5.3-11.8-11.8-11.8H34.3c-6.5,0-11.8,5.3-11.8,11.8v14c0,6.5,5.3,11.8,11.8,11.8h30.2
		c6.5,0,11.8-5.3,11.8-11.8V43z M58.6,51.1L45,57.7c-0.5,0.3-2.3-0.1-2.3-0.7V43.3c0-0.6,1.8-1,2.3-0.7l12.9,7
		C58.5,50,59.1,50.8,58.6,51.1z"/>
</g>
</svg>
