<?xml version="1.0" encoding="utf-8"?>
<svg width="159px" height="165px" viewBox="0 0 159 165" version="1.1" xmlns:xlink="http://www.w3.org/1999/xlink" xmlns="http://www.w3.org/2000/svg">
  <defs>
    <path d="M159 0L159 0L159 165L0 165L0 0L159 0Z" id="path_1" />
    <path d="M158.998 0L158.998 0L158.998 164.991L0 164.991L0 0L158.998 0L158.998 0Z" id="path_2" />
    <clipPath id="clip_1">
      <use xlink:href="#path_1" clip-rule="evenodd" fill-rule="evenodd" />
    </clipPath>
    <clipPath id="clip_2">
      <use xlink:href="#path_2" clip-rule="evenodd" fill-rule="evenodd" />
    </clipPath>
  </defs>
  <g id="discount" clip-path="url(#clip_1)">
    <path d="M159 0L159 0L159 165L0 165L0 0L159 0Z" id="discount" fill="none" stroke="none" />
    <g id="Mask-Group">
      <path d="M158.998 0L158.998 0L158.998 164.991L0 164.991L0 0L158.998 0L158.998 0Z" id="path_1" fill="none" fill-rule="evenodd" stroke="none" />
      <g clip-path="url(#clip_2)">
        <g id="Kamadhenu-Jewellery_Dashboard-Icons-22">
          <path d="M158.998 0L158.998 0L158.998 164.991L0 164.991L0 0L158.998 0L158.998 0Z" id="Kamadhenu-Jewellery_Dashboard-Icons-22" fill="none" stroke="none" />
          <path d="M75.6829 35.8855L88.0052 35.8855L88.0052 35.8855C87.2897 37.0405 86.8922 37.7004 86.8127 37.7829L83.4738 37.7829C83.9508 38.3604 84.2688 39.0204 84.4277 39.7628L87.9257 39.7628C88.0052 39.7628 88.0052 39.7628 88.0052 39.8453C87.2102 41.0827 86.8127 41.6602 86.8127 41.6602L84.5073 41.6602C84.4277 42.3202 84.1893 43.0626 83.6328 43.9701C82.9173 44.8775 82.2813 45.455 81.6453 45.7025C80.4528 46.28 79.3399 46.6099 78.2269 46.6099L78.2269 46.6099C78.2269 46.6924 78.4654 47.1049 79.0219 47.6824L85.0637 55.272L85.0637 55.602C85.0637 55.602 85.0637 55.6845 84.9842 55.6845L82.2813 55.6845C77.4319 49.8273 75.0469 46.9399 75.0469 46.9399L75.0469 45.2075L75.0469 45.125C75.4444 45.2075 76.0009 45.2075 76.5574 45.2075C79.2603 45.2075 80.9298 44.3001 81.5658 42.4852C81.6453 42.2377 81.7248 41.9077 81.7248 41.6602L74.4109 41.6602C74.4109 41.6602 74.3314 41.6602 74.3314 41.5777C75.1264 40.3403 75.5239 39.7628 75.6034 39.7628L81.4068 39.7628L81.4068 39.7628C81.0888 39.1029 80.4528 38.5254 79.4988 38.1129C78.7834 37.8654 78.2269 37.7829 77.6704 37.7829L74.4109 37.7829L74.4109 37.7004C75.2059 36.463 75.6034 35.8855 75.6829 35.8855M90.7082 68.1413L103.031 68.1413L103.031 68.1413C102.315 69.2962 101.918 69.9562 101.838 70.0387L98.5787 70.0387C99.0556 70.6161 99.3736 71.2761 99.5326 72.0186L103.031 72.0186C103.11 72.0186 103.11 72.0186 103.11 72.1011C102.315 73.3385 101.918 73.916 101.918 73.916L99.6121 73.916C99.5326 74.5759 99.2941 75.3184 98.7376 76.2258C98.0222 77.1333 97.3862 77.7108 96.7502 77.9582C95.5577 78.5357 94.4447 78.8657 93.3317 78.8657L93.3317 78.8657C93.3317 78.9482 93.5702 79.3607 94.1267 79.9381L100.248 87.5277L100.248 87.8577C100.248 87.8577 100.248 87.9402 100.169 87.9402L97.4657 87.9402C92.6162 82.083 90.2312 79.1957 90.2312 79.1957L90.2312 77.4633L90.2312 77.3808C90.6287 77.4633 91.1852 77.4633 91.7417 77.4633C94.4447 77.4633 96.1142 76.5558 96.7502 74.7409C96.8297 74.4934 96.9092 74.1635 96.9092 73.916L89.5953 73.916C89.5953 73.916 89.5158 73.916 89.5158 73.8335C90.3107 72.596 90.7082 72.0186 90.7877 72.0186L96.5912 72.0186L96.5912 72.0186C96.2732 71.3586 95.6372 70.7811 94.6832 70.3687C93.9677 70.1212 93.4112 70.0387 92.8547 70.0387L89.5953 70.0387L89.5953 69.9562C90.2312 68.7187 90.6287 68.1413 90.7082 68.1413M22.6572 103.284C23.6907 101.964 24.9626 101.552 26.6321 101.552C31.9585 101.634 37.285 101.552 42.6114 101.634C46.1093 101.634 46.5068 102.047 46.6658 105.677C46.6658 106.007 46.7453 106.337 46.8248 106.832C50.0048 106.584 53.1052 106.337 56.2057 106.172C63.8376 105.759 71.39 106.007 78.7834 108.399C85.9383 110.709 93.2522 112.771 100.407 115.081C102.315 115.659 104.064 116.731 106.37 117.804C110.106 116.071 114.399 114.009 118.692 112.029C120.6 111.121 122.508 110.131 124.495 109.307C128.868 107.409 133.797 109.389 135.625 113.679C137.454 117.886 135.705 123.001 131.571 125.063C122.19 129.6 112.809 134.22 103.19 138.427C98.1016 140.655 92.4572 140.49 86.8923 140.077C76.6369 139.417 66.938 136.86 57.4777 132.735C56.1262 132.158 54.3772 132.158 52.7872 132.24C51.2768 132.323 49.8458 132.818 48.3353 133.148C47.8583 133.23 47.3813 133.478 46.9043 133.643C46.1888 136.2 47.6198 139.087 45.4734 141.232L24.1676 141.232C23.6907 140.737 23.1342 140.16 22.6572 139.665L22.6572 103.284L22.6572 103.284L22.6572 103.284ZM46.8248 128.033C47.9378 127.786 48.7328 127.621 49.5278 127.456C52.7873 126.878 56.0467 126.301 59.2267 127.703C68.687 131.993 78.5449 134.633 88.8798 134.963C94.2062 135.128 99.4531 134.798 104.382 132.158C108.039 130.178 111.934 128.611 115.671 126.796C120.361 124.568 125.052 122.423 129.663 120.031C131.65 119.041 131.968 117.556 131.014 115.411C130.14 113.431 128.788 112.771 126.88 113.596C120.441 116.484 114.081 119.536 108.198 122.341C107.562 124.486 107.323 126.383 106.449 127.951C104.462 131.663 100.805 133.065 96.6706 131.828C87.9258 129.188 79.1809 126.548 70.436 123.826C70.0385 123.661 69.641 123.578 69.2435 123.413C67.9715 122.753 67.4946 121.598 67.8125 120.443C68.1305 119.124 69.323 118.381 70.754 118.711C71.867 118.959 72.9005 119.289 73.934 119.618C82.0428 122.093 90.1517 124.568 98.2606 127.043C101.123 127.868 102.951 126.301 102.872 123.331C102.792 121.598 102.077 120.773 100.089 120.113C94.2857 118.299 88.4028 116.484 82.5993 114.751C78.7834 113.596 74.9674 112.111 71.072 111.699C65.0301 111.121 58.9087 111.286 52.8668 111.286C50.8793 111.286 48.8918 111.781 46.8248 112.029L46.8248 128.033L46.8248 128.033L46.8248 128.033ZM27.9041 135.953L41.7369 135.953L41.7369 106.749L27.9041 106.749L27.9041 135.953L27.9041 135.953L27.9041 135.953ZM101.838 56.4269C116.466 61.8716 120.6 76.2258 116.307 86.4553C111.696 97.5097 99.9301 103.202 89.3567 99.1596C83.2353 96.8497 78.9424 92.395 76.4779 86.2078C74.0134 80.0206 74.5699 73.916 77.4319 67.9763C62.6451 62.5316 58.4317 48.2599 62.7246 37.8654C67.097 27.306 78.7834 20.8713 89.6747 25.1611C95.6371 27.5535 99.9301 31.7608 102.474 37.8654C105.018 44.0526 104.382 50.2397 101.838 56.4269M84.0303 60.0567C84.1893 59.8917 84.3483 59.6442 84.5868 59.4792C88.3233 57.4993 92.2187 55.8494 96.3527 55.7669C100.646 48.8373 99.8506 39.9278 94.6832 34.1531C89.6748 28.6259 81.0094 27.2235 74.4109 30.9358C67.8125 34.6481 64.6326 42.6502 66.5405 50.4872C68.21 57.4168 74.4904 62.8615 80.8504 62.8615C81.8839 62.0366 82.9968 61.0466 84.0303 60.0567M112.968 78.1232C113.286 69.5437 106.767 60.9642 96.1937 61.0467C87.2103 61.1292 79.8964 68.4713 79.8964 78.1232C79.9759 88.1052 86.8923 95.3648 96.5911 95.2823C106.131 95.2823 112.968 88.0227 112.968 78.1232" id="Group" fill="#FFC107" fill-rule="evenodd" stroke="none" />
        </g>
      </g>
    </g>
  </g>
</svg>