<?xml version="1.0" encoding="utf-8"?>
<svg width="100px" height="100px" viewBox="0 0 100 100" version="1.1" xmlns:xlink="http://www.w3.org/1999/xlink" xmlns="http://www.w3.org/2000/svg">
  <defs>
    <path d="M100 0L100 0L100 100L0 100L0 0L100 0Z" id="path_1" />
    <path d="M100 0L100 0L100 100L0 100L0 0L100 0L100 0Z" id="path_2" />
    <clipPath id="clip_1">
      <use xlink:href="#path_1" clip-rule="evenodd" fill-rule="evenodd" />
    </clipPath>
    <clipPath id="clip_2">
      <use xlink:href="#path_2" clip-rule="evenodd" fill-rule="evenodd" />
    </clipPath>
  </defs>
  <g id="dash23" clip-path="url(#clip_1)">
    <path d="M100 0L100 0L100 100L0 100L0 0L100 0Z" id="dash23" fill="none" stroke="none" />
    <g id="Mask-Group">
      <path d="M100 0L100 0L100 100L0 100L0 0L100 0L100 0Z" id="path_1" fill="none" fill-rule="evenodd" stroke="none" />
      <g clip-path="url(#clip_2)">
        <g id="svgviewer-output-(1)">
          <path d="M100 0L100 0L100 100L0 100L0 0L100 0L100 0Z" id="svgviewer-output-(1)" fill="none" stroke="none" />
          <path d="M18.6667 6.66667L18.3311 6.66647C16.8081 6.66501 15.4953 6.66376 14.3322 6.943C10.6757 7.8208 7.8208 10.6757 6.943 14.3322C6.66376 15.4953 6.66501 16.8081 6.66647 18.3311L6.66667 18.6667L6.66667 34.6667L6.66647 35.0022C6.66501 36.5252 6.66376 37.8381 6.943 39.0011C7.8208 42.6576 10.6757 45.5125 14.3322 46.3904C15.4953 46.6696 16.8081 46.6683 18.3311 46.6669L18.6667 46.6667L34.6667 46.6667L35.0022 46.6669C36.5252 46.6683 37.8381 46.6696 39.0011 46.3904C42.6576 45.5125 45.5125 42.6576 46.3904 39.0011C46.6696 37.8381 46.6683 36.5252 46.6669 35.0022L46.6667 34.6667L46.6667 18.6667L46.6669 18.3311C46.6683 16.8081 46.6696 15.4953 46.3904 14.3322C45.5125 10.6757 42.6576 7.8208 39.0011 6.943C37.8381 6.66376 36.5252 6.66501 35.0022 6.66647L34.6667 6.66667L18.6667 6.66667L18.6667 6.66667L18.6667 6.66667ZM15.8885 13.4255C16.1755 13.3565 16.6148 13.3333 18.6667 13.3333L34.6667 13.3333C36.7186 13.3333 37.1579 13.3565 37.4448 13.4255C38.6637 13.7181 39.6153 14.6697 39.9079 15.8885C39.9768 16.1755 40 16.6148 40 18.6667L40 34.6667C40 36.7186 39.9768 37.1579 39.9079 37.4448C39.6153 38.6637 38.6637 39.6153 37.4448 39.9079C37.1579 39.9768 36.7186 40 34.6667 40L18.6667 40C16.6148 40 16.1755 39.9768 15.8885 39.9079C14.6697 39.6153 13.7181 38.6637 13.4255 37.4448C13.3565 37.1579 13.3333 36.7186 13.3333 34.6667L13.3333 18.6667C13.3333 16.6148 13.3565 16.1755 13.4255 15.8885C13.7181 14.6697 14.6697 13.7181 15.8885 13.4255L15.8885 13.4255L15.8885 13.4255ZM65.3333 6.66667L64.9978 6.66647C63.4748 6.66501 62.1619 6.66376 60.9989 6.943C57.3424 7.8208 54.4875 10.6757 53.6097 14.3322C53.3304 15.4953 53.3317 16.8081 53.3331 18.3311L53.3333 18.6667L53.3333 34.6667L53.3331 35.0022C53.3317 36.5252 53.3304 37.8381 53.6097 39.0011C54.4875 42.6576 57.3424 45.5125 60.9989 46.3904C62.1619 46.6696 63.4748 46.6683 64.9978 46.6669L65.3333 46.6667L81.3333 46.6667L81.6687 46.6669C83.192 46.6683 84.5047 46.6696 85.668 46.3904C89.324 45.5125 92.1793 42.6576 93.0573 39.0011C93.336 37.8381 93.3353 36.5252 93.3333 35.0022L93.3333 34.6667L93.3333 18.6667L93.3333 18.3311C93.3353 16.8081 93.336 15.4953 93.0573 14.3322C92.1793 10.6757 89.324 7.8208 85.668 6.943C84.5047 6.66376 83.192 6.66501 81.6687 6.66647L81.3333 6.66667L65.3333 6.66667L65.3333 6.66667L65.3333 6.66667ZM62.5552 13.4255C62.8421 13.3565 63.2815 13.3333 65.3333 13.3333L81.3333 13.3333C83.3853 13.3333 83.8247 13.3565 84.1113 13.4255C85.33 13.7181 86.282 14.6697 86.5747 15.8885C86.6433 16.1755 86.6667 16.6148 86.6667 18.6667L86.6667 34.6667C86.6667 36.7186 86.6433 37.1579 86.5747 37.4448C86.282 38.6637 85.33 39.6153 84.1113 39.9079C83.8247 39.9768 83.3853 40 81.3333 40L65.3333 40C63.2815 40 62.8421 39.9768 62.5552 39.9079C61.3363 39.6153 60.3847 38.6637 60.0921 37.4448C60.0232 37.1579 60 36.7186 60 34.6667L60 18.6667C60 16.6148 60.0232 16.1755 60.0921 15.8885C60.3847 14.6697 61.3363 13.7181 62.5552 13.4255L62.5552 13.4255L62.5552 13.4255ZM18.3311 53.3331L18.6667 53.3333L34.6667 53.3333L35.0022 53.3331C36.5252 53.3317 37.8381 53.3304 39.0011 53.6097C42.6576 54.4875 45.5125 57.3424 46.3904 60.9989C46.6696 62.1619 46.6683 63.4748 46.6669 64.9978L46.6667 65.3333L46.6667 81.3333L46.6669 81.6687C46.6683 83.192 46.6696 84.5047 46.3904 85.668C45.5125 89.324 42.6576 92.1793 39.0011 93.0573C37.8381 93.336 36.5252 93.3353 35.0022 93.3333L34.6667 93.3333L18.6667 93.3333L18.3311 93.3333C16.8081 93.3353 15.4953 93.336 14.3322 93.0573C10.6757 92.1793 7.8208 89.324 6.943 85.668C6.66376 84.5047 6.66501 83.192 6.66647 81.6687L6.66667 81.3333L6.66667 65.3333L6.66647 64.9978C6.66501 63.4748 6.66376 62.1619 6.943 60.9989C7.8208 57.3424 10.6757 54.4875 14.3322 53.6097C15.4953 53.3304 16.8081 53.3317 18.3311 53.3331L18.3311 53.3331L18.3311 53.3331ZM18.6667 60C16.6148 60 16.1755 60.0232 15.8885 60.0921C14.6697 60.3847 13.7181 61.3363 13.4255 62.5552C13.3565 62.8421 13.3333 63.2815 13.3333 65.3333L13.3333 81.3333C13.3333 83.3853 13.3565 83.8247 13.4255 84.1113C13.7181 85.33 14.6697 86.282 15.8885 86.5747C16.1755 86.6433 16.6148 86.6667 18.6667 86.6667L34.6667 86.6667C36.7186 86.6667 37.1579 86.6433 37.4448 86.5747C38.6637 86.282 39.6153 85.33 39.9079 84.1113C39.9768 83.8247 40 83.3853 40 81.3333L40 65.3333C40 63.2815 39.9768 62.8421 39.9079 62.5552C39.6153 61.3363 38.6637 60.3847 37.4448 60.0921C37.1579 60.0232 36.7186 60 34.6667 60L18.6667 60L18.6667 60L18.6667 60ZM65.3333 53.3333L64.9978 53.3331C63.4748 53.3317 62.1619 53.3304 60.9989 53.6097C57.3424 54.4875 54.4875 57.3424 53.6097 60.9989C53.3304 62.1619 53.3317 63.4748 53.3331 64.9978L53.3333 65.3333L53.3333 81.3333L53.3331 81.6687C53.3317 83.192 53.3304 84.5047 53.6097 85.668C54.4875 89.324 57.3424 92.1793 60.9989 93.0573C62.1619 93.336 63.4748 93.3353 64.9978 93.3333L65.3333 93.3333L81.3333 93.3333L81.6687 93.3333C83.192 93.3353 84.5047 93.336 85.668 93.0573C89.324 92.1793 92.1793 89.324 93.0573 85.668C93.336 84.5047 93.3353 83.192 93.3333 81.6687L93.3333 81.3333L93.3333 65.3333L93.3333 64.9978C93.3353 63.4748 93.336 62.1619 93.0573 60.9989C92.1793 57.3424 89.324 54.4875 85.668 53.6097C84.5047 53.3304 83.192 53.3317 81.6687 53.3331L81.3333 53.3333L65.3333 53.3333L65.3333 53.3333L65.3333 53.3333ZM62.5552 60.0921C62.8421 60.0232 63.2815 60 65.3333 60L81.3333 60C83.3853 60 83.8247 60.0232 84.1113 60.0921C85.33 60.3847 86.282 61.3363 86.5747 62.5552C86.6433 62.8421 86.6667 63.2815 86.6667 65.3333L86.6667 81.3333C86.6667 83.3853 86.6433 83.8247 86.5747 84.1113C86.282 85.33 85.33 86.282 84.1113 86.5747C83.8247 86.6433 83.3853 86.6667 81.3333 86.6667L65.3333 86.6667C63.2815 86.6667 62.8421 86.6433 62.5552 86.5747C61.3363 86.282 60.3847 85.33 60.0921 84.1113C60.0232 83.8247 60 83.3853 60 81.3333L60 65.3333C60 63.2815 60.0232 62.8421 60.0921 62.5552C60.3847 61.3363 61.3363 60.3847 62.5552 60.0921L62.5552 60.0921L62.5552 60.0921Z" id="Shape" fill="#FEB680" fill-rule="evenodd" stroke="none" />
        </g>
      </g>
    </g>
  </g>
</svg>