<?xml version="1.0" encoding="utf-8"?>
<!-- Generator: Adobe Illustrator 23.0.5, SVG Export Plug-In . SVG Version: 6.00 Build 0)  -->
<svg version="1.1" id="Layer_1" xmlns="http://www.w3.org/2000/svg" xmlns:xlink="http://www.w3.org/1999/xlink" x="0px" y="0px"
	 viewBox="0 0 2732 2732" style="enable-background:new 0 0 2732 2732;" xml:space="preserve">
<style type="text/css">
	.st0{fill:#841527;}
	.st1{fill:#1E1917;}
	.st2{fill:#272524;}
	.st3{fill:none;}
	.st4{fill:url(#SVGID_1_);}
	.st5{fill:url(#SVGID_2_);}
	.st6{fill:url(#SVGID_3_);}
	.st7{fill:url(#SVGID_4_);}
	.st8{fill:url(#SVGID_5_);}
	.st9{fill:url(#SVGID_6_);}
	.st10{fill:url(#SVGID_7_);}
</style>
<g>
	<g id="g14">
		<g id="g20" transform="translate(137.9511,47.6016)">
			<path id="path22" class="st0" d="M179.1,1763.1c11.5,2.4,16.4,7.6,16.4,15.2v8.8c20.4-16.4,41.9-24.2,64.8-24.2
				c30.4,0,57.2,14,81.4,43.2c8.8-17.8,29.2-30.4,58.3-40.6l20.4-2.4c36.8,0,66,17.8,87.6,53.4c7.6,15.2,10.2,29.2,10.2,43.2v132.1
				c0,7.6-5,12.6-16.4,15.2h-1.3c-11.5-1.3-16.4-7.6-16.4-16.4v-129.4c0-29.2-15.2-49.4-45.7-61l-12.6-1.3h-8.8
				c-24.2,0-43.2,14-55.8,43.2c-1.3,6.4-2.4,11.5-2.4,16.4v132.1c-2.4,11.5-7.6,17.8-16.4,17.8H341c-11.5-1.3-16.4-7.6-16.4-16.4
				V1883c0-30.4-3.8-49.4-12.6-57.2c-12.6-16.4-29.2-25.4-49.4-25.4h-3.8c-28-1.3-47,14-59.6,44.4c-1.3,7.6-2.4,16.4-2.4,28v118.1
				c0,8.8-5,14-16.4,16.4h-1.8c-8.8,0-15.2-6.4-16.4-17.8v-205.8C162.7,1769.5,169.1,1763.1,179.1,1763.1z"/>
		</g>
		<g id="g24" transform="translate(170.9099,38.3009)">
			<path id="path26" class="st0" d="M564.8,1890.6v2.4c0,35.5,17.8,63.4,54.6,81.4c11.5,5,21.6,6.4,30.4,6.4h7.6
				c30.4,0,54.6-15.2,74.9-45.7c6.4-14,10.2-26.6,10.2-39.4v-3.8c0-34.4-16.4-61-50.8-80c-12.6-5-25.4-7.6-38.2-7.6h-1.4
				c-36.8,0-63.4,19-82.5,57.2C566,1872.8,564.8,1883,564.8,1890.6z M653.7,1768.6c47,0,83.8,22.8,111.7,68.5
				c8.8,19,12.6,38.2,12.6,58.3v105.3c0,8.8-6.4,14-17.8,16.4H759c-7.6,0-14-5-17.8-14v-1.3l1.3-22.8v-1.3
				c-26.6,25.4-55.8,38.2-86.4,38.2h-6.4c-41.9,0-77.4-21.6-105.3-63.4c-10.2-20.4-15.2-40.6-15.2-61c0-45.7,22.8-82.5,67.4-109.2
				C616.8,1772.4,634.6,1768.6,653.7,1768.6"/>
		</g>
		<g id="g28" transform="translate(193.1406,47.9276)">
			<path id="path30" class="st0" d="M824.9,1758.8c11.5,2.4,17.8,7.6,17.8,15.2v20.4c25.4-24.2,54.6-35.5,85.1-35.5
				c34.4,0,64.8,14,90.2,43.2c19,24.2,29.2,48.3,29.2,74.9v115.5c0,7.6-5,12.6-17.8,15.2h-1.3c-11.5-2.4-17.8-7.6-17.8-17.8v-101.5
				c0-45.7-19-74.9-58.3-90.2c-10.2-2.4-17.8-3.8-25.4-3.8h-1.3c-33,0-58.3,16.4-76.2,50.8c-5,11.5-6.4,28-6.4,50.8v95.3
				c0,8.8-6.4,14-17.8,16.4h-1.3c-8.8,0-15.2-6.4-17.8-17.8v-209.5C808.3,1765,814.7,1758.8,824.9,1758.8z"/>
		</g>
		<g id="g32" transform="translate(216.6423,39.0311)">
			<path id="path34" class="st0" d="M1099.7,1880.5h174c0-12.6-7.6-28-21.6-48.3c-20.4-19-39.4-28-58.3-28h-10.2
				c-29.2,0-53.4,14-72.4,41.9C1104.8,1857.7,1101,1869.1,1099.7,1880.5z M1186,1767.5c48.3,0,85.1,22.8,111.7,68.5
				c8.8,17.8,14,36.8,14,58.3v5c-2.4,12.6-7.6,17.8-17.8,17.8h-191.7c7.6,22.8,22.8,40.6,47,53.4c14,6.4,26.6,8.8,38.2,8.8
				c14,0,30.4-5,48.3-14h5c11.5,2.4,16.4,7.6,16.4,16.4v2.4c0,15.2-21.6,25.4-64.8,30.4h-6.4c-44.4,0-80-20.4-106.6-62.2
				c-11.5-20.4-16.4-40.6-16.4-62.2c0-45.7,21.6-81.4,64.8-109.2C1147.8,1772.7,1167,1767.5,1186,1767.5"/>
		</g>
		<g id="g36" transform="translate(239.2897,38.399)">
			<path id="path38" class="st0" d="M1364.6,1889.2v5c0,33,15.2,58.3,47,76.2c11.5,6.4,24.2,8.8,36.8,8.8h5
				c34.4,0,59.6-17.8,77.4-53.4c3.8-11.5,6.4-21.6,6.4-31.7v-5c0-28-12.6-50.8-38.2-68.5c-15.2-10.2-31.7-15.2-50.8-15.2
				c-34.4,0-62.2,19-78.7,58.3C1365.9,1872.7,1364.6,1881.6,1364.6,1889.2 M1452.2,1768.5c31.7,0,61,11.5,86.4,35.5
				c24.2,25.4,36.8,54.6,36.8,86.4c0,45.7-21.6,82.5-66,109.2c-19,10.2-36.8,15.2-54.6,15.2h-7.6c-28,0-55.8-12.6-83.8-36.8v163.8
				c0,7.6-6.4,14-17.8,15.2c-8.8,1.3-16.4-5-16.4-17.8v-239.9c0-62.2,29.2-104.2,87.6-125.7
				C1424.3,1771.1,1435.8,1769.9,1452.2,1768.5z"/>
		</g>
		<g id="g40" transform="translate(261.3058,38.3009)">
			<path id="path42" class="st0" d="M1622.1,1890.6v2.4c0,35.5,17.8,63.4,54.6,81.4c11.5,5,21.6,6.4,30.4,6.4h7.6
				c30.4,0,54.6-15.2,74.9-45.7c6.4-14,10.2-26.6,10.2-39.4v-3.8c0-34.4-16.4-61-50.8-80c-12.6-5-25.4-7.6-38.2-7.6h-1.3
				c-36.8,0-63.4,19-82.5,57.2C1623.4,1872.8,1622.1,1883,1622.1,1890.6z M1711,1768.6c47,0,83.8,22.8,111.7,68.5
				c8.8,19,12.6,38.2,12.6,58.3v105.3c0,8.8-5,14-17.8,16.4h-1.3c-7.6,0-14-5-17.8-14v-1.3l1.3-22.8v-1.3
				c-26.6,25.4-55.8,38.2-86.4,38.2h-6.4c-41.9,0-77.4-21.6-105.3-63.4c-10.2-20.4-15.2-40.6-15.2-61c0-45.7,22.8-82.5,67.4-109.2
				C1674.2,1772.4,1692,1768.6,1711,1768.6z"/>
		</g>
		<g id="g44" transform="translate(283.0742,57.7613)">
			<path id="path46" class="st0" d="M1876.8,1624.1h3.8c11.5,0,16.4,7.6,16.4,14v322.5h19c7.6,0,12.6,6.4,15.2,17.8v1.3
				c-2.4,11.5-7.6,17.8-17.8,17.8H1878c-8.8,0-17.8-6.4-17.8-17.8v-335.2C1861.6,1630.4,1868,1624.1,1876.8,1624.1z"/>
		</g>
		<g id="g48" transform="translate(292.1071,57.7613)">
			<path id="path50" class="st0" d="M1982.5,1624.1h3.8c11.5,0,16.4,7.6,16.4,14v322.5h19c7.6,0,12.6,6.4,15.2,17.8v1.3
				c-2.4,11.5-7.6,17.8-17.8,17.8h-34.4c-8.8,0-17.8-6.4-17.8-17.8v-335.2C1967.2,1630.4,1973.7,1624.1,1982.5,1624.1z"/>
		</g>
		<g id="g52" transform="translate(313.0146,47.719)">
			<path id="path54" class="st0" d="M2227.1,1761.6c11.5,2.4,16.4,7.6,16.4,16.4v1.3c0,3.8-29.2,71.2-83.8,203.2
				c-26.6,64.8-66,157.4-69.8,161.2c-2.4,2.4-6.4,3.8-11.5,5c-11.5-2.4-16.4-7.6-16.4-14v-3.8c0-2.4,39.4-91.4,64.8-152.3v-1.3
				l-80-196.8v-1.3c2.4-11.5,7.6-16.4,16.4-16.4s17.8,11.5,24.2,33c36.8,87.6,55.8,133.3,57.2,137.2h1.3
				c43.2-108,67.4-163.8,69.8-166.3C2219.3,1762.9,2223.1,1761.6,2227.1,1761.6z"/>
		</g>
		<path id="path56" class="st0" d="M1458,2193.1h15.2v15.2H1458V2193.1z M1380.7,2170.1c0,10.2,2.4,17.8,6.4,21.6
			c3.8,5,8.8,7.6,15.2,7.6c5,0,10.2-2.4,14-6.4c3.8-5,6.4-11.5,6.4-21.6c0-10.2-2.4-17.8-6.4-22.8c-3.8-5-8.8-7.6-15.2-7.6
			c-6.4,0-10.2,2.4-14,7.6C1383.1,2152.3,1380.7,2160,1380.7,2170.1 M1422.5,2208.2V2198c-5,7.6-11.5,11.5-21.6,11.5
			c-6.4,0-11.5-1.3-16.4-5c-5-3.8-8.8-7.6-11.5-14c-2.4-6.4-3.8-12.6-3.8-20.4c0-7.6,1.3-15.2,3.8-20.4c2.4-6.4,6.4-11.5,11.5-14
			c5-3.8,11.5-5,17.8-5c5,0,8.8,1.3,12.6,2.4c3.8,2.4,6.4,5,8.8,7.6v-38.1h12.6v106.6L1422.5,2208.2z M1358.9,2196.8l1.3,11.5
			c-3.8,1.3-6.4,1.3-10.2,1.3c-5,0-8.8-1.3-11.5-2.4c-2.6-1.2-3.8-3.8-5-6.4c-1.3-2.4-1.3-7.6-1.3-15.2v-44.4H1322v-10.2h10.2v-19
			l12.6-7.6v26.6h12.6v10.2h-12.6v45.7c0,3.8,0,6.4,1.3,7.6c0,1.3,1.3,1.3,2.4,2.4c1.3,0,2.4,1.3,5,1.3
			C1355.1,2196.8,1356.5,2196.8,1358.9,2196.8z M1249.8,2208.2v-106.6h14v94h52v12.6H1249.8L1249.8,2208.2z M1169.8,2193.1h15.2
			v15.2h-15.2V2193.1z M1153.2,2196.8l1.3,11.5c-3.8,1.3-6.4,1.3-10.2,1.3c-5,0-8.8-1.3-11.5-2.4c-2.6-1.2-3.8-3.8-5-6.4
			c-1.3-2.4-1.3-7.6-1.3-15.2v-44.4h-8.8v-10.2h10.2v-19l12.6-7.6v26.6h12.6v10.2h-12.6v45.7c0,3.8,0,6.4,1.3,7.6
			c0,1.3,1.3,1.3,2.4,2.4c1.3,0,2.4,1.3,5,1.3C1148.1,2196.8,1150.8,2196.8,1153.2,2196.8z M1070.8,2208.2l-29.2-77.4h14l16.4,45.7
			c1.3,5,3.8,10.2,5,15.2c1.3-3.8,2.4-8.8,5-15.2l16.4-47h14l-29.2,77.4h-12.6v1.3H1070.8z M966.6,2152.3h28c8.8,0,15.2-1.3,19-5
			c3.8-3.8,5-7.6,5-14c0-3.8-1.3-7.6-3.8-11.5c-2.4-2.4-5-5-8.8-6.4c-2.4,0-6.4-1.3-12.6-1.3h-26.6L966.6,2152.3L966.6,2152.3z
			 M952.6,2208.2v-106.6h40.6c7.6,0,12.6,0,16.4,1.3c5,1.3,10.2,2.4,12.6,5c3.8,2.4,6.4,6.4,8.8,10.2c2.4,3.8,3.8,8.8,3.8,14
			c0,8.8-2.4,16.4-8.8,22.8c-6.4,6.4-16.4,8.8-31.7,8.8h-26.6v43.2L952.6,2208.2 M830.7,2185.3l12.6-2.4c1.3,5,2.4,8.8,6.4,11.5
			s7.6,3.8,14,3.8s10.2-1.3,14-3.8c2.4-2.4,3.8-5,3.8-8.8c0-2.4-1.3-5-3.8-6.4c-1.3-1.3-6.4-2.4-14-3.8c-10.2-2.4-16.4-5-20.4-6.4
			c-3.9-1.3-6.4-3.8-8.8-7.6c-1.3-2.4-2.4-6.4-2.4-10.2c0-3.8,1.3-6.4,2.4-10.2c1.3-2.4,3.8-5,6.4-7.6c2.4-1.3,5-2.4,8.8-3.8
			s7.6-1.3,11.5-1.3c6.4,0,11.5,1.3,16.4,2.4c5,1.3,7.6,3.8,10.2,7.6c2.4,2.4,3.8,6.4,5,11.5l-12.6,1.3c0-3.8-2.4-7.6-5-8.8
			c-2.6-1.3-6.4-3.8-11.5-3.8c-6.4,0-10.2,1.3-12.6,2.4c-2.4,2.4-3.8,3.8-3.8,6.4c0,1.3,0,3.8,1.3,5c1.3,1.3,2.4,2.4,5,3.8
			c1.3,0,5,1.3,11.5,3.8c8.8,2.4,15.2,5,19,6.4c3.8,1.3,6.4,3.8,8.8,6.4c2.4,2.4,2.4,6.4,2.4,11.5c0,3.8-1.3,8.8-3.8,12.6
			c-2.4,3.8-6.4,6.4-11.5,8.8s-10.2,2.4-16.4,2.4c-10.2,0-17.8-2.4-22.8-6.4C835.8,2199.3,832,2193.1,830.7,2185.3L830.7,2185.3z
			 M786.3,2208.2v-77.4h11.5v11.5c2.4-5,6.4-8.8,8.8-11.5c2.4-1.3,5-2.4,8.8-2.4s8.8,1.3,14,3.8l-5,11.5c-2.4-1.3-6.4-2.4-8.8-2.4
			s-5,1.3-7.6,2.4c-2.4,1.3-3.8,3.8-5,7.6c-1.3,5-2.4,10.2-2.4,15.2v40.6h-14v1.2H786.3L786.3,2208.2z M713.9,2162.5h43.2
			c0-6.4-2.4-11.5-5-14c-3.8-5-10.2-7.6-16.4-7.6c-6.2,0-11.5,2.4-15.2,6.4C716.5,2149.8,713.9,2156.1,713.9,2162.5 M755.7,2182.9
			l14,1.3c-2.4,7.6-6.4,14-11.5,17.8c-6.4,3.8-12.6,6.4-21.6,6.4c-11.5,0-20.4-3.8-26.6-10.2c-6.4-6.4-10.2-16.4-10.2-29.2
			c0-12.8,3.8-22.8,10.2-30.4s15.2-10.2,25.4-10.2c10.2,0,19,3.8,25.4,10.2c6.4,7.6,10.2,16.4,10.2,29.2c0,1.3,0,2.4,0,3.8H714
			c0,8.8,2.4,15.2,7.6,19c3.8,5,10.2,6.4,16.4,6.4c5,0,8.8-1.3,12.6-3.8C752,2193.1,754.6,2189.1,755.7,2182.9z M670.8,2101.6h12.6
			v106.6h-12.6V2101.6z M637.8,2101.6h12.6v106.6h-12.6V2101.6z M565.4,2162.5h43.2c0-6.4-2.4-11.5-5-14c-3.8-5-10.2-7.6-16.4-7.6
			s-11.5,2.4-15.2,6.4C568,2149.8,565.4,2156.1,565.4,2162.5 M607.2,2182.9l14,1.3c-2.4,7.6-6.4,14-11.5,17.8
			c-6.4,3.8-12.6,6.4-21.6,6.4c-11.5,0-20.4-3.8-26.6-10.2c-6.4-6.4-10.2-16.4-10.2-29.2c0-12.8,3.8-22.8,10.2-30.4
			s15.2-10.2,25.4-10.2c10.2,0,19,3.8,25.4,10.2c6.4,7.6,10.2,16.4,10.2,29.2c0,1.3,0,2.4,0,3.8h-57.3c0,8.8,2.4,15.2,7.6,19
			c3.8,5,10.2,6.4,16.4,6.4c5,0,8.8-1.3,12.6-3.8C603.5,2193.1,605.9,2189.1,607.2,2182.9L607.2,2182.9z M461.2,2208.2l-22.8-77.4
			h14l12.6,44.4l3.8,16.4c0-1.3,1.3-6.4,3.8-16.4l12.6-45.7h14l11.5,44.4l3.8,15.2l3.8-15.2l12.6-44.4h12.6l-24.2,77.4h-13.5
			l-12.6-45.7l-2.4-12.6l-15.2,59.6L461.2,2208.2L461.2,2208.2z M374.9,2162.5h43.2c0-6.4-2.4-11.5-5-14c-3.8-5-10.2-7.6-16.4-7.6
			s-11.5,2.4-15.2,6.4C377.4,2149.8,376.2,2156.1,374.9,2162.5z M418.1,2182.9l14,1.3c-2.4,7.6-6.4,14-11.5,17.8
			c-6.4,3.8-12.6,6.4-21.6,6.4c-11.5,0-20.4-3.8-26.6-10.2c-6.4-6.4-10.2-16.4-10.2-29.2c0-12.8,3.8-22.8,10.2-30.4
			s15.2-10.2,25.4-10.2s19,3.8,25.4,10.2c6.4,7.6,10.2,16.4,10.2,29.2c0,1.3,0,2.4,0,3.8h-57.3c0,8.8,2.4,15.2,7.6,19
			c3.8,5,10.2,6.4,16.4,6.4c5,0,8.8-1.3,12.6-3.8C413,2193.1,415.5,2189.1,418.1,2182.9 M286.1,2177.8l12.6-1.3c0,7.6,1.3,14,5,16.4
			c2.4,2.4,6.4,5,11.5,5c3.8,0,6.4-1.3,8.8-2.4c2.4-1.2,3.8-3.8,5-6.4c1.3-2.4,1.3-7.6,1.3-12.6v-73.6h14v71.2
			c0,8.8-1.3,15.2-3.8,20.4c-2.4,5-5,8.8-10.2,11.5c-5,2.4-10.2,3.8-16.4,3.8c-8.8,0-16.4-2.4-21.6-7.6
			C287.3,2196.8,286.1,2189.1,286.1,2177.8"/>
		<g id="g58" transform="translate(235.5253,7.4483)">
			<path id="path60" class="st1" d="M1320.6,2313.1v2.4c0,10.2,1.3,19,5,25.4c3.8,3.8,7.6,6.4,12.6,6.4l0,0
				c10.2,0,15.2-7.6,17.8-22.8c0-2.4,1.3-6.4,1.3-10.2c0-8.8-1.3-16.4-3.8-24.2c-5-6.4-8.8-8.8-15.2-8.8c-6.4,0-11.5,3.8-15.2,11.5
				C1321.8,2299.2,1320.6,2306.9,1320.6,2313.1 M1338.3,2272.5c8.8,0,16.4,5,21.6,15.2c2.4,8.8,3.8,16.4,3.8,24.2v5
				c0,8.8-1.3,17.8-5,26.6c-5,7.6-11.5,12.6-20.4,12.6l0,0c-8.8-1.3-15.2-5-20.4-15.2c-3.8-7.6-5-17.8-5-26.6v-1.3
				c0-10.2,1.3-20.4,5-29.2C1324.4,2276.3,1330.8,2272.5,1338.3,2272.5z M1266,2296.7v2.4c0,6.4,2.4,10.2,8.8,14c2.4,0,3.8,0,6.4,0
				c6.4,0,11.5-2.4,14-8.8c1.3-1.3,2.4-3.8,2.4-6.4l0,0c0-7.6-3.8-12.6-11.5-15.2c-1.3,0-2.4,0-3.8,0h-1.3c-6.4,0-11.5,3.8-14,10.2
				C1266,2294.1,1266,2295.4,1266,2296.7 M1281.3,2272.5c8.8,0,15.2,3.8,21.6,12.6c2.4,3.8,3.8,8.8,3.8,12.6
				c0,6.4-2.4,12.6-7.6,17.8l-29.2,39.4c-1.3,1.3-2.4,1.3-2.4,1.3c-2.4,0-3.8-2.4-3.8-3.8c0-1.3,2.4-5,6.4-10.2l14-19l0,0h-1.3
				c-8.8,0-16.4-5-21.6-14c-2.4-3.8-3.8-7.6-3.8-11.5c0-8.8,3.8-16.4,12.6-21.6C1273.6,2273.9,1277.4,2272.5,1281.3,2272.5
				 M1208.8,2331c0,7.6,3.8,12.6,11.5,15.2c1.3,0,2.4,0,5,0c7.6,0,12.6-3.8,15.2-11.5v-3.8v-2.4c0-6.4-3.8-11.5-10.2-14
				c-2.4,0-3.8-1.3-5-1.3c-7.6,0-12.6,3.8-16.4,11.5L1208.8,2331 M1214,2294.1c0,5,3.8,8.8,10.2,11.5h2.4c5,0,10.2-2.4,11.5-8.8
				v-2.4c0-6.4-3.8-10.2-10.2-11.5h-2.4c-5,0-8.8,2.4-11.5,8.8V2294.1z M1226.6,2272.5c6.4,0,12.6,2.4,16.4,8.8
				c2.4,3.8,3.8,7.6,3.8,11.5v1.3c0,6.4-2.4,11.5-7.6,16.4c7.6,5,11.5,12.6,11.5,20.4c0,7.6-3.8,15.2-11.5,20.4
				c-3.8,2.4-8.8,3.8-12.6,3.8h-1.3c-7.6,0-15.2-3.8-20.4-11.5c-2.4-5-3.8-8.8-3.8-12.6c0-8.8,3.8-15.2,12.6-21.6
				c-3.8-2.4-6.4-6.4-7.6-10.2c0-1.3,0-2.4,0-5v-1.3c0-7.6,3.8-12.6,10.2-17.8C1220.3,2273.9,1222.8,2272.5,1226.6,2272.5z
				 M1186,2272.5L1186,2272.5c3.8,0,5,1.3,5,3.8v74.9c0,2.4-1.3,3.8-3.8,3.8l0,0c-2.4,0-3.8-1.3-3.8-3.8v-68.5
				c-3.8,1.3-6.4,2.4-7.6,2.4s-2.4-1.3-3.8-3.8v-1.3c0-2.4,2.4-3.8,8.8-5L1186,2272.5z M1083.1,2323.3h41.9c0-2.4-1.3-6.4-5-11.5
				c-5-5-8.8-6.4-14-6.4h-2.4c-6.4,0-12.6,3.8-16.4,10.2C1084.5,2318.2,1083.1,2320.9,1083.1,2323.3 M1103.5,2296.7
				c11.5,0,20.4,5,26.6,16.4c2.4,3.8,3.8,8.8,3.8,14v1.3c0,2.4-1.3,3.8-3.8,3.8h-45.7c1.3,6.4,5,10.2,11.5,12.6
				c3.8,1.3,6.4,2.4,8.8,2.4c3.8,0,7.6-1.3,11.5-3.8h1.3c2.4,0,3.8,1.3,3.8,3.8l0,0c0,3.8-5,6.4-15.2,7.6h-1.3
				c-10.2,0-19-5-25.4-15.2c-2.4-5-3.8-10.2-3.8-15.2c0-10.2,5-19,15.2-25.4C1094.7,2298,1098.5,2296.7,1103.5,2296.7z
				 M1043.7,2296.7c7.6,0,14,2.4,20.4,8.8c0,1.3,0,1.3,0,2.4l0,0c0,2.4-1.3,3.8-3.8,3.8l0,0c-1.3,0-3.8-1.3-6.4-3.8
				c-3.8-1.3-6.4-2.4-8.8-2.4h-1.3c-8.8,0-15.2,3.8-19,12.6c-1.3,2.4-1.3,5-1.3,7.6c0,8.8,3.8,15.2,12.6,19c2.4,1.3,5,1.3,8.8,1.3
				c5,0,10.2-2.4,15.2-6.4h1.3h1.3c2.4,0,3.8,1.3,3.8,3.8l0,0c0,2.4-5,6.4-14,10.2c-2.4,0-5,1.3-6.4,1.3h-1.3
				c-7.6,0-15.2-3.8-21.6-11.5c-7.6-5-8.8-11.5-8.8-17.8c0-10.2,3.8-17.8,12.6-24.2C1032.3,2298,1037.5,2296.7,1043.7,2296.7
				 M952.3,2296.7c2.4,1.3,3.8,2.4,3.8,3.8v5c6.4-5,12.6-8.8,20.4-8.8c7.6,0,15.2,3.8,21.6,10.2c5,5,6.4,11.5,6.4,17.8v28
				c0,1.3-1.3,2.4-3.8,3.8l0,0c-2.4,0-3.8-1.3-3.8-3.8v-24.2c0-10.2-5-17.8-14-21.6c-2.4,0-3.8-1.3-6.4-1.3l0,0
				c-7.6,0-14,3.8-17.8,12.6c-1.3,2.4-1.3,6.4-1.3,11.5v21.6c0,2.4-1.3,3.8-3.8,3.8l0,0c-2.4,0-3.8-1.3-3.8-3.8v-49.4
				C948.6,2298,949.7,2296.7,952.3,2296.7z M928.2,2296.7c2.4,1.3,3.8,2.4,3.8,3.8v50.8c0,2.4-1.3,3.8-3.8,3.8l0,0
				c-2.4,0-3.8-1.3-3.8-3.8v-49.4C924.4,2298,925.7,2296.7,928.2,2296.7 M928.2,2281.4c2.4,1.3,3.8,2.4,3.8,3.8v1.3
				c0,2.4-1.3,3.8-5,3.8c-2.4,0-3.8-1.3-3.8-3.8C925.7,2282.7,926.9,2281.4,928.2,2281.4 M889,2296.7c10.2,0,17.8,5,22.8,14v1.3l0,0
				c0,2.4-1.3,3.8-3.8,3.8c-1.3,0-3.8-1.3-6.4-5c-3.8-3.8-8.8-6.4-14-6.4c-6.4,0-11.5,2.4-15.2,8.8v1.3c0,1.3,2.4,2.4,6.4,3.8
				c16.4,3.8,25.4,6.4,26.6,6.4c3.8,2.4,6.4,6.4,6.4,10.2l0,0c0,6.4-3.8,11.5-12.6,16.4c-3.8,1.3-7.6,2.4-11.5,2.4
				c-8.8,0-16.4-3.8-21.6-12.6c0-1.3-1.3-1.3-1.3-2.4v-1.3c0-2.4,1.3-3.8,5-3.8c1.3,0,3.8,1.3,6.4,5c3.8,3.8,7.6,5,12.6,5
				c6.4,0,11.5-2.4,15.2-8.8v-1.3l0,0c0-1.3-1.3-2.4-3.8-2.4c-19-3.8-29.2-6.4-30.4-7.6c-3.8-2.4-5-6.4-5-10.2
				c0-5,3.8-10.2,11.5-15.2C879.9,2298,883.8,2296.7,889,2296.7z M824.1,2298c2.4,0,3.8,1.3,3.8,3.8l0,0c0,1.3-6.4,16.4-20.4,48.3
				c-6.4,15.2-10.2,24.2-10.2,24.2c-1.3,0-1.3,1.3-2.4,1.3c-2.4,0-3.8-1.3-3.8-3.8v-1.3c0,0,2.4-7.6,8.8-22.8l0,0l-19-47l0,0
				c0-2.4,1.3-3.8,3.8-3.8c2.4,0,3.8,2.4,6.4,7.6c8.8,20.4,12.6,31.7,14,33l0,0c10.2-25.4,16.4-39.4,16.4-39.4
				C822.9,2298,824.1,2298,824.1,2298z M753,2296.7c7.6,0,14,2.4,20.4,8.8c0,1.3,0,1.3,0,2.4l0,0c0,2.4-1.3,3.8-3.8,3.8l0,0
				c-1.3,0-3.8-1.3-6.4-3.8c-3.8-1.3-6.4-2.4-8.8-2.4h-1.3c-8.8,0-15.2,3.8-19,12.6c-1.3,2.4-1.3,5-1.3,7.6c0,8.8,3.8,15.2,12.6,19
				c2.4,1.3,5,1.3,8.8,1.3c5,0,10.2-2.4,15.2-6.4h1.3h1.3c2.4,0,3.8,1.3,3.8,3.8l0,0c0,2.4-5,6.4-14,10.2c-2.4,0-5,1.3-6.4,1.3h-1.3
				c-7.6,0-15.2-3.8-21.6-11.5c-7.6-5-8.8-11.5-8.8-17.8c0-10.2,3.8-17.8,12.6-24.2C741.6,2298,746.6,2296.7,753,2296.7z
				 M662.8,2325.9L662.8,2325.9c0,8.8,3.8,15.2,12.6,20.4c2.4,1.3,5,1.3,7.6,1.3h1.3c7.6,0,12.6-3.8,17.8-10.2
				c1.3-3.8,2.4-6.4,2.4-10.2v-1.3c0-7.6-3.8-14-12.6-19c-2.4-1.3-6.4-2.4-8.8-2.4l0,0c-8.8,0-15.2,5-19,14
				C664.2,2322.1,662.8,2323.3,662.8,2325.9 M684.4,2296.7c11.5,0,20.4,5,26.6,16.4c2.4,3.8,2.4,8.8,2.4,14v25.4
				c0,2.4-1.3,3.8-3.8,3.8l0,0c-1.3,0-3.8-1.3-3.8-3.8l0,0v-5l0,0c-6.4,6.4-12.6,8.8-20.4,8.8h-1.3c-10.2,0-17.8-5-25.4-15.2
				c-2.4-5-3.8-10.2-3.8-15.2c0-11.5,5-19,16.4-25.4C675.6,2298,680.6,2296.7,684.4,2296.7z M594.3,2325.9L594.3,2325.9
				c0,10.2,5,16.4,14,20.4c2.4,1.3,5,1.3,6.4,1.3h1.3c8.8,0,15.2-5,19-14c1.3-2.4,1.3-5,1.3-6.4v-1.3c0-8.8-5-15.2-14-19
				c-2.4-1.3-5-1.3-6.4-1.3h-1.3c-8.8,0-15.2,5-19,14C594.3,2320.9,594.3,2323.3,594.3,2325.9z M614.6,2296.7
				c8.8,0,16.4,3.8,22.8,11.5c3.8,6.4,6.4,11.5,6.4,17.8v7.6v25.4c0,5-3.8,10.2-11.5,15.2c-6.4,3.8-11.5,5-17.8,5
				c-10.2,0-19-5-26.6-14c-1.3-2.4-2.4-3.8-2.4-3.8l0,0c0-1.3,1.3-2.4,3.8-3.8l0,0c2.4,0,3.8,1.3,5,5c5,6.4,11.5,10.2,19,10.2
				c8.8,0,16.4-3.8,20.4-12.6v-2.4v-10.2c-6.4,6.4-12.6,8.8-20.4,8.8h-1.3c-7.6,0-15.2-3.8-21.6-11.5c-2.4-6.4-5-12.6-5-19
				c0-8.8,3.8-17.8,12.6-24.2C603.2,2299.2,609.5,2296.7,614.6,2296.7 M527,2323.3H569c0-2.4-1.3-6.4-5-11.5c-5-5-8.8-6.4-14-6.4
				h-3.8c-6.4,0-12.6,3.8-16.4,10.2C528.3,2318.2,527,2320.9,527,2323.3 M547.3,2296.7c11.5,0,20.4,5,26.6,16.4
				c2.4,3.8,3.8,8.8,3.8,14v1.3c0,2.4-1.3,3.8-3.8,3.8h-45.7c1.3,6.4,5,10.2,11.5,12.6c3.8,1.3,6.4,2.4,8.8,2.4
				c3.8,0,7.6-1.3,11.5-3.8h1.3c2.4,0,3.8,1.3,3.8,3.8l0,0c0,3.8-5,6.4-15.2,7.6h-1.3c-10.2,0-19-5-25.4-15.2
				c-2.4-5-3.8-10.2-3.8-15.2c0-10.2,5-19,15.2-25.4C538.5,2298,543.4,2296.7,547.3,2296.7L547.3,2296.7z M496.5,2273.9
				L496.5,2273.9c3.8,0,5,1.3,5,3.8v69.8h5c1.3,0,2.4,1.3,3.8,3.8l0,0c0,2.4-1.3,3.8-3.8,3.8h-8.7c-2.4,0-3.8-1.3-3.8-3.8v-73.6
				C492.7,2275.1,493.9,2273.9,496.5,2273.9L496.5,2273.9z M401.3,2324.6L401.3,2324.6c0,10.2,5,16.4,14,20.4c2.4,1.3,5,1.3,6.4,1.3
				h1.3c8.8,0,15.2-5,19-14c1.3-2.4,1.3-5,1.3-6.4l0,0c0-8.8-5-15.2-14-20.4c-2.4-1.3-5-1.3-6.4-1.3h-1.3c-8.8,0-15.2,5-19,14
				C401.3,2320.9,401.3,2323.3,401.3,2324.6L401.3,2324.6z M446.9,2273.9L446.9,2273.9c3.8,0,5,1.3,5,3.8v43.2v7.6
				c0,5-2.4,11.5-6.4,17.8c-6.4,7.6-14,10.2-21.6,10.2h-1.3c-7.6,0-15.2-3.8-22.8-11.5c-3.8-6.4-6.4-12.6-6.4-19
				c0-10.2,3.8-17.8,12.6-24.2c5-3.8,11.5-5,16.4-5c7.6,0,15.2,2.4,21.6,8.8v-24v-3.8C444.5,2273.9,445.7,2273.9,446.9,2273.9
				 M333.9,2323.3h41.9c0-2.4-1.3-6.4-5-11.5c-5-5-8.8-6.4-14-6.4h-2.4c-6.4,0-12.6,3.8-16.4,10.2
				C335.2,2318.2,333.9,2320.9,333.9,2323.3 M354.3,2296.7c11.5,0,20.4,5,26.6,16.4c2.4,3.8,3.8,8.8,3.8,14v1.3
				c0,2.4-1.3,3.8-3.8,3.8h-45.7c1.3,6.4,5,10.2,11.5,12.6c3.8,1.3,6.4,2.4,8.8,2.4c3.8,0,7.6-1.3,11.5-3.8h1.3
				c2.4,0,3.8,1.3,3.8,3.8l0,0c0,3.8-5,6.4-15.2,7.6h-1.3c-10.2,0-19-5-25.4-15.2c-2.4-5-3.8-10.2-3.8-15.2c0-10.2,5-19,15.2-25.4
				C345.4,2298,350.5,2296.7,354.3,2296.7z M298.4,2275.1L298.4,2275.1c3.8,0,5,1.3,5,3.8v19h8.8h2.4c2.4,0,3.8,1.3,3.8,3.8
				s-1.3,3.8-3.8,3.8h-2.4h-7.6v30.4c0,5,1.3,8.8,5,10.2h5h2.4c1.3,0,2.4,1.3,3.8,3.8l0,0c0,2.4-1.3,3.8-3.8,3.8h-3.8
				c-6.4,0-11.5-3.8-15.2-11.5c0-1.3-1.3-3.8-1.3-6.4v-31.7h-3.8h-3.8c-2.4-1.3-3.8-2.4-3.8-3.8c0-2.4,1.3-3.8,3.8-3.8l0,0h2.4h5
				v-17.8C294.6,2277.6,295.8,2275.1,298.4,2275.1L298.4,2275.1z M252.8,2296.7c10.2,0,17.8,5,22.8,14v1.3l0,0
				c0,2.4-1.3,3.8-3.8,3.8c-1.3,0-3.8-1.3-6.4-5c-3.8-3.8-8.8-6.4-14-6.4c-6.4,0-11.5,2.4-15.2,8.8v1.3c0,1.3,2.4,2.4,6.4,3.8
				c16.4,3.8,25.4,6.4,26.6,6.4c3.8,2.4,6.4,6.4,6.4,10.2l0,0c0,6.4-3.8,11.5-12.6,16.4c-3.8,1.3-7.6,2.4-11.5,2.4
				c-8.8,0-16.4-3.8-21.6-12.6c0-1.3-1.3-1.3-1.3-2.4v-1.3c0-2.4,1.3-3.8,5-3.8c1.3,0,3.8,1.3,6.4,5c3.8,3.8,7.6,5,12.6,5
				c6.4,0,11.5-2.4,15.2-8.8v-1.3l0,0c0-1.3-1.3-2.4-3.8-2.4c-19-3.8-29.2-6.4-30.4-7.6c-3.8,0-5-3.8-5-7.6c0-5,3.8-10.2,11.5-15.2
				C243.8,2298,249,2296.7,252.8,2296.7L252.8,2296.7z M167.6,2296.7c2.4,1.3,3.8,2.4,3.8,3.8v22.8c0,10.2,2.4,16.4,8.8,20.4
				c3.8,2.4,7.6,3.8,11.5,3.8c8.8,0,15.2-3.8,19-12.6c1.3-2.4,1.3-5,1.3-8.8v-25.4c0-2.4,2.4-3.8,3.8-3.8c2.4,0,3.8,2.4,3.8,3.8
				v50.8c0,2.4-1.3,2.4-3.8,3.8l0,0c-2.4,0-3.8-1.3-3.8-3.8v-3.8l0,0c-6.4,5-12.6,7.6-19,7.6h-2.4c-8.8,0-16.4-3.8-22.8-12.6
				c-2.4-5-5-10.2-5-17.8v-24.2C163.8,2298,165,2296.7,167.6,2296.7 M115.6,2296.7c2.4,1.3,3.8,2.4,3.8,3.8v3.8
				c6.4-5,12.6-8.8,20.4-8.8c3.8,0,7.6,1.3,12.6,2.4c1.3,1.3,1.3,2.4,1.3,3.8l0,0c0,2.4-1.3,3.8-3.8,3.8l0,0
				c-3.8-1.3-6.4-2.4-8.8-2.4h-1.4c-8.8,0-15.2,3.8-19,12.6c-1.3,2.4-1.3,5-1.3,7.6v25.4c0,2.4-1.3,3.8-3.8,3.8l0,0
				c-2.4,0-3.8-1.3-3.8-3.8v-49.4C111.8,2298,113.1,2296.7,115.6,2296.7z M81.2,2275.1L81.2,2275.1c3.8,0,5,1.3,5,3.8v19h8.8h2.4
				c2.4,0,3.8,1.3,3.8,3.8s-1.3,3.8-3.8,3.8h-3.8h-7.6v30.4c0,5,1.3,8.8,5,10.2h5h2.4c1.3,0,2.4,1.3,3.8,3.8l0,0
				c0,2.4-1.3,3.8-3.8,3.8h-3.8c-6.4,0-11.5-3.8-15.2-11.5c0-1.3-1.3-3.8-1.3-6.4v-31.7h-3.8h-3.8c-2.4-1.3-3.8-2.4-3.8-3.8
				c0-2.4,1.3-3.8,3.8-3.8l0,0h2.4h5v-17.8C77.4,2277.6,78.8,2275.1,81.2,2275.1"/>
		</g>
		<g id="g62" transform="translate(318.0439,56.4619)">
			<path id="path64" class="st2" d="M2285.8,1641.8c-6.4-6.4-16.4-11.5-26.6-11.5c-10.2,0-20.4,5-26.6,11.5
				c-6.4,6.4-11.5,16.4-11.5,26.6c0,10.2,3.8,20.4,11.5,26.6c6.4,6.4,16.4,11.5,26.6,11.5c10.2,0,20.4-3.8,26.6-11.5
				c6.4-6.4,11.5-16.4,11.5-26.6C2297.3,1658.4,2292.2,1648.2,2285.8,1641.8 M2259.2,1629.1c11.5,0,21.6,5,28,11.5
				c6.4,6.4,11.5,17.8,11.5,28c0,11.5-3.8,21.6-11.5,28c-7.6,7.6-17.8,11.5-28,11.5c-10.2,0-21.6-5-28-11.5
				c-7.6-6.4-12.6-16.4-12.6-28c0-11.5,5-21.6,11.5-28C2237.6,1632.9,2247.7,1629.1,2259.2,1629.1"/>
		</g>
		<g id="g66" transform="translate(315.1052,54.5794)">
			<path id="path68" class="st2" d="M2251.5,1667.6h14c2.4,0,5,0,6.4-1.3c1.3,0,2.4-1.3,3.8-2.4c1.3-1.3,2.4-2.4,2.4-5
				c0-1.3-1.3-3.8-2.4-5c-2.4-1.3-5-2.4-8.8-2.4h-15.2L2251.5,1667.6L2251.5,1667.6z M2245.2,1695.4V1646h21.6c3.8,0,7.6,0,10.2,1.3
				c2.4,1.3,3.8,2.4,5,5c1.3,2.6,2.4,5,2.4,7.6c0,3.8-1.3,6.4-3.8,8.8c-2.4,1.3-5,2.4-10.2,3.8c1.3,1.3,2.4,1.3,3.8,2.4
				c2.4,1.3,3.8,3.8,5,6.4l8.8,14h-7.6l-7.6-10.2c-1.3-3.8-2.4-6.4-3.8-7.6c-1.3-1.2-2.4-2.4-3.8-2.4c-1.3-1.3-1.3-1.3-2.4-1.3
				c-1.3,0-2.4,0-3.8,0h-7.6v21.6L2245.2,1695.4L2245.2,1695.4z"/>
		</g>
	</g>
	<g>
		<g>
			<path class="st3" d="M1126.7,1657.1c-48.8-18-94.6-39.5-137.1-60.9C995.6,1599.4,1047.6,1629.7,1126.7,1657.1z"/>
			
				<linearGradient id="SVGID_1_" gradientUnits="userSpaceOnUse" x1="-99.0921" y1="2152.1711" x2="1175.6434" y2="1670.2576" gradientTransform="matrix(1 0 0 -1 0 2734)">
				<stop  offset="0" style="stop-color:#E00E7B"/>
				<stop  offset="0.3056" style="stop-color:#DD0F7B"/>
				<stop  offset="0.5164" style="stop-color:#D4127B"/>
				<stop  offset="0.6986" style="stop-color:#C5177A"/>
				<stop  offset="0.8637" style="stop-color:#AF1E79"/>
				<stop  offset="1" style="stop-color:#972678"/>
			</linearGradient>
			<path class="st4" d="M989.7,1596.2c42.4,21.4,88.3,42.4,137.1,60.9c73.2,24.4,167.4,42.4,274.1,36.5
				c39.5-121.8,137.1-517.7-115.6-974.3c0,0-255.9-444.7-819.2-490.1c0,0-252.7,502.2,70.2,974.3
				C535.7,1203.5,660.6,1425.8,989.7,1596.2L989.7,1596.2C986.7,1593.2,986.7,1593.2,989.7,1596.2z"/>
		</g>
		<g>
			<path class="st3" d="M1610.9,1648.2c33.5-12.1,66.8-27.4,103.3-48.8C1680.9,1617.6,1647.4,1632.7,1610.9,1648.2z"/>
			
				<linearGradient id="SVGID_2_" gradientUnits="userSpaceOnUse" x1="2705.6211" y1="1988.5078" x2="1550.0663" y2="1703.5045" gradientTransform="matrix(1 0 0 -1 0 2734)">
				<stop  offset="0" style="stop-color:#E00E7B"/>
				<stop  offset="0.3056" style="stop-color:#DD0F7B"/>
				<stop  offset="0.5164" style="stop-color:#D4127B"/>
				<stop  offset="0.6986" style="stop-color:#C5177A"/>
				<stop  offset="0.8637" style="stop-color:#AF1E79"/>
				<stop  offset="1" style="stop-color:#972678"/>
			</linearGradient>
			<path class="st5" d="M2234.9,235.2c-566.5,45.8-819.2,493.5-819.2,493.5c-246.7,447.7-161.5,834.2-118.8,965.4
				c91.2,9.1,200.9,0,313.6-42.4c36.5-15.1,70.2-30.3,103.3-48.8c3-3,9.1-6,12.1-6l0,0c316.6-167.4,438.3-383.8,438.3-383.8
				C2488,740.8,2234.9,235.2,2234.9,235.2z"/>
			
				<linearGradient id="SVGID_3_" gradientUnits="userSpaceOnUse" x1="2847.5852" y1="1412.8981" x2="1692.0333" y2="1127.8949" gradientTransform="matrix(1 0 0 -1 0 2734)">
				<stop  offset="0" style="stop-color:#E00E7B"/>
				<stop  offset="0.3056" style="stop-color:#DD0F7B"/>
				<stop  offset="0.5164" style="stop-color:#D4127B"/>
				<stop  offset="0.6986" style="stop-color:#C5177A"/>
				<stop  offset="0.8637" style="stop-color:#AF1E79"/>
				<stop  offset="1" style="stop-color:#972678"/>
			</linearGradient>
			<path class="st6" d="M1714.2,1602.4c3-3,9.1-3,12.1-6l0,0C1720.6,1596.2,1717.6,1599.4,1714.2,1602.4z"/>
			
				<linearGradient id="SVGID_4_" gradientUnits="userSpaceOnUse" x1="831.5162" y1="1470.5986" x2="1507.8888" y2="1214.8987" gradientTransform="matrix(1 0 0 -1 0 2734)">
				<stop  offset="0" style="stop-color:#E00E7B"/>
				<stop  offset="0.3056" style="stop-color:#DD0F7B"/>
				<stop  offset="0.5164" style="stop-color:#D4127B"/>
				<stop  offset="0.6986" style="stop-color:#C5177A"/>
				<stop  offset="0.8637" style="stop-color:#AF1E79"/>
				<stop  offset="1" style="stop-color:#972678"/>
			</linearGradient>
			<path class="st7" d="M1714.2,1602.4c3-3,9.1-3,12.1-6l0,0C1720.6,1596.2,1717.6,1599.4,1714.2,1602.4z"/>
		</g>
		<g>
			
				<linearGradient id="SVGID_5_" gradientUnits="userSpaceOnUse" x1="1342.3433" y1="2712.0259" x2="1342.3433" y2="1254.1317" gradientTransform="matrix(1 0 0 -1 0 2734)">
				<stop  offset="0" style="stop-color:#E00E7B"/>
				<stop  offset="0.3056" style="stop-color:#DD0F7B"/>
				<stop  offset="0.5164" style="stop-color:#D4127B"/>
				<stop  offset="0.6986" style="stop-color:#C5177A"/>
				<stop  offset="0.8637" style="stop-color:#AF1E79"/>
				<stop  offset="1" style="stop-color:#972678"/>
			</linearGradient>
			<path class="st8" d="M1787.4,889.9C1823.9,320.5,1349.1,16,1349.1,16C886.3,344.7,895.3,859.6,895.3,859.6
				c15.1,420.3,200.9,691.4,322.7,822.1c57.9,12.1,124.8,18,195,12.1C1799.5,1285.6,1787.4,889.9,1787.4,889.9z"/>
		</g>
		<g>
			
				<linearGradient id="SVGID_6_" gradientUnits="userSpaceOnUse" x1="763.2493" y1="1419.8923" x2="1374.709" y2="1772.2599" gradientTransform="matrix(1 0 0 -1 0 2734)">
				<stop  offset="0" style="stop-color:#E00E7B"/>
				<stop  offset="0.3056" style="stop-color:#DD0F7B"/>
				<stop  offset="0.5164" style="stop-color:#D4127B"/>
				<stop  offset="0.6986" style="stop-color:#C5177A"/>
				<stop  offset="0.8637" style="stop-color:#AF1E79"/>
				<stop  offset="1" style="stop-color:#972678"/>
			</linearGradient>
			<path class="st9" d="M1415.9,1693.6c12.1-12.1,24.4-24.4,33.5-39.5c42.4-164.4,88.3-514.5-134.1-916.6
				c0,0-100.6-173.6-313.6-316.6C889.1,652.5,892.1,856.4,892.1,856.4c15.1,420.3,200.9,691.4,322.7,822.1
				C1278.9,1693.6,1342.7,1700,1415.9,1693.6z"/>
		</g>
		<g>
			
				<linearGradient id="SVGID_7_" gradientUnits="userSpaceOnUse" x1="141.0582" y1="882.6994" x2="1985.8" y2="1908.708" gradientTransform="matrix(1 0 0 -1 0 2734)">
				<stop  offset="0" style="stop-color:#E00E7B"/>
				<stop  offset="0.3056" style="stop-color:#DD0F7B"/>
				<stop  offset="0.5164" style="stop-color:#D4127B"/>
				<stop  offset="0.6986" style="stop-color:#C5177A"/>
				<stop  offset="0.8637" style="stop-color:#AF1E79"/>
				<stop  offset="1" style="stop-color:#972678"/>
			</linearGradient>
			<path class="st10" d="M1787.4,889.9c12.1-179.5-27.4-335-88.3-459.8c-213,143.2-313.6,316.6-313.6,316.6
				c-234.4,423.3-167.4,791.8-124.8,943.9c48.8,6,100.6,9.1,155.5,6C1799.5,1285.6,1787.4,889.9,1787.4,889.9z"/>
		</g>
	</g>
</g>
</svg>
