<?xml version="1.0" encoding="utf-8"?>
<svg width="100px" height="100px" viewBox="0 0 100 100" version="1.1" xmlns:xlink="http://www.w3.org/1999/xlink" xmlns="http://www.w3.org/2000/svg">
  <defs>
    <path d="M100 0L100 0L100 100L0 100L0 0L100 0Z" id="path_1" />
    <clipPath id="clip_1">
      <use xlink:href="#path_1" clip-rule="evenodd" fill-rule="evenodd" />
    </clipPath>
  </defs>
  <g id="bitcoin-stacked-money-svgrepo-com" clip-path="url(#clip_1)">
    <path d="M100 0L100 0L100 100L0 100L0 0L100 0Z" id="bitcoin-stacked-money-svgrepo-com" fill="none" stroke="none" />
    <path d="M65.7379 43.9758C78.9734 43.9758 89.7461 54.7484 89.7461 67.9871C89.7461 81.2258 78.9734 91.9984 65.7379 91.9984C52.4994 91.9984 41.7266 81.2258 41.7266 67.9871C41.7266 54.7484 52.4994 43.9758 65.7379 43.9758M65.7379 35.9742C48.056 35.9742 33.725 50.3053 33.725 67.9871C33.725 85.6689 48.056 100 65.7379 100C83.4168 100 97.7508 85.6689 97.7508 67.9871C97.7508 50.3053 83.4168 35.9742 65.7379 35.9742L65.7379 35.9742ZM28.2014 0C13.8672 0 2.24921 5.65801 2.24921 12.6404L2.24921 19.391C2.24921 26.3732 13.8672 32.0313 28.2014 32.0313C42.5293 32.0313 54.1504 26.3732 54.1504 19.3908L54.1504 12.6404C54.1504 5.65801 42.5293 0 28.2014 0L28.2014 0ZM28.2014 5.24902C40.8357 5.24902 48.8984 10.1014 48.8984 12.6404C48.8984 15.1795 40.8357 20.0318 28.2014 20.0318C15.5609 20.0318 7.50137 15.1795 7.50137 12.6404C7.50137 10.1014 15.5609 5.24902 28.2014 5.24902L28.2014 5.24902ZM28.1982 42.1875C32.9986 42.1875 37.4939 41.5467 41.3514 40.4418C37.6373 43.7072 34.5978 47.7416 32.4555 52.2705C31.076 52.3805 29.6539 52.4475 28.1982 52.4475C13.8703 52.4475 2.24921 46.7803 2.24921 39.801L2.24921 31.8664C2.24921 31.7383 2.34687 31.6223 2.475 31.61C2.53906 31.5916 2.60312 31.6223 2.64902 31.6893C2.61855 31.6893 2.64902 31.7809 2.82597 32.2143C5.33749 37.915 15.741 42.1875 28.1982 42.1875L28.1982 42.1875ZM28.9154 67.9871C28.9154 69.5435 29.0131 71.0633 29.2176 72.5648C28.885 72.5832 28.5461 72.5832 28.1982 72.5832C13.8703 72.5832 2.24921 66.9312 2.24921 59.9551L2.24921 51.9961C2.24921 51.8861 2.34687 51.7763 2.475 51.758C2.57871 51.7457 2.64589 51.8068 2.69472 51.8801C2.63359 51.8008 2.56953 51.758 2.82597 52.3683C5.33749 58.0629 15.741 62.3416 28.1982 62.3416C28.5828 62.3416 28.9826 62.3416 29.3641 62.3049C29.0588 64.1633 28.9154 66.0523 28.9154 67.9871L28.9154 67.9871ZM37.735 91.8518C34.79 92.4316 31.5734 92.7338 28.1982 92.7338C13.8703 92.7338 2.24921 87.085 2.24921 80.0904L2.24921 72.1498C2.24921 72.0217 2.34687 71.924 2.475 71.9117C2.57265 71.8933 2.66718 71.9422 2.69785 72.0398C2.63378 71.9605 2.55449 71.881 2.82597 72.5037C5.3375 78.2166 15.741 82.4891 28.1982 82.4891C29.4281 82.4891 30.6609 82.4402 31.8451 82.3609C33.316 85.8338 35.318 89.0381 37.735 91.8518L37.735 91.8518ZM71.7834 68.5791C72.5739 68.3074 72.525 67.978 73.0957 67.5903C73.6664 67.1996 74.1364 66.7662 74.5117 66.284C74.8811 65.8078 75.1557 65.2951 75.3326 64.7459C75.5096 64.1967 75.5981 63.6229 75.5981 63.0246C75.5981 61.9748 75.4211 61.0287 75.067 60.1895C74.7129 59.3533 74.1576 58.6422 73.3946 58.0502C72.6346 57.4582 71.6612 57.0065 70.477 56.6891C69.5432 56.4389 68.4598 56.2862 67.2268 56.2344L67.2268 53.4481L63.1862 53.4481L63.1862 56.2069L58.0928 56.2069L56.4203 56.2069L56.4203 58.2912C56.4203 58.8985 56.3776 59.2709 56.9697 59.399C57.0217 59.4051 57.0949 59.4174 57.1895 59.4358C57.2871 59.4541 57.4611 59.4846 57.7174 59.5334C57.9738 59.5762 57.6473 59.6371 58.0928 59.7196L58.0928 78.2895C57.6473 78.3659 57.9738 78.4299 57.7174 78.4727C57.461 78.5184 57.2871 78.552 57.1895 78.5672C57.0949 78.5825 57.0217 78.5977 56.9697 78.6069C56.3778 78.735 56.4203 79.1012 56.4203 79.7147L56.4203 81.793L58.0928 81.793L63.1862 81.793L63.1862 84.3809L67.2268 84.3809L67.2268 81.793L67.7518 81.793C69.2379 81.793 70.5563 81.6038 71.7129 81.2254C72.8696 80.8532 73.8401 80.3282 74.6305 79.6629C75.4241 78.9977 76.0221 78.2012 76.4403 77.2825C76.8522 76.3608 77.0567 75.3598 77.0567 74.2735C77.0569 71.2647 75.299 69.3727 71.7834 68.5791L71.7834 68.5791ZM62.851 59.8908L66.1865 59.8908C67.7918 59.8908 68.9697 60.1746 69.7235 60.7422C70.4803 61.3069 70.8588 62.2559 70.8588 63.5865C70.8588 64.8744 70.4377 65.8143 69.6014 66.4002C68.7621 66.9922 67.5354 67.2852 65.9209 67.2852L62.8508 67.2852L62.8508 59.8908L62.851 59.8908ZM71.518 75.6715C71.3563 76.1477 71.0969 76.5565 70.7399 76.9106C70.3768 77.2647 69.9006 77.5485 69.3026 77.759C68.7074 77.9727 67.969 78.0795 67.084 78.0795L62.8512 78.0795L62.8512 70.5783L67.0688 70.5783C67.9049 70.5783 68.6191 70.6608 69.208 70.8256C69.7969 70.9904 70.2822 71.2285 70.6576 71.5428C71.0361 71.8571 71.3137 72.2324 71.4877 72.675C71.6678 73.1176 71.7563 73.6151 71.7563 74.1703C71.7561 74.701 71.6737 75.2014 71.518 75.6715L71.518 75.6715Z" id="Group" fill="#F2BD04" fill-rule="evenodd" stroke="none" />
  </g>
</svg>