<?xml version="1.0" encoding="utf-8"?>
<svg width="100px" height="100px" viewBox="0 0 100 100" version="1.1" xmlns:xlink="http://www.w3.org/1999/xlink" xmlns="http://www.w3.org/2000/svg">
  <defs>
    <path d="M100 0L100 0L100 100L0 100L0 0L100 0Z" id="path_1" />
    <clipPath id="clip_1">
      <use xlink:href="#path_1" clip-rule="evenodd" fill-rule="evenodd" />
    </clipPath>
  </defs>
  <g id="sale-statistics-svgrepo-com" clip-path="url(#clip_1)">
    <path d="M100 0L100 0L100 100L0 100L0 0L100 0Z" id="sale-statistics-svgrepo-com" fill="none" stroke="none" />
    <path d="M97.7978 86.3018L84.4781 86.3018L84.4781 30.2127L89.6826 25.0618L89.6828 33.0689C89.6828 34.2852 90.6688 35.2712 91.885 35.2712C93.1013 35.2712 94.0873 34.2852 94.0873 33.0689L94.0871 19.5176C94.0871 18.3013 93.1011 17.3153 91.8848 17.3153L78.3341 17.3153C77.1178 17.3153 76.1319 18.3013 76.1319 19.5176C76.1319 20.7338 77.1178 21.7198 78.3341 21.7198L86.7983 21.7198L53.9557 54.225L38.3816 38.5387C37.9682 38.1221 37.4057 37.8879 36.8188 37.8879C36.8186 37.8879 36.8184 37.8879 36.8182 37.8879C36.2311 37.8881 35.6686 38.1226 35.2552 38.5395L5.56623 68.475C4.70987 69.3384 4.71553 70.733 5.57902 71.5893C6.00857 72.0153 6.56919 72.228 7.12982 72.228C7.69633 72.228 8.26283 72.0107 8.69342 71.5766L11.3334 68.9146L11.3334 86.302L4.40449 86.302L4.40449 11.4961C4.40449 10.2799 3.41851 9.2939 2.20225 9.2939C0.985977 9.2939 0 10.2799 0 11.4961L0 88.5041C0 89.7203 0.985977 90.7063 2.20225 90.7063L97.7978 90.7063C99.014 90.7063 100 89.7203 100 88.5041C100 87.2878 99.014 86.3018 97.7978 86.3018L97.7978 86.3018ZM80.0737 86.3018L56.1445 86.3018L56.1445 58.2555L80.0737 34.5721L80.0737 86.3018L80.0737 86.3018ZM39.0209 45.4338L51.7398 58.2442L51.7398 86.3016L39.0209 86.3016L39.0209 45.4338L39.0209 45.4338ZM15.7379 64.4732L34.6164 45.4378L34.6164 86.3016L15.7379 86.3016L15.7379 64.4732L15.7379 64.4732Z" id="Shape" fill="#FEB680" fill-rule="evenodd" stroke="none" />
  </g>
</svg>